<?xml version="1.0" standalone="no"?>
<!DOCTYPE svg PUBLIC "-//W3C//DTD SVG 1.1//EN" "http://www.w3.org/Graphics/SVG/1.1/DTD/svg11.dtd" >
<svg xmlns="http://www.w3.org/2000/svg" xmlns:xlink="http://www.w3.org/1999/xlink" version="1.1">
<metadata>
Created by FontForge 20150318 at Mon Sep 28 16:11:45 2015
 By uniteet7
Copyright (c) 2002, 2005 Parachute :, www.parachute.gr.  All rights reserved.
</metadata>
<defs>
<font id="PFDinTextProRegular" horiz-adv-x="1818" >
  <font-face 
    font-family="PFDinTextProRegular"
    font-weight="400"
    font-stretch="normal"
    units-per-em="1000"
    panose-1="2 0 5 6 2 0 0 2 0 4"
    ascent="750"
    descent="-250"
    x-height="496"
    cap-height="696"
    bbox="-392 -265 1760 933"
    underline-thickness="60"
    underline-position="-40"
    unicode-range="U+0020-FB05"
  />
<missing-glyph horiz-adv-x="440" 
d="M0 0v700h440v-700h-440zM220 395l140 255h-280zM250 350l140 -255v510zM80 50h280l-140 255zM50 605v-510l140 255z" />
    <glyph glyph-name="fj" unicode="fj" horiz-adv-x="478" 
d="M22 496h61v80q0 160 172 160q104 0 159 -64l-56 -56q-36 43 -108 43q-84 0 -84 -81v-82h241v-563q0 -60 -39.5 -97.5t-101.5 -37.5h-30v75q29 0 30 1q58 2 58 65v485h-158v-424h-83v424h-61v72z" />
    <glyph glyph-name="ffj" unicode="ffj" horiz-adv-x="727" 
d="M407 578v-82h241v-563q0 -60 -39.5 -97.5t-101.5 -37.5h-30v75q29 0 30 1q58 2 58 65v485h-158v-424h-83v424h-158v-424h-83v424h-61v72h61v60q0 160 172 160q63 0 108 -24q44 44 133 44q104 0 159 -64l-56 -56q-36 43 -108 43q-84 0 -84 -81zM250 639q-84 0 -84 -81v-62
h158v80q0 26 4 45q-33 18 -78 18z" />
    <glyph glyph-name="ff" unicode="ff" horiz-adv-x="520" 
d="M452 731h63v-76h-55q-53 0 -53 -64v-95h104v-72h-104v-424h-83v424h-158v-424h-83v424h-61v72h61v60q0 160 172 160q59 0 102 -21q35 36 95 36zM166 558v-62h158v105q0 14 1 21q-29 17 -75 17q-84 0 -84 -81z" />
    <glyph glyph-name="fi" unicode="fi" horiz-adv-x="478" 
d="M407 0h-83v424h-158v-424h-83v424h-61v72h61v80q0 160 172 160q104 0 159 -64l-56 -56q-36 43 -108 43q-84 0 -84 -81v-82h241v-496z" />
    <glyph glyph-name="fl" unicode="fl" horiz-adv-x="501" 
d="M482 0h-35q-122 0 -122 115v531q-38 13 -75 13q-84 0 -84 -81v-82h107v-72h-107v-424h-83v424h-61v72h61v80q0 160 172 160q73 0 152 -34v-580q0 -47 51 -47h24v-75z" />
    <glyph glyph-name="ffi" unicode="ffi" horiz-adv-x="727" 
d="M648 0h-83v424h-158v-424h-83v424h-158v-424h-83v424h-61v72h61v60q0 160 172 160q63 0 108 -24q44 44 133 44q104 0 159 -64l-56 -56q-36 43 -108 43q-84 0 -84 -81v-82h241v-496zM250 639q-84 0 -84 -81v-62h158v80q0 26 4 45q-33 18 -78 18z" />
    <glyph glyph-name="ffl" unicode="ffl" horiz-adv-x="741" 
d="M255 716q63 0 108 -24q44 44 133 44q73 0 152 -34v-580q0 -47 51 -47h24v-75h-35q-122 0 -122 115v531q-38 13 -75 13q-84 0 -84 -81v-82h105v-72h-105v-424h-83v424h-158v-424h-83v424h-61v72h61v60q0 160 172 160zM250 639q-84 0 -84 -81v-62h158v80q0 26 4 45
q-33 18 -78 18z" />
    <glyph glyph-name="ft" unicode="ft" horiz-adv-x="512" 
d="M324 425l-158 -1v-424h-83v424h-61v72h61v105q0 63 35.5 96.5t92.5 33.5h59v-76h-51q-53 0 -53 -64v-95h158v123h82v-123h76v-71h-76v-289q0 -62 49 -62h43v-74h-59q-52 0 -83.5 30.5t-31.5 85.5v309z" />
    <glyph glyph-name=".notdef" horiz-adv-x="440" 
d="M0 0v700h440v-700h-440zM220 395l140 255h-280zM250 350l140 -255v510zM80 50h280l-140 255zM50 605v-510l140 255z" />
    <glyph glyph-name=".null" horiz-adv-x="0" 
 />
    <glyph glyph-name="nonmarkingreturn" horiz-adv-x="333" 
 />
    <glyph glyph-name="space" unicode=" " horiz-adv-x="224" 
 />
    <glyph glyph-name="exclam" unicode="!" horiz-adv-x="241" 
d="M160 696l-10 -519h-60l-9 519h79zM167 0h-90v98h90v-98z" />
    <glyph glyph-name="quotedbl" unicode="&#x22;" horiz-adv-x="309" 
d="M246 494h-64v202h64v-202zM125 494h-64v202h64v-202z" />
    <glyph glyph-name="numbersign" unicode="#" horiz-adv-x="500" 
d="M15 216v57h100l21 152h-92v57h100l29 212h61l-29 -212h113l29 212h61l-29 -212h99v-57h-107l-21 -152h99v-57h-107l-29 -216h-61l29 216h-113l-29 -216h-61l29 216h-92zM197 425l-21 -152h113l21 152h-113z" />
    <glyph glyph-name="dollar" unicode="$" horiz-adv-x="500" 
d="M232 -116v111q-118 7 -197 80q8 10 24.5 33t24.5 33q64 -59 148 -68v236q-181 51 -181 186q0 81 49.5 135t131.5 60v82h50v-83q94 -8 157 -55q-7 -11 -20.5 -35t-19.5 -34q-55 37 -117 46v-228q93 -25 138 -67t45 -128q0 -83 -50 -134t-133 -59v-111h-50zM378 187
q0 78 -96 109v-222q46 7 71 36.5t25 76.5zM138 493q0 -65 94 -96v216q-42 -5 -68 -36.5t-26 -83.5z" />
    <glyph glyph-name="percent" unicode="%" horiz-adv-x="788" 
d="M736 117q0 -56 -38 -88.5t-92 -32.5t-92 32.5t-38 88.5v183q0 54 38 87t92 33t92 -33t38 -87v-183zM671 121v175q0 29 -18 46t-47 17t-47 -17t-18 -46v-175q0 -30 17.5 -47t47.5 -17t47.5 17t17.5 47zM312 396q0 -56 -38 -88.5t-92 -32.5t-92 32.5t-38 88.5v183
q0 54 38 87t92 33t92 -33t38 -87v-183zM247 400v175q0 29 -18 46t-47 17t-47 -17t-18 -46v-175q0 -30 17.5 -47t47.5 -17t47.5 17t17.5 47zM638 713l-426 -730h-61l425 730h62z" />
    <glyph glyph-name="ampersand" unicode="&#x26;" horiz-adv-x="636" 
d="M510 0l-60 75q-84 -81 -182 -81q-95 0 -145.5 49.5t-50.5 123.5q0 65 34 116.5t109 99.5l-30 39q-51 67 -51 120q0 72 47 117.5t136 45.5q93 0 163 -61l-51 -59q-35 27 -60.5 35.5t-63.5 8.5q-45 0 -67 -23.5t-22 -61.5q0 -22 7.5 -37t28.5 -45q23 -31 94 -123t108 -142
q33 56 47 121l78 -12q-24 -102 -75 -173q9 -11 47 -60t57 -73h-98zM404 135q-8 10 -62 81.5t-84 109.5q-104 -63 -104 -154q0 -45 30.5 -73t86.5 -28q34 0 71 19.5t62 44.5z" />
    <glyph glyph-name="quotesingle" unicode="'" horiz-adv-x="241" 
d="M148 494h-63v202h63v-202z" />
    <glyph glyph-name="parenleft" unicode="(" horiz-adv-x="290" 
d="M238 -120q-82 89 -134.5 198.5t-52.5 226.5q0 226 184 425l46 -28q-64 -84 -102 -188.5t-38 -203.5q0 -105 38 -209.5t101 -188.5z" />
    <glyph glyph-name="parenright" unicode=")" horiz-adv-x="290" 
d="M62 -120l-42 32q63 83 101 188t38 210q0 99 -37.5 203.5t-101.5 188.5l45 28q185 -200 185 -425q0 -117 -53 -226.5t-135 -198.5z" />
    <glyph glyph-name="asterisk" unicode="*" horiz-adv-x="361" 
d="M222 532l78 -90q-42 -34 -56 -43l-62 104l-63 -105q-5 3 -25.5 18.5t-30.5 24.5l78 91q-18 4 -56.5 15t-56.5 15l19 65l111 -47l-10 120h68l-10 -120q84 35 111 47l19 -66z" />
    <glyph glyph-name="plus" unicode="+" horiz-adv-x="500" 
d="M470 262h-188v-192h-64v192h-189v64h189v190h64v-190h188v-64z" />
    <glyph glyph-name="comma" unicode="," horiz-adv-x="252" 
d="M171 2l-56 -115h-51l32 113h-28v111h103v-109z" />
    <glyph glyph-name="hyphen" unicode="-" horiz-adv-x="392" 
d="M340 230h-288v75h288v-75z" />
    <glyph glyph-name="period" unicode="." horiz-adv-x="243" 
d="M173 0h-103v111h103v-111z" />
    <glyph glyph-name="slash" unicode="/" horiz-adv-x="317" 
d="M315 725l-251 -767h-65l251 767h65z" />
    <glyph glyph-name="zero" unicode="0" horiz-adv-x="500" 
d="M444 190q0 -90 -57 -143t-137 -53t-137 53t-57 143v316q0 90 57 143t137 53t137 -53t57 -143v-316zM362 196v304q0 56 -30.5 88.5t-81.5 32.5t-81.5 -32.5t-30.5 -88.5v-304q0 -56 30.5 -88.5t81.5 -32.5t81.5 32.5t30.5 88.5z" />
    <glyph glyph-name="one" unicode="1" horiz-adv-x="500" 
d="M299 696v-696h-82v610l-91 -66l1 87l89 65h83z" />
    <glyph glyph-name="two" unicode="2" horiz-adv-x="500" 
d="M440 0h-390v82l270 341q39 49 39 99q0 43 -27.5 71.5t-78.5 28.5q-44 0 -75 -30t-38 -78l-84 12q12 80 67.5 127t131.5 47q84 0 138 -46t54 -130q0 -73 -51 -136l-243 -307h287v-81z" />
    <glyph glyph-name="three" unicode="3" horiz-adv-x="500" 
d="M451 210q0 -96 -58.5 -156t-151.5 -60q-70 0 -123 36t-67 115l81 12q9 -43 39 -65t72 -22q56 0 90 39t34 98q0 57 -33 90t-86 33h-50v72h41q53 0 86.5 31t33.5 80q0 48 -32 79.5t-80 31.5q-36 0 -66.5 -24t-41.5 -66l-82 11q13 69 66.5 113t123.5 44q96 0 145.5 -53.5
t49.5 -133.5q0 -93 -86 -148q95 -54 95 -157z" />
    <glyph glyph-name="four" unicode="4" horiz-adv-x="500" 
d="M470 106h-58v-106h-81v106h-302v80l239 510h91l-242 -513h214v205h81v-205h58v-77z" />
    <glyph glyph-name="five" unicode="5" horiz-adv-x="500" 
d="M446 264v-44q0 -99 -53.5 -162t-151.5 -63q-165 0 -195 150l82 14q17 -91 113 -91q123 0 123 172q0 69 -24.5 110.5t-90.5 41.5q-60 0 -99 -62h-81v366h363v-78h-286v-194q52 46 125 46q83 0 129 -56t46 -150z" />
    <glyph glyph-name="six" unicode="6" horiz-adv-x="500" 
d="M450 210q0 -106 -59.5 -161t-143.5 -55q-89 0 -141.5 54t-52.5 154q0 75 37 148l180 346h91l-155 -303l3 -1q27 12 64 12q78 0 127.5 -56.5t49.5 -137.5zM363 204q0 60 -32.5 94.5t-81.5 34.5q-46 0 -80 -35t-34 -94q0 -62 31 -98t83 -36q51 0 82.5 37t31.5 97z" />
    <glyph glyph-name="seven" unicode="7" horiz-adv-x="500" 
d="M444 611l-241 -611h-92l243 615h-217v-104h-82v185h389v-85z" />
    <glyph glyph-name="eight" unicode="8" horiz-adv-x="500" 
d="M459 199q0 -89 -61 -147t-148 -58t-148 58t-61 147q0 50 26.5 95t71.5 65q-43 21 -64 60t-21 86q0 83 56.5 140t139.5 57q89 0 142.5 -56t53.5 -141q0 -45 -22 -83.5t-60 -62.5q46 -18 70.5 -63t24.5 -97zM364 507q0 53 -34 85t-80 32t-80 -31.5t-34 -85.5
q0 -53 33.5 -83t80.5 -30q46 0 80 30t34 83zM377 200q0 53 -38 88.5t-89 35.5q-52 0 -90 -35.5t-38 -88.5t38.5 -90.5t89.5 -37.5t89 37.5t38 90.5z" />
    <glyph glyph-name="nine" unicode="9" horiz-adv-x="500" 
d="M51 482q0 110 58.5 164.5t145.5 54.5q78 0 136 -55.5t58 -152.5q0 -64 -26 -115l-195 -379h-91l162 312l-3 1q-26 -16 -67 -16q-80 0 -129 52t-49 134zM133 491q0 -60 33.5 -94.5t82.5 -34.5t81.5 34.5t32.5 94.5q0 62 -31 98t-83 36q-51 0 -83.5 -37t-32.5 -97z" />
    <glyph glyph-name="colon" unicode=":" horiz-adv-x="238" 
d="M167 0h-103v111h103v-111zM167 285h-103v111h103v-111z" />
    <glyph glyph-name="semicolon" unicode=";" horiz-adv-x="238" 
d="M170 285h-103v111h103v-111zM170 2l-56 -115h-51l32 113h-28v111h103v-109z" />
    <glyph glyph-name="less" unicode="&#x3c;" horiz-adv-x="500" 
d="M450 134v-71l-407 202v60l407 203v-71l-326 -162z" />
    <glyph glyph-name="equal" unicode="=" horiz-adv-x="500" 
d="M470 357h-441v67h441v-67zM470 165h-441v67h441v-67z" />
    <glyph glyph-name="greater" unicode="&#x3e;" horiz-adv-x="500" 
d="M44 63v71l326 161l-326 162v71l407 -203v-60z" />
    <glyph glyph-name="question" unicode="?" horiz-adv-x="497" 
d="M457 517q-1 -37 -16 -70.5t-29 -51t-43 -47.5q-23 -24 -34 -37t-22 -34.5t-11 -42.5v-50h-87v52q0 67 51 120q3 3 17.5 18t20 21.5t18 20.5t18 23t13 22t10.5 24.5t3 23.5q0 24 -8 46.5t-35.5 42.5t-70.5 20q-54 0 -87 -42.5t-38 -82.5l-85 15q22 95 81.5 143.5
t138.5 48.5q87 0 141 -52t54 -131zM302 0h-90v98h90v-98z" />
    <glyph glyph-name="at" unicode="@" horiz-adv-x="827" 
d="M542 417v-155q0 -29 16.5 -46.5t39.5 -17.5q108 0 108 186q0 119 -82.5 190t-193.5 71q-135 0 -225.5 -89t-90.5 -220q0 -143 87.5 -230t231.5 -87q114 0 207 45l21 -58q-116 -45 -223 -45q-172 0 -282 102t-110 273q0 157 108 263t272 106q148 0 248.5 -91t100.5 -230
q0 -128 -52.5 -186.5t-131.5 -58.5q-25 0 -58 17.5t-41 45.5h-5q-12 -22 -43.5 -37t-69.5 -15q-59 0 -97 29t-38 84q0 47 32 79t90 32h118v44q0 63 -89 63q-44 0 -85 -39l-46 38q23 27 60 43.5t77 16.5q72 0 109 -28t37 -95zM298 267q0 -26 21.5 -42t61.5 -16q98 0 98 70v43
h-104q-77 0 -77 -55z" />
    <glyph glyph-name="A" unicode="A" horiz-adv-x="598" 
d="M592 0h-93l-56 160h-289l-56 -160h-92l255 696h76zM418 236l-67 195l-51 148h-3l-49 -144l-69 -199h239z" />
    <glyph glyph-name="B" unicode="B" horiz-adv-x="598" 
d="M560 193q0 -86 -56 -139.5t-136 -53.5h-292v696h263q99 0 152 -49.5t53 -132.5q0 -47 -26 -90t-79 -62v-3q57 -13 89 -61.5t32 -104.5zM328 619h-164v-225h164q61 0 94.5 31.5t33.5 81.5q0 49 -33.5 80.5t-94.5 31.5zM343 318h-179v-237h179q62 0 95.5 34.5t33.5 84.5
t-33 84t-96 34z" />
    <glyph glyph-name="C" unicode="C" horiz-adv-x="543" 
d="M446 182l82 -40q-26 -70 -86 -109t-143 -39q-119 0 -183 73.5t-64 184.5v192q0 109 64 183t183 74q82 0 141 -39.5t87 -107.5l-82 -37q-18 46 -55.5 72.5t-89.5 26.5q-77 0 -119 -52t-42 -124v-181q0 -75 42 -128t119 -53q52 0 90 28t56 76z" />
    <glyph glyph-name="D" unicode="D" horiz-adv-x="618" 
d="M76 696h228q175 0 237 -129q27 -55 27 -207q0 -163 -25 -222q-60 -138 -256 -138h-211v696zM480 279v133q0 203 -180 203h-136v-534h136q180 0 180 198z" />
    <glyph glyph-name="E" unicode="E" horiz-adv-x="543" 
d="M516 0h-440v696h440v-81h-352v-225h300v-77h-300v-232h352v-81z" />
    <glyph glyph-name="F" unicode="F" horiz-adv-x="524" 
d="M516 615h-352v-230h300v-77h-300v-308h-88v696h440v-81z" />
    <glyph glyph-name="G" unicode="G" horiz-adv-x="598" 
d="M299 72q67 0 113 49.5t46 116.5v55h-147v80h235v-135q0 -107 -69.5 -176t-178.5 -69q-121 0 -184 73.5t-63 185.5v192q0 110 62 183.5t180 73.5q82 0 141 -39.5t87 -107.5l-82 -37q-18 45 -56.5 72t-90.5 27q-76 0 -115 -51.5t-39 -124.5v-187q0 -75 42 -128t119 -53z
" />
    <glyph glyph-name="H" unicode="H" horiz-adv-x="636" 
d="M560 0h-88v313h-308v-313h-88v696h88v-306h308v306h88v-696z" />
    <glyph glyph-name="I" unicode="I" horiz-adv-x="241" 
d="M164 0h-88v696h88v-696z" />
    <glyph glyph-name="J" unicode="J" horiz-adv-x="467" 
d="M399 696v-474q0 -120 -58 -174t-155 -54q-108 0 -172 72l58 65q20 -20 52.5 -37t58.5 -17q58 0 93 31.5t35 114.5v473h88z" />
    <glyph glyph-name="K" unicode="K" horiz-adv-x="618" 
d="M612 0h-102l-212 353l-134 -161v-192h-88v696h89v-377l3 1l128 156l183 220h102l-227 -274z" />
    <glyph glyph-name="L" unicode="L" horiz-adv-x="543" 
d="M516 0h-440v696h88v-615h352v-81z" />
    <glyph glyph-name="M" unicode="M" horiz-adv-x="748" 
d="M683 0h-88v496l-3 -2l-54 -131l-120 -260h-77l-122 268l-52 125l-3 -2v-494h-88v696h88l147 -325l69 -162h3l69 161l145 326h86v-696z" />
    <glyph glyph-name="N" unicode="N" horiz-adv-x="673" 
d="M599 0h-86l-254 392l-92 152l-3 -1v-543h-88v696h87l245 -379l101 -167l3 2v544h87v-696z" />
    <glyph glyph-name="O" unicode="O" horiz-adv-x="595" 
d="M297 701q113 0 180.5 -72t67.5 -185v-192q0 -118 -67.5 -188t-180.5 -70q-119 0 -183 73.5t-64 184.5v192q0 109 64 183t183 74zM298 618q-77 0 -119 -52t-42 -124v-185q0 -75 42 -128t119 -53q72 0 115.5 51t43.5 130v185q0 75 -43.5 125.5t-115.5 50.5z" />
    <glyph glyph-name="P" unicode="P" horiz-adv-x="572" 
d="M561 485q0 -79 -59.5 -142t-156.5 -63h-181v-280h-88v696h255q96 0 163 -53t67 -158zM469 488q0 62 -37.5 94.5t-98.5 32.5h-169v-254h173q63 0 97.5 38.5t34.5 88.5z" />
    <glyph glyph-name="Q" unicode="Q" horiz-adv-x="598" 
d="M298 701q113 0 180.5 -72t67.5 -185v-192q0 -76 -29 -134l91 -73l-48 -60l-89 71q-67 -62 -173 -62q-119 0 -183 73.5t-64 184.5v192q0 109 64 183t183 74zM299 616q-77 0 -119 -52t-42 -124v-181q0 -75 42 -128t119 -53q59 0 100 35l-97 78l51 59l90 -73q15 42 15 82
v181q0 75 -43.5 125.5t-115.5 50.5z" />
    <glyph glyph-name="R" unicode="R" horiz-adv-x="598" 
d="M552 0h-98l-133 306h-157v-306h-88v696h284q86 0 143.5 -53t57.5 -137q0 -70 -41 -120t-109 -71zM473 506q0 56 -35 84.5t-94 28.5h-180v-236h176q59 0 96 32.5t37 90.5z" />
    <glyph glyph-name="S" unicode="S" horiz-adv-x="544" 
d="M519 198q0 -94 -69 -149t-181 -55q-69 0 -142 25t-125 70l56 71q85 -82 215 -82q70 0 112.5 30t42.5 91q0 53 -40 76t-121 39q-30 6 -42 8.5t-38.5 9t-39 13t-33 17t-30.5 23.5t-21.5 30.5t-16 40.5t-4.5 51q0 92 66.5 144t164.5 52q139 0 223 -67l-49 -75
q-84 56 -174 56q-69 0 -106.5 -29t-37.5 -81q0 -51 44 -74t151 -44q34 -7 55.5 -13t50.5 -20t46 -33t30 -51t13 -74z" />
    <glyph glyph-name="T" unicode="T" horiz-adv-x="486" 
d="M485 619h-198v-619h-88v619h-198v77h484v-77z" />
    <glyph glyph-name="U" unicode="U" horiz-adv-x="618" 
d="M469 696h88v-444q0 -118 -67.5 -188t-180.5 -70q-119 0 -183 73.5t-64 184.5v444h87v-437q0 -75 42 -128t119 -53q74 0 116.5 47.5t42.5 133.5v437z" />
    <glyph glyph-name="V" unicode="V" horiz-adv-x="543" 
d="M269 150l5 1q9 32 28.5 96t28.5 96l109 353h97l-231 -696h-72l-231 696h96l111 -355z" />
    <glyph glyph-name="W" unicode="W" horiz-adv-x="823" 
d="M410 532l-4 -1l-45 -172l-97 -359h-77l-175 696h96l78 -341l42 -188l4 -1l46 187l95 343h72l98 -349l48 -182h3q6 27 18 88.5t18 90.5l80 352h96l-176 -696h-76l-94 346z" />
    <glyph glyph-name="X" unicode="X" horiz-adv-x="523" 
d="M524 0h-98l-165 289l-164 -289h-98l214 357l-200 339h98l150 -271l151 271h98l-200 -339z" />
    <glyph glyph-name="Y" unicode="Y" horiz-adv-x="508" 
d="M504 696l-209 -420v-276h-84v276l-209 420h93l97 -193l62 -133l65 139l94 187h91z" />
    <glyph glyph-name="Z" unicode="Z" horiz-adv-x="505" 
d="M473 0h-440v77l339 542h-326v77h427v-70l-341 -545h341v-81z" />
    <glyph glyph-name="bracketleft" unicode="[" horiz-adv-x="261" 
d="M242 -105h-169v803h169v-56h-94v-691h94v-56z" />
    <glyph glyph-name="backslash" unicode="\" horiz-adv-x="317" 
d="M250 -42l-251 767h65l251 -767h-65z" />
    <glyph glyph-name="bracketright" unicode="]" horiz-adv-x="261" 
d="M195 -105h-168v56h93v691h-93v56h168v-803z" />
    <glyph glyph-name="asciicircum" unicode="^" horiz-adv-x="500" 
d="M94 328h-71l202 367h60l203 -367h-71l-162 295z" />
    <glyph glyph-name="underscore" unicode="_" horiz-adv-x="500" 
d="M500 -129h-500v60h500v-60z" />
    <glyph glyph-name="grave" unicode="`" horiz-adv-x="491" 
d="M347 571l-53 -20l-100 172l81 25z" />
    <glyph glyph-name="a" unicode="a" horiz-adv-x="482" 
d="M232 501q200 0 200 -160v-341h-83v43l-1 1q-14 -22 -51 -36t-86 -14q-83 0 -129.5 41t-46.5 106q0 62 41 104t117 42h156v56q0 81 -114 81q-82 0 -118 -43l-52 55q56 65 167 65zM113 146q0 -36 27.5 -56.5t80.5 -20.5q128 0 128 92v58h-136q-48 0 -74 -19t-26 -54z" />
    <glyph glyph-name="b" unicode="b" horiz-adv-x="496" 
d="M455 255q0 -261 -177 -261q-94 0 -135 61h-2v-55h-82v726h82v-286h2q56 61 135 61q173 0 177 -246zM370 248q0 35 -4 61.5t-15 53.5t-35.5 41.5t-60.5 14.5q-114 0 -114 -171q0 -179 114 -179q37 0 61.5 16t35.5 45.5t14.5 56t3.5 61.5z" />
    <glyph glyph-name="c" unicode="c" horiz-adv-x="431" 
d="M416 64q-70 -70 -163 -70q-95 0 -160 63t-65 190q0 128 65 191t160 63q91 0 162 -69l-53 -60q-45 50 -105 50q-71 0 -109 -44t-38 -131t38 -131t109 -44q58 0 105 51z" />
    <glyph glyph-name="d" unicode="d" horiz-adv-x="496" 
d="M443 0h-82v48l-3 1q-58 -55 -139 -55q-51 0 -86.5 19.5t-53.5 55.5t-25.5 77.5t-7.5 96.5q0 258 193 258q82 0 120 -50h2v275h82v-726zM361 248q0 33 -4 59t-14.5 53.5t-34 43t-59.5 15.5q-37 0 -61.5 -14.5t-36 -41.5t-15.5 -53.5t-4 -61.5q0 -31 2 -53.5t9 -46.5
t18.5 -39t33 -24.5t50.5 -9.5q116 0 116 173z" />
    <glyph glyph-name="e" unicode="e" horiz-adv-x="481" 
d="M444 220h-319v-8q0 -62 33.5 -102t94.5 -40q60 0 112 47l53 -59q-67 -64 -169 -64q-42 0 -76.5 11t-66 37.5t-49.5 78.5t-18 125q0 70 18.5 122t50 80t66 41t72.5 13q85 0 141.5 -59t56.5 -159v-64zM242 424q-51 0 -82 -35.5t-35 -99.5h233q-3 66 -34 100.5t-82 34.5z
" />
    <glyph glyph-name="f" unicode="f" horiz-adv-x="279" 
d="M270 424h-104v-424h-83v424h-61v72h61v105q0 63 35.5 96.5t92.5 33.5h59v-76h-51q-53 0 -53 -64v-95h104v-72z" />
    <glyph glyph-name="g" unicode="g" horiz-adv-x="511" 
d="M443 9q0 -106 -61.5 -160t-153.5 -54q-100 0 -160 57l49 67q21 -18 53 -31.5t60 -13.5q57 0 93.5 33t36.5 91v58h-2q-54 -61 -135 -61q-177 0 -177 242q0 42 4 77t16 71t31.5 61t53.5 40.5t80 15.5q37 0 72 -16.5t55 -44.5h2v55h83v-487zM131 248q0 -39 3.5 -66t14.5 -53
t34.5 -39t60.5 -13q116 0 116 171q0 33 -3 56.5t-13 53.5t-35 46.5t-63 16.5q-37 0 -61.5 -15t-35.5 -43t-14.5 -54t-3.5 -61z" />
    <glyph glyph-name="h" unicode="h" horiz-adv-x="506" 
d="M449 0h-82v297q0 61 -25 92t-84 31q-51 0 -85.5 -33.5t-34.5 -89.5v-297h-82v726h82v-292h3q53 67 138 67q75 0 122.5 -44.5t47.5 -127.5v-329z" />
    <glyph glyph-name="i" unicode="i" horiz-adv-x="224" 
d="M153 614h-82v82h82v-82zM153 0h-82v496h82v-496z" />
    <glyph glyph-name="j" unicode="j" horiz-adv-x="243" 
d="M164 614h-83v82h83v-82zM164 496v-563q0 -62 -33 -98.5t-94 -36.5h-44v75h30q27 1 42.5 18t15.5 48v557h83z" />
    <glyph glyph-name="k" unicode="k" horiz-adv-x="506" 
d="M499 0h-95l-164 249l-90 -99v-150h-82v726h82v-469h3l214 239h97l-169 -187z" />
    <glyph glyph-name="l" unicode="l" horiz-adv-x="243" 
d="M225 0h-35q-122 0 -122 115v611h82v-604q0 -47 51 -47h24v-75z" />
    <glyph glyph-name="m" unicode="m" horiz-adv-x="817" 
d="M760 0h-82v297q0 61 -26 93t-88 32q-50 0 -82 -34.5t-32 -90.5v-297h-83v297q0 125 -114 125q-50 0 -82 -34.5t-32 -90.5v-297h-83v496h83v-61h2q51 66 138 66q91 0 147 -71h1q65 71 163 71q74 0 122 -45.5t48 -125.5v-330z" />
    <glyph glyph-name="n" unicode="n" horiz-adv-x="506" 
d="M449 0h-82v297q0 61 -25.5 92t-87.5 31q-51 0 -83.5 -33.5t-32.5 -89.5v-297h-82v497h82v-63h3q25 32 63.5 49.5t79.5 17.5q74 0 119.5 -44.5t45.5 -127.5v-329z" />
    <glyph glyph-name="o" unicode="o" horiz-adv-x="514" 
d="M263 500q111 0 164 -83q34 -53 34 -152q0 -127 -31 -180q-25 -43 -72 -67t-106 -24q-113 0 -164 75q-37 56 -37 177q0 91 25 142q25 53 74 82.5t113 29.5zM260 426q-77 0 -109 -70q-16 -35 -18 -111q0 -75 15 -108q30 -68 105 -68q90 0 117 88q8 27 8 105q0 61 -13 92
q-28 72 -105 72z" />
    <glyph glyph-name="p" unicode="p" horiz-adv-x="499" 
d="M56 496h82v-55l3 -1q53 61 135 61q177 0 177 -249q0 -258 -193 -258q-77 0 -120 50h-2v-242h-82v694zM138 247q0 -33 4 -59t14.5 -53.5t34 -43t59.5 -15.5q37 0 61.5 14.5t36 41.5t15.5 53.5t4 61.5q0 28 -1.5 48t-8 45.5t-18 41.5t-33 27t-51.5 11q-117 0 -117 -173z
" />
    <glyph glyph-name="q" unicode="q" horiz-adv-x="511" 
d="M56 240q0 261 192 261q79 0 120 -63h2v58h82v-697h-82v256h-2q-56 -61 -139 -61q-169 0 -173 246zM141 247q0 -35 4 -61.5t15 -53.5t35.5 -41.5t60.5 -14.5q114 0 114 171q0 179 -114 179q-37 0 -61.5 -16t-35.5 -45.5t-14.5 -56t-3.5 -61.5z" />
    <glyph glyph-name="r" unicode="r" horiz-adv-x="365" 
d="M368 480l-35 -79q-29 19 -70 19q-51 0 -82 -31t-31 -89v-300h-82v496h82v-63h4q47 68 130 68q53 0 84 -21z" />
    <glyph glyph-name="s" unicode="s" horiz-adv-x="457" 
d="M421 147q0 -69 -54.5 -111t-140.5 -42q-124 0 -207 72l50 63q70 -61 161 -61q48 0 78.5 20t30.5 57q0 35 -28 49.5t-86 20.5q-30 3 -49 6t-45.5 12.5t-42.5 22.5t-27.5 37.5t-11.5 56.5q0 68 53 109.5t128 41.5q106 0 177 -54l-44 -66q-66 44 -133 44q-47 0 -74 -20
t-27 -53q0 -32 32 -46.5t104 -21.5q29 -3 54.5 -10.5t49.5 -22.5t38 -41.5t14 -62.5z" />
    <glyph glyph-name="t" unicode="t" horiz-adv-x="308" 
d="M268 0h-59q-52 0 -83.5 30.5t-31.5 85.5v309h-59v71h59v123h82v-123h76v-71h-76v-289q0 -62 49 -62h43v-74z" />
    <glyph glyph-name="u" unicode="u" horiz-adv-x="514" 
d="M449 0h-82v56h-3q-48 -62 -136 -62q-80 0 -126 42t-46 131v329h82v-298q0 -68 24 -97t90 -29q50 0 82.5 35t32.5 91v298h82v-496z" />
    <glyph glyph-name="v" unicode="v" horiz-adv-x="452" 
d="M227 115h4q41 126 52 164q12 35 36 108.5t36 108.5h91l-183 -496h-72l-184 496h90q12 -35 36 -108.5t36 -107.5z" />
    <glyph glyph-name="w" unicode="w" horiz-adv-x="719" 
d="M511 118h5q6 22 32 120l72 258h91l-159 -496h-78l-74 239l-43 138l-40 -137l-74 -240h-79l-158 496h90l75 -261l32 -111h4q5 19 16.5 56t15.5 52l82 264h76l80 -261z" />
    <glyph glyph-name="x" unicode="x" horiz-adv-x="463" 
d="M448 0h-99l-117 193l-117 -193h-99l169 254l-161 242h98l110 -186l110 186h99l-162 -243z" />
    <glyph glyph-name="y" unicode="y" horiz-adv-x="438" 
d="M438 496l-213 -601q-20 -56 -52 -75.5t-79 -19.5h-42v72h41q44 0 62 56l27 82l-182 486h91l79 -225l51 -156h3l51 155l77 226h86z" />
    <glyph glyph-name="z" unicode="z" horiz-adv-x="434" 
d="M400 0h-366v68l270 356h-255v72h351v-71l-268 -349h268v-76z" />
    <glyph glyph-name="braceleft" unicode="{" horiz-adv-x="261" 
d="M253 -103h-68q-40 0 -66 29.5t-26 77.5v139q0 55 -20 89.5t-58 38.5v51q38 5 58 42t20 88v136q0 49 26 78.5t66 29.5h68v-54h-41q-46 0 -46 -87v-125q0 -56 -25.5 -89.5t-49.5 -41.5v-3q24 -8 49.5 -41.5t25.5 -87.5v-130q0 -87 46 -87h41v-53z" />
    <glyph glyph-name="bar" unicode="|" horiz-adv-x="204" 
d="M135 -162h-65v878h65v-878z" />
    <glyph glyph-name="braceright" unicode="}" horiz-adv-x="261" 
d="M249 271q-38 -4 -57.5 -38.5t-19.5 -89.5v-139q0 -48 -26 -77.5t-66 -29.5h-69v53h42q24 0 35 26t11 61v130q0 55 25.5 88t49.5 41v3q-24 8 -49.5 41t-25.5 90v125q0 20 -1 31t-4.5 26.5t-14 22.5t-26.5 7h-42v50h66q46 0 70.5 -28.5t24.5 -75.5v-136q0 -52 19.5 -88.5
t57.5 -41.5v-51z" />
    <glyph glyph-name="asciitilde" unicode="~" horiz-adv-x="500" 
d="M477 312q-29 -47 -60 -69t-75 -22q-26 0 -90.5 32.5t-92.5 32.5q-25 0 -39.5 -11t-36.5 -40l-57 39q51 86 134 86q32 0 94 -32.5t89 -32.5q16 0 29.5 8.5t22.5 19t25 32.5z" />
    <glyph glyph-name="exclamdown" unicode="&#xa1;" horiz-adv-x="241" 
d="M84 -206l5 519h70l4 -519h-79zM77 490h90v-98h-90v98z" />
    <glyph glyph-name="cent" unicode="&#xa2;" horiz-adv-x="500" 
d="M290 -117h-45v114q-83 11 -136 73t-53 177t53 177.5t136 73.5v103h45v-100q87 -4 153 -69l-53 -60q-42 47 -100 50v-350q56 3 100 51l54 -59q-66 -66 -154 -70v-111zM138 247q0 -147 107 -171v342q-107 -24 -107 -171z" />
    <glyph glyph-name="sterling" unicode="&#xa3;" horiz-adv-x="500" 
d="M44 294v68h69q-5 17 -16.5 49t-18 58.5t-6.5 51.5q0 73 51 126t134 53q72 0 115 -19t86 -76l-72 -51q-46 69 -131 69q-33 0 -61.5 -26t-28.5 -76q0 -32 18.5 -87.5t21.5 -71.5h159v-68h-152q-4 -133 -61 -218h306v-76h-413v64q83 109 87 230h-87z" />
    <glyph glyph-name="currency" unicode="&#xa4;" horiz-adv-x="556" 
d="M142 319q0 -55 39 -94t94 -39q56 0 95 39t39 94q0 56 -39 95t-95 39q-55 0 -94 -39t-39 -95zM109 437l-69 68l16 16l17.5 17.5l15.5 15.5l68 -68q58 38 119 38t119 -38l67 68l49 -50l-68 -67q38 -58 38 -118q0 -59 -38 -118q55 -52 68 -66l-49 -50l-67 68
q-55 -39 -119 -39t-119 39l-68 -68l-15 15l-19.5 19.5l-14.5 14.5l69 67q-38 59 -38 118q0 60 38 118z" />
    <glyph glyph-name="yen" unicode="&#xa5;" horiz-adv-x="500" 
d="M249 365h5l138 331h88l-151 -334h119v-54h-145l-11 -26v-70h156v-54h-156v-158h-80v158h-155v54h155v70l-10 26h-145v54h118l-156 334h87z" />
    <glyph glyph-name="brokenbar" unicode="&#xa6;" horiz-adv-x="204" 
d="M135 304h-65v412h65v-412zM70 246h65v-408h-65v408z" />
    <glyph glyph-name="section" unicode="&#xa7;" horiz-adv-x="466" 
d="M440 285q0 -61 -42 -108q34 -48 34 -92q0 -71 -53.5 -116t-142.5 -45q-55 0 -106.5 21.5t-82.5 56.5l47 52q55 -59 142 -59q116 0 116 89q0 34 -30.5 56t-92.5 43q-88 29 -128.5 64t-40.5 98q0 59 47 109q-39 42 -39 94q0 68 51 111t128 43q104 0 173 -60l-45 -58
q-60 47 -130 47q-46 0 -72 -21t-26 -56q0 -33 30 -53.5t73.5 -34.5t86.5 -31.5t73 -55t30 -94.5zM170 415q-37 -24 -37 -64q0 -26 24 -47.5t53 -32.5t70 -25t59 -24q29 24 29 64q0 39 -30 59t-104 45q-18 6 -64 25z" />
    <glyph glyph-name="dieresis" unicode="&#xa8;" horiz-adv-x="491" 
d="M377 597h-88v88h88v-88zM197 597h-88v88h88v-88z" />
    <glyph glyph-name="copyright" unicode="&#xa9;" horiz-adv-x="803" 
d="M493 243l60 -28q-39 -98 -146 -98q-73 0 -113.5 46t-40.5 115v116q0 68 40.5 114t113.5 46q52 0 89.5 -26t55.5 -71l-59 -26q-26 62 -85 62q-44 0 -68 -30t-24 -72v-109q0 -43 24 -74t68 -31q61 0 85 66zM404 -8q-151 0 -249.5 99.5t-98.5 249.5t100 250.5t248 100.5
q149 0 249 -100.5t100 -250.5q0 -149 -100 -249t-249 -100zM404 631q-122 0 -203.5 -83t-81.5 -207q0 -123 81.5 -205.5t203.5 -82.5t203.5 82.5t81.5 205.5q0 124 -81.5 207t-203.5 83z" />
    <glyph glyph-name="ordfeminine" unicode="&#xaa;" horiz-adv-x="339" 
d="M167 610q141 0 141 -107v-224h-66v42q-35 -46 -94 -46q-58 0 -89 27t-31 73q0 42 29 70t83 28h102v31q0 47 -73 47q-53 0 -80 -29l-42 41q41 47 120 47zM91 378q0 -45 68 -45q83 0 83 54v32h-88q-63 0 -63 -41z" />
    <glyph glyph-name="guillemotleft" unicode="&#xab;" horiz-adv-x="459" 
d="M421 46h-78l-127 186l127 186h78l-123 -186zM249 46h-78l-127 186l127 186h78l-124 -186z" />
    <glyph glyph-name="logicalnot" unicode="&#xac;" horiz-adv-x="500" 
d="M470 326l-1 -256h-64v192h-376v64h441z" />
    <glyph glyph-name="sfthyphen" unicode="&#xad;" horiz-adv-x="392" 
d="M340 230h-288v75h288v-75z" />
    <glyph glyph-name="registered" unicode="&#xae;" horiz-adv-x="560" 
d="M488 492q0 -89 -60 -148t-149 -59t-149 59t-60 148q0 90 60 150t149 60t149 -60t60 -150zM448 492q0 74 -48.5 123t-120.5 49t-120.5 -49t-48.5 -123q0 -73 48.5 -121.5t120.5 -48.5t120.5 48.5t48.5 121.5zM335 371l-51 101h-42v-101h-41v242h100q31 0 51.5 -19
t20.5 -50q0 -48 -47 -66l56 -107h-47zM295 576h-53v-66h52q17 0 27.5 9t10.5 25q0 32 -37 32z" />
    <glyph glyph-name="macron" unicode="&#xaf;" horiz-adv-x="491" 
d="M395 600h-268v75h268v-75z" />
    <glyph glyph-name="degree" unicode="&#xb0;" horiz-adv-x="385" 
d="M326 568q0 -56 -39 -95t-95 -39t-95 39t-39 95t39 95t95 39t95 -39t39 -95zM272 568q0 33 -23 56.5t-57 23.5q-33 0 -56.5 -23.5t-23.5 -56.5t23.5 -56.5t56.5 -23.5q34 0 57 23.5t23 56.5z" />
    <glyph glyph-name="plusminus" unicode="&#xb1;" horiz-adv-x="500" 
d="M469 291h-183v-174h-64v174h-184v64h184v174h64v-174h183v-64zM469 0h-431v64h431v-64z" />
    <glyph glyph-name="twosuperior" unicode="&#xb2;" horiz-adv-x="311" 
d="M284 369h-261v57l173 200q24 27 24 52q0 21 -16 36t-45 15q-25 0 -43.5 -17.5t-23.5 -46.5l-66 9q7 51 45 82.5t89 31.5q56 0 92.5 -28.5t36.5 -80.5q0 -45 -34 -84q-100 -112 -145 -165h174v-61z" />
    <glyph glyph-name="threesuperior" unicode="&#xb3;" horiz-adv-x="315" 
d="M290 497q0 -58 -39 -95t-101 -37q-47 0 -83 24t-46 77l65 9q12 -52 65 -52q32 0 52 20.5t20 51.5t-19 48t-50 17h-38v55h32q31 0 50.5 16.5t19.5 41.5t-19 41t-46 16q-20 0 -38.5 -14.5t-25.5 -38.5l-65 9q10 45 46 74t83 29q65 0 98 -32.5t33 -82.5q0 -55 -49 -85
q55 -34 55 -92z" />
    <glyph glyph-name="acute" unicode="&#xb4;" horiz-adv-x="491" 
d="M246 551l-53 20l72 177l81 -25z" />
    <glyph glyph-name="mu" unicode="&#xb5;" horiz-adv-x="522" 
d="M461 0h-82v56h-3q-48 -62 -137 -62q-47 0 -86 27l-3 -1v-220h-82v696h82v-298q0 -60 26.5 -91t88.5 -31q50 0 82 33t32 89v298h82v-496z" />
    <glyph glyph-name="mu" unicode="&#x3bc;" horiz-adv-x="522" 
d="M461 0h-82v56h-3q-48 -62 -137 -62q-47 0 -86 27l-3 -1v-220h-82v696h82v-298q0 -60 26.5 -91t88.5 -31q50 0 82 33t32 89v298h82v-496z" />
    <glyph glyph-name="paragraph" unicode="&#xb6;" horiz-adv-x="563" 
d="M236 -82v406h-39q-72 0 -113 55t-41 129q0 80 47 138.5t132 58.5h291v-65h-43v-722h-74v722h-85v-722h-75z" />
    <glyph glyph-name="periodcentered" unicode="&#xb7;" horiz-adv-x="238" 
d="M170 212h-103v111h103v-111z" />
    <glyph glyph-name="cedilla" unicode="&#xb8;" horiz-adv-x="431" 
d="M220 40l45 -4l-24 -75q52 -3 76 -28.5t24 -55.5q0 -32 -26 -57.5t-82 -25.5q-47 0 -87 18l17 43q35 -15 70 -15q20 0 33.5 10t13.5 26q0 19 -16 29.5t-42 10.5h-14l-20 21z" />
    <glyph glyph-name="onesuperior" unicode="&#xb9;" horiz-adv-x="271" 
d="M181 786v-417h-66v347l-58 -38v66l61 42h63z" />
    <glyph glyph-name="ordmasculine" unicode="&#xba;" horiz-adv-x="355" 
d="M181 609q79 0 116 -55q24 -34 24 -100q0 -81 -23 -119q-37 -60 -124 -60q-79 0 -115 50q-27 40 -27 117q0 59 18 92q36 75 131 75zM179 552q-48 0 -69 -42q-12 -25 -12 -69q0 -47 10 -67q19 -41 67 -41q55 0 74 53q6 18 6 66q0 38 -9 57q-18 43 -67 43z" />
    <glyph glyph-name="guillemotright" unicode="&#xbb;" horiz-adv-x="459" 
d="M123 46h-78l123 186l-123 186h78l127 -186zM295 46h-78l124 186l-124 186h78l127 -186z" />
    <glyph glyph-name="onequarter" unicode="&#xbc;" horiz-adv-x="788" 
d="M212 696v-417h-66v347l-58 -38v66l61 42h63zM607 713l-426 -730h-61l425 730h62zM716 62h-36v-62h-66v62h-192v54l155 301h72l-154 -297h119v118h66v-118h36v-58z" />
    <glyph glyph-name="onehalf" unicode="&#xbd;" horiz-adv-x="788" 
d="M187 696v-417h-66v347l-58 -38v66l61 42h63zM576 713l-426 -730h-61l425 730h62zM702 0h-261v57l173 200q24 27 24 52q0 21 -16 36t-45 15q-25 0 -43.5 -17.5t-23.5 -46.5l-66 9q7 51 45 82.5t89 31.5q56 0 92.5 -28.5t36.5 -80.5q0 -45 -34 -84q-100 -112 -145 -165h174
v-61z" />
    <glyph glyph-name="threequarters" unicode="&#xbe;" horiz-adv-x="788" 
d="M314 407q0 -58 -39 -95t-101 -37q-47 0 -83 24t-46 77l65 9q12 -52 65 -52q32 0 52 20.5t20 51.5t-19 48t-50 17h-38v55h32q31 0 50.5 16.5t19.5 41.5t-19 41t-46 16q-20 0 -38.5 -14.5t-25.5 -38.5l-65 9q10 45 46 74t83 29q65 0 98 -32.5t33 -82.5q0 -55 -49 -85
q55 -34 55 -92zM676 713l-426 -730h-61l425 730h62zM781 62h-36v-62h-66v62h-192v54l155 301h72l-154 -297h119v118h66v-118h36v-58z" />
    <glyph glyph-name="questiondown" unicode="&#xbf;" horiz-adv-x="449" 
d="M20 -26q1 37 16 70.5t29 51t43 47.5q23 24 34 37t22 34.5t11 42.5v50h87v-52q0 -67 -51 -120q-3 -3 -17.5 -18t-20 -21.5t-18 -20.5t-18 -23t-13 -22t-10.5 -24.5t-3 -23.5q0 -24 8 -46.5t35.5 -42.5t70.5 -20q54 0 87 42.5t38 82.5l85 -15q-22 -95 -81.5 -143.5
t-138.5 -48.5q-87 0 -141 52t-54 131zM175 491h90v-98h-90v98z" />
    <glyph glyph-name="Agrave" unicode="&#xc0;" horiz-adv-x="598" 
d="M592 0h-93l-56 160h-289l-56 -160h-92l255 696h76zM418 236l-67 195l-51 148h-3l-49 -144l-69 -199h239zM329 780l-37 -42l-170 103l59 61z" />
    <glyph glyph-name="Aacute" unicode="&#xc1;" horiz-adv-x="598" 
d="M592 0h-93l-56 160h-289l-56 -160h-92l255 696h76zM418 236l-67 195l-51 148h-3l-49 -144l-69 -199h239zM287 738l-37 42l148 122l59 -61z" />
    <glyph glyph-name="Acircumflex" unicode="&#xc2;" horiz-adv-x="598" 
d="M592 0h-93l-56 160h-289l-56 -160h-92l255 696h76zM418 236l-67 195l-51 148h-3l-49 -144l-69 -199h239zM443 740l-143 86l-144 -87l-29 38l150 128h53l143 -126z" />
    <glyph glyph-name="Atilde" unicode="&#xc3;" horiz-adv-x="598" 
d="M592 0h-93l-56 160h-289l-56 -160h-92l255 696h76zM418 236l-67 195l-51 148h-3l-49 -144l-69 -199h239zM230 869q26 0 72 -23.5t62 -23.5q31 0 61 45l52 -29q-42 -89 -107 -89q-25 0 -70 21t-63 21q-30 0 -63 -40l-52 29q20 42 49 65.5t59 23.5z" />
    <glyph glyph-name="Adieresis" unicode="&#xc4;" horiz-adv-x="598" 
d="M592 0h-93l-56 160h-289l-56 -160h-92l255 696h76zM418 236l-67 195l-51 148h-3l-49 -144l-69 -199h239zM432 770h-88v88h88v-88zM252 770h-88v88h88v-88z" />
    <glyph glyph-name="Aring" unicode="&#xc5;" horiz-adv-x="598" 
d="M592 0h-93l-56 160h-289l-56 -160h-92l255 696h76zM418 236l-67 195l-51 148h-3l-49 -144l-69 -199h239zM299 714q-41 0 -70 28.5t-29 69.5t29 69.5t70 28.5t69.5 -29t28.5 -69t-28.5 -69t-69.5 -29zM299 867q-23 0 -39 -16t-16 -39t16 -39t39 -16t39 16t16 39t-16 39
t-39 16z" />
    <glyph glyph-name="AE" unicode="&#xc6;" horiz-adv-x="977" 
d="M932 0h-441v204h-259l-130 -204h-92l444 696h478v-81h-352v-225h300v-77h-300v-232h352v-81zM491 612l-211 -332h211v332z" />
    <glyph glyph-name="Ccedilla" unicode="&#xc7;" horiz-adv-x="543" 
d="M446 182l82 -40q-26 -69 -85 -108t-141 -40l-10 -33q52 -3 76 -28.5t24 -55.5q0 -32 -26 -57.5t-82 -25.5q-47 0 -87 18l17 43q35 -15 70 -15q20 0 33.5 10t13.5 26q0 19 -16 29.5t-42 10.5h-14l-20 21l18 60q-99 12 -152 83.5t-53 171.5v192q0 109 64 183t183 74
q82 0 141 -39.5t87 -107.5l-82 -37q-18 46 -55.5 72.5t-89.5 26.5q-77 0 -119 -52t-42 -124v-181q0 -75 42 -128t119 -53q52 0 90 28t56 76z" />
    <glyph glyph-name="Egrave" unicode="&#xc8;" horiz-adv-x="543" 
d="M516 0h-440v696h440v-81h-352v-225h300v-77h-300v-232h352v-81zM347 780l-37 -42l-170 103l59 61z" />
    <glyph glyph-name="Eacute" unicode="&#xc9;" horiz-adv-x="543" 
d="M516 0h-440v696h440v-81h-352v-225h300v-77h-300v-232h352v-81zM267 738l-37 42l148 122l59 -61z" />
    <glyph glyph-name="Ecircumflex" unicode="&#xca;" horiz-adv-x="543" 
d="M516 0h-440v696h440v-81h-352v-225h300v-77h-300v-232h352v-81zM443 740l-143 86l-144 -87l-29 38l150 128h53l143 -126z" />
    <glyph glyph-name="Edieresis" unicode="&#xcb;" horiz-adv-x="543" 
d="M516 0h-440v696h440v-81h-352v-225h300v-77h-300v-232h352v-81zM427 767h-88v88h88v-88zM247 767h-88v88h88v-88z" />
    <glyph glyph-name="Igrave" unicode="&#xcc;" horiz-adv-x="241" 
d="M164 0h-88v696h88v-696zM163 780l-37 -42l-170 103l59 61z" />
    <glyph glyph-name="Iacute" unicode="&#xcd;" horiz-adv-x="241" 
d="M164 0h-88v696h88v-696zM125 738l-37 42l148 122l59 -61z" />
    <glyph glyph-name="Icircumflex" unicode="&#xce;" horiz-adv-x="241" 
d="M164 0h-88v696h88v-696zM265 740l-143 86l-144 -87l-29 38l150 128h53l143 -126z" />
    <glyph glyph-name="Idieresis" unicode="&#xcf;" horiz-adv-x="241" 
d="M164 0h-88v696h88v-696zM257 767h-88v88h88v-88zM77 767h-88v88h88v-88z" />
    <glyph glyph-name="Eth" unicode="&#xd0;" horiz-adv-x="618" 
d="M6 328v63h70v305h228q175 0 237 -129q27 -55 27 -207q0 -163 -25 -222q-60 -138 -256 -138h-211v328h-70zM480 279v133q0 203 -180 203h-136v-224h105v-63h-105v-247h136q180 0 180 198z" />
    <glyph glyph-name="Ntilde" unicode="&#xd1;" horiz-adv-x="673" 
d="M599 0h-86l-254 392l-92 152l-3 -1v-543h-88v696h87l245 -379l101 -167l3 2v544h87v-696zM270 869q26 0 72 -23.5t62 -23.5q31 0 61 45l52 -29q-42 -89 -107 -89q-25 0 -70 21t-63 21q-30 0 -63 -40l-52 29q20 42 49 65.5t59 23.5z" />
    <glyph glyph-name="Ograve" unicode="&#xd2;" horiz-adv-x="595" 
d="M297 701q113 0 180.5 -72t67.5 -185v-192q0 -118 -67.5 -188t-180.5 -70q-119 0 -183 73.5t-64 184.5v192q0 109 64 183t183 74zM298 618q-77 0 -119 -52t-42 -124v-185q0 -75 42 -128t119 -53q72 0 115.5 51t43.5 130v185q0 75 -43.5 125.5t-115.5 50.5zM359 780
l-37 -42l-170 103l59 61z" />
    <glyph glyph-name="Oacute" unicode="&#xd3;" horiz-adv-x="595" 
d="M297 701q113 0 180.5 -72t67.5 -185v-192q0 -118 -67.5 -188t-180.5 -70q-119 0 -183 73.5t-64 184.5v192q0 109 64 183t183 74zM298 618q-77 0 -119 -52t-42 -124v-185q0 -75 42 -128t119 -53q72 0 115.5 51t43.5 130v185q0 75 -43.5 125.5t-115.5 50.5zM295 738l-37 42
l148 122l59 -61z" />
    <glyph glyph-name="Ocircumflex" unicode="&#xd4;" horiz-adv-x="595" 
d="M297 701q113 0 180.5 -72t67.5 -185v-192q0 -118 -67.5 -188t-180.5 -70q-119 0 -183 73.5t-64 184.5v192q0 109 64 183t183 74zM298 618q-77 0 -119 -52t-42 -124v-185q0 -75 42 -128t119 -53q72 0 115.5 51t43.5 130v185q0 75 -43.5 125.5t-115.5 50.5zM441 740
l-143 86l-144 -87l-29 38l150 128h53l143 -126z" />
    <glyph glyph-name="Otilde" unicode="&#xd5;" horiz-adv-x="595" 
d="M297 701q113 0 180.5 -72t67.5 -185v-192q0 -118 -67.5 -188t-180.5 -70q-119 0 -183 73.5t-64 184.5v192q0 109 64 183t183 74zM298 618q-77 0 -119 -52t-42 -124v-185q0 -75 42 -128t119 -53q72 0 115.5 51t43.5 130v185q0 75 -43.5 125.5t-115.5 50.5zM236 869
q26 0 72 -23.5t62 -23.5q31 0 61 45l52 -29q-42 -89 -107 -89q-25 0 -70 21t-63 21q-30 0 -63 -40l-52 29q20 42 49 65.5t59 23.5z" />
    <glyph glyph-name="Odieresis" unicode="&#xd6;" horiz-adv-x="595" 
d="M297 701q113 0 180.5 -72t67.5 -185v-192q0 -118 -67.5 -188t-180.5 -70q-119 0 -183 73.5t-64 184.5v192q0 109 64 183t183 74zM298 618q-77 0 -119 -52t-42 -124v-185q0 -75 42 -128t119 -53q72 0 115.5 51t43.5 130v185q0 75 -43.5 125.5t-115.5 50.5zM427 770h-88v88
h88v-88zM247 770h-88v88h88v-88z" />
    <glyph glyph-name="multiply" unicode="&#xd7;" horiz-adv-x="500" 
d="M455 436l-161 -162l164 -164l-45 -45l-164 164l-162 -162l-45 45l162 162l-163 163l45 45l163 -162l161 161z" />
    <glyph glyph-name="Oslash" unicode="&#xd8;" horiz-adv-x="595" 
d="M297 701q96 0 162 -55l36 53l43 -29l-43 -63q50 -67 50 -163v-192q0 -118 -67.5 -188t-180.5 -70q-110 0 -175 65l-42 -61l-42 29l50 74q-38 63 -38 151v192q0 109 64 183t183 74zM457 442q0 45 -17 84l-266 -390q43 -60 124 -60q72 0 115.5 51t43.5 130v185zM298 618
q-77 0 -119 -52t-42 -124v-185q0 -38 10 -69l262 384q-44 46 -111 46z" />
    <glyph glyph-name="Ugrave" unicode="&#xd9;" horiz-adv-x="618" 
d="M469 696h88v-444q0 -118 -67.5 -188t-180.5 -70q-119 0 -183 73.5t-64 184.5v444h87v-437q0 -75 42 -128t119 -53q74 0 116.5 47.5t42.5 133.5v437zM351 780l-37 -42l-170 103l59 61z" />
    <glyph glyph-name="Uacute" unicode="&#xda;" horiz-adv-x="618" 
d="M469 696h88v-444q0 -118 -67.5 -188t-180.5 -70q-119 0 -183 73.5t-64 184.5v444h87v-437q0 -75 42 -128t119 -53q74 0 116.5 47.5t42.5 133.5v437zM287 738l-37 42l148 122l59 -61z" />
    <glyph glyph-name="Ucircumflex" unicode="&#xdb;" horiz-adv-x="618" 
d="M469 696h88v-444q0 -118 -67.5 -188t-180.5 -70q-119 0 -183 73.5t-64 184.5v444h87v-437q0 -75 42 -128t119 -53q74 0 116.5 47.5t42.5 133.5v437zM452 740l-143 86l-144 -87l-29 38l150 128h53l143 -126z" />
    <glyph glyph-name="Udieresis" unicode="&#xdc;" horiz-adv-x="618" 
d="M469 696h88v-444q0 -118 -67.5 -188t-180.5 -70q-119 0 -183 73.5t-64 184.5v444h87v-437q0 -75 42 -128t119 -53q74 0 116.5 47.5t42.5 133.5v437zM444 770h-88v88h88v-88zM264 770h-88v88h88v-88z" />
    <glyph glyph-name="Yacute" unicode="&#xdd;" horiz-adv-x="508" 
d="M504 696l-209 -420v-276h-84v276l-209 420h93l97 -193l62 -133l65 139l94 187h91zM230 738l-37 42l148 122l59 -61z" />
    <glyph glyph-name="Thorn" unicode="&#xde;" horiz-adv-x="572" 
d="M76 0l-1 693h89v-126h167q96 0 163 -53t67 -158q0 -79 -59.5 -142t-156.5 -63h-181v-151h-88zM469 359q0 62 -37.5 94.5t-98.5 32.5h-169v-254h173q63 0 97.5 38.5t34.5 88.5z" />
    <glyph glyph-name="germandbls" unicode="&#xdf;" horiz-adv-x="517" 
d="M465 231q0 -45 -10.5 -84.5t-33 -74t-62.5 -55t-94 -20.5h-38v71h36q61 0 88 46t27 119q0 57 -26.5 99t-79.5 42h-35v71h31q40 0 65.5 31t25.5 73q-1 47 -26.5 78.5t-77.5 31.5q-58 0 -82.5 -35.5t-24.5 -83.5v-540h-82v536q0 89 53 141.5t141 52.5q83 0 132 -52t49 -121
q0 -45 -20 -86.5t-59 -59.5q52 -14 77.5 -65t25.5 -115z" />
    <glyph glyph-name="agrave" unicode="&#xe0;" horiz-adv-x="482" 
d="M232 501q200 0 200 -160v-341h-83v43l-1 1q-14 -22 -51 -36t-86 -14q-83 0 -129.5 41t-46.5 106q0 62 41 104t117 42h156v56q0 81 -114 81q-82 0 -118 -43l-52 55q56 65 167 65zM113 146q0 -36 27.5 -56.5t80.5 -20.5q128 0 128 92v58h-136q-48 0 -74 -19t-26 -54z
M287 571l-53 -20l-100 172l81 25z" />
    <glyph glyph-name="aacute" unicode="&#xe1;" horiz-adv-x="482" 
d="M232 501q200 0 200 -160v-341h-83v43l-1 1q-14 -22 -51 -36t-86 -14q-83 0 -129.5 41t-46.5 106q0 62 41 104t117 42h156v56q0 81 -114 81q-82 0 -118 -43l-52 55q56 65 167 65zM113 146q0 -36 27.5 -56.5t80.5 -20.5q128 0 128 92v58h-136q-48 0 -74 -19t-26 -54z
M279 551l-53 20l72 177l81 -25z" />
    <glyph glyph-name="acircumflex" unicode="&#xe2;" horiz-adv-x="482" 
d="M232 501q200 0 200 -160v-341h-83v43l-1 1q-14 -22 -51 -36t-86 -14q-83 0 -129.5 41t-46.5 106q0 62 41 104t117 42h156v56q0 81 -114 81q-82 0 -118 -43l-52 55q56 65 167 65zM113 146q0 -36 27.5 -56.5t80.5 -20.5q128 0 128 92v58h-136q-48 0 -74 -19t-26 -54z
M375 553l-133 106l-134 -107l-39 38l150 153h53l143 -151z" />
    <glyph glyph-name="atilde" unicode="&#xe3;" horiz-adv-x="482" 
d="M232 501q200 0 200 -160v-341h-83v43l-1 1q-14 -22 -51 -36t-86 -14q-83 0 -129.5 41t-46.5 106q0 62 41 104t117 42h156v56q0 81 -114 81q-82 0 -118 -43l-52 55q56 65 167 65zM113 146q0 -36 27.5 -56.5t80.5 -20.5q128 0 128 92v58h-136q-48 0 -74 -19t-26 -54z
M179 699q26 0 72 -23.5t62 -23.5q31 0 61 45l52 -29q-42 -89 -107 -89q-25 0 -70 21t-63 21q-30 0 -63 -40l-52 29q20 42 49 65.5t59 23.5z" />
    <glyph glyph-name="adieresis" unicode="&#xe4;" horiz-adv-x="482" 
d="M232 501q200 0 200 -160v-341h-83v43l-1 1q-14 -22 -51 -36t-86 -14q-83 0 -129.5 41t-46.5 106q0 62 41 104t117 42h156v56q0 81 -114 81q-82 0 -118 -43l-52 55q56 65 167 65zM113 146q0 -36 27.5 -56.5t80.5 -20.5q128 0 128 92v58h-136q-48 0 -74 -19t-26 -54z
M380 597h-88v88h88v-88zM200 597h-88v88h88v-88z" />
    <glyph glyph-name="aring" unicode="&#xe5;" horiz-adv-x="482" 
d="M232 501q200 0 200 -160v-341h-83v43l-1 1q-14 -22 -51 -36t-86 -14q-83 0 -129.5 41t-46.5 106q0 62 41 104t117 42h156v56q0 81 -114 81q-82 0 -118 -43l-52 55q56 65 167 65zM113 146q0 -36 27.5 -56.5t80.5 -20.5q128 0 128 92v58h-136q-48 0 -74 -19t-26 -54z
M254 546q-41 0 -70 28.5t-29 69.5t29 69.5t70 28.5q40 0 69 -29t29 -69t-29 -69t-69 -29zM254 699q-23 0 -39 -16t-16 -39t16 -39t39 -16t39 16t16 39t-16 39t-39 16z" />
    <glyph glyph-name="ae" unicode="&#xe6;" horiz-adv-x="799" 
d="M766 221h-325q0 -51 18 -86q35 -65 118 -65q26 0 58 12.5t55 33.5l52 -59q-66 -63 -163 -63q-120 0 -175 78q-49 -78 -183 -78q-83 0 -129.5 41t-46.5 106q0 62 41 104t117 42h156v56q0 81 -114 81q-82 0 -118 -43l-52 55q56 65 167 65q129 0 177 -61q55 61 144 61
q85 0 144 -59t59 -158v-63zM123 146q0 -36 27.5 -56.5t80.5 -20.5q128 0 128 92v60h-136q-48 0 -74 -20t-26 -55zM682 288q-2 67 -34 102t-84 35q-53 0 -86.5 -36t-36.5 -101h241z" />
    <glyph glyph-name="ccedilla" unicode="&#xe7;" horiz-adv-x="431" 
d="M416 64q-70 -70 -163 -70h-2l-10 -33q52 -3 76 -28.5t24 -55.5q0 -32 -26 -57.5t-82 -25.5q-47 0 -87 18l17 43q35 -15 70 -15q20 0 33.5 10t13.5 26q0 19 -16 29.5t-42 10.5h-14l-20 21l19 61q-79 14 -129 76t-50 173q0 128 65 191t160 63q91 0 162 -69l-53 -60
q-45 50 -105 50q-71 0 -109 -44t-38 -131t38 -131t109 -44q58 0 105 51z" />
    <glyph glyph-name="egrave" unicode="&#xe8;" horiz-adv-x="481" 
d="M444 220h-319v-8q0 -62 33.5 -102t94.5 -40q60 0 112 47l53 -59q-67 -64 -169 -64q-42 0 -76.5 11t-66 37.5t-49.5 78.5t-18 125q0 70 18.5 122t50 80t66 41t72.5 13q85 0 141.5 -59t56.5 -159v-64zM242 424q-51 0 -82 -35.5t-35 -99.5h233q-3 66 -34 100.5t-82 34.5z
M294 571l-53 -20l-100 172l81 25z" />
    <glyph glyph-name="eacute" unicode="&#xe9;" horiz-adv-x="481" 
d="M444 220h-319v-8q0 -62 33.5 -102t94.5 -40q60 0 112 47l53 -59q-67 -64 -169 -64q-42 0 -76.5 11t-66 37.5t-49.5 78.5t-18 125q0 70 18.5 122t50 80t66 41t72.5 13q85 0 141.5 -59t56.5 -159v-64zM242 424q-51 0 -82 -35.5t-35 -99.5h233q-3 66 -34 100.5t-82 34.5z
M255 551l-53 20l72 177l81 -25z" />
    <glyph glyph-name="ecircumflex" unicode="&#xea;" horiz-adv-x="481" 
d="M444 220h-319v-8q0 -62 33.5 -102t94.5 -40q60 0 112 47l53 -59q-67 -64 -169 -64q-42 0 -76.5 11t-66 37.5t-49.5 78.5t-18 125q0 70 18.5 122t50 80t66 41t72.5 13q85 0 141.5 -59t56.5 -159v-64zM242 424q-51 0 -82 -35.5t-35 -99.5h233q-3 66 -34 100.5t-82 34.5z
M385 553l-133 106l-134 -107l-39 38l150 153h53l143 -151z" />
    <glyph glyph-name="edieresis" unicode="&#xeb;" horiz-adv-x="481" 
d="M444 220h-319v-8q0 -62 33.5 -102t94.5 -40q60 0 112 47l53 -59q-67 -64 -169 -64q-42 0 -76.5 11t-66 37.5t-49.5 78.5t-18 125q0 70 18.5 122t50 80t66 41t72.5 13q85 0 141.5 -59t56.5 -159v-64zM242 424q-51 0 -82 -35.5t-35 -99.5h233q-3 66 -34 100.5t-82 34.5z
M387 597h-88v88h88v-88zM207 597h-88v88h88v-88z" />
    <glyph glyph-name="igrave" unicode="&#xec;" horiz-adv-x="200" 
d="M144 0h-88v495h88v-495zM148 571l-53 -20l-100 172l81 25z" />
    <glyph glyph-name="iacute" unicode="&#xed;" horiz-adv-x="200" 
d="M144 0h-88v495h88v-495zM130 551l-53 20l72 177l81 -25z" />
    <glyph glyph-name="icircumflex" unicode="&#xee;" horiz-adv-x="306" 
d="M198 0h-88v495h88v-495zM286 553l-133 106l-134 -107l-39 38l150 153h53l143 -151z" />
    <glyph glyph-name="idieresis" unicode="&#xef;" horiz-adv-x="228" 
d="M159 0h-88v495h88v-495zM248 597h-88v88h88v-88zM68 597h-88v88h88v-88z" />
    <glyph glyph-name="eth" unicode="&#xf0;" horiz-adv-x="491" 
d="M409 87q-55 -93 -174 -93q-111 0 -161 75q-40 60 -37 177q1 73 24 118q54 112 184 112q32 0 70.5 -17t58.5 -49h4q-2 109 -37 153l-62 -44l-23 33l58 42q-39 47 -137 67l14 67q123 -10 187 -83l76 56l27 -34l-75 -54q25 -38 37.5 -92.5t14.5 -97t2 -120.5
q0 -43 -13 -108.5t-38 -107.5zM244 402q-76 0 -109 -70q-16 -34 -16 -87q0 -77 14 -108q30 -68 106 -68q42 0 73 22t45 66q11 33 11 89q0 51 -14 84q-14 35 -43.5 53.5t-66.5 18.5z" />
    <glyph glyph-name="ntilde" unicode="&#xf1;" horiz-adv-x="506" 
d="M449 0h-82v297q0 61 -25.5 92t-87.5 31q-51 0 -83.5 -33.5t-32.5 -89.5v-297h-82v497h82v-63h3q25 32 63.5 49.5t79.5 17.5q74 0 119.5 -44.5t45.5 -127.5v-329zM172 699q26 0 72 -23.5t62 -23.5q31 0 61 45l52 -29q-42 -89 -107 -89q-25 0 -70 21t-63 21q-30 0 -63 -40
l-52 29q20 42 49 65.5t59 23.5z" />
    <glyph glyph-name="ograve" unicode="&#xf2;" horiz-adv-x="514" 
d="M263 500q111 0 164 -83q34 -53 34 -152q0 -127 -31 -180q-25 -43 -72 -67t-106 -24q-113 0 -164 75q-37 56 -37 177q0 91 25 142q25 53 74 82.5t113 29.5zM260 426q-77 0 -109 -70q-16 -35 -18 -111q0 -75 15 -108q30 -68 105 -68q90 0 117 88q8 27 8 105q0 61 -13 92
q-28 72 -105 72zM305 571l-53 -20l-100 172l81 25z" />
    <glyph glyph-name="oacute" unicode="&#xf3;" horiz-adv-x="514" 
d="M263 500q111 0 164 -83q34 -53 34 -152q0 -127 -31 -180q-25 -43 -72 -67t-106 -24q-113 0 -164 75q-37 56 -37 177q0 91 25 142q25 53 74 82.5t113 29.5zM260 426q-77 0 -109 -70q-16 -35 -18 -111q0 -75 15 -108q30 -68 105 -68q90 0 117 88q8 27 8 105q0 61 -13 92
q-28 72 -105 72zM283 551l-53 20l72 177l81 -25z" />
    <glyph glyph-name="ocircumflex" unicode="&#xf4;" horiz-adv-x="514" 
d="M263 500q111 0 164 -83q34 -53 34 -152q0 -127 -31 -180q-25 -43 -72 -67t-106 -24q-113 0 -164 75q-37 56 -37 177q0 91 25 142q25 53 74 82.5t113 29.5zM260 426q-77 0 -109 -70q-16 -35 -18 -111q0 -75 15 -108q30 -68 105 -68q90 0 117 88q8 27 8 105q0 61 -13 92
q-28 72 -105 72zM388 553l-133 106l-134 -107l-39 38l150 153h53l143 -151z" />
    <glyph glyph-name="otilde" unicode="&#xf5;" horiz-adv-x="514" 
d="M263 500q111 0 164 -83q34 -53 34 -152q0 -127 -31 -180q-25 -43 -72 -67t-106 -24q-113 0 -164 75q-37 56 -37 177q0 91 25 142q25 53 74 82.5t113 29.5zM260 426q-77 0 -109 -70q-16 -35 -18 -111q0 -75 15 -108q30 -68 105 -68q90 0 117 88q8 27 8 105q0 61 -13 92
q-28 72 -105 72zM197 699q26 0 72 -23.5t62 -23.5q31 0 61 45l52 -29q-42 -89 -107 -89q-25 0 -70 21t-63 21q-30 0 -63 -40l-52 29q20 42 49 65.5t59 23.5z" />
    <glyph glyph-name="odieresis" unicode="&#xf6;" horiz-adv-x="514" 
d="M263 500q111 0 164 -83q34 -53 34 -152q0 -127 -31 -180q-25 -43 -72 -67t-106 -24q-113 0 -164 75q-37 56 -37 177q0 91 25 142q25 53 74 82.5t113 29.5zM260 426q-77 0 -109 -70q-16 -35 -18 -111q0 -75 15 -108q30 -68 105 -68q90 0 117 88q8 27 8 105q0 61 -13 92
q-28 72 -105 72zM387 597h-88v88h88v-88zM207 597h-88v88h88v-88z" />
    <glyph glyph-name="divide" unicode="&#xf7;" horiz-adv-x="500" 
d="M311 473q0 -23 -17 -40t-40 -17q-24 0 -40.5 17t-16.5 40t16.5 40t40.5 17q23 0 40 -17t17 -40zM479 262h-451v63h451v-63zM254 172q23 0 40 -16.5t17 -39.5q0 -24 -17 -40.5t-40 -16.5q-24 0 -40.5 16.5t-16.5 40.5q0 23 16.5 39.5t40.5 16.5z" />
    <glyph glyph-name="oslash" unicode="&#xf8;" horiz-adv-x="514" 
d="M263 500q67 0 118 -35l42 59l38 -27l-46 -64l12 -16q34 -53 34 -152q0 -127 -31 -180q-25 -43 -72 -67t-106 -24q-74 0 -123 33l-37 -52l-37 28l40 56q-4 4 -7 10q-37 56 -37 177q0 91 25 142q25 53 74 82.5t113 29.5zM365 354q-2 2 -2 4l-186 -262q30 -27 76 -27
q90 0 117 88q8 27 8 105q0 61 -13 92zM260 426q-77 0 -109 -70q-16 -35 -18 -111q0 -75 15 -108v-2l187 264q-30 27 -75 27z" />
    <glyph glyph-name="ugrave" unicode="&#xf9;" horiz-adv-x="514" 
d="M449 0h-82v56h-3q-48 -62 -136 -62q-80 0 -126 42t-46 131v329h82v-298q0 -68 24 -97t90 -29q50 0 82.5 35t32.5 91v298h82v-496zM297 571l-53 -20l-100 172l81 25z" />
    <glyph glyph-name="uacute" unicode="&#xfa;" horiz-adv-x="514" 
d="M449 0h-82v56h-3q-48 -62 -136 -62q-80 0 -126 42t-46 131v329h82v-298q0 -68 24 -97t90 -29q50 0 82.5 35t32.5 91v298h82v-496zM265 551l-53 20l72 177l81 -25z" />
    <glyph glyph-name="ucircumflex" unicode="&#xfb;" horiz-adv-x="514" 
d="M449 0h-82v56h-3q-48 -62 -136 -62q-80 0 -126 42t-46 131v329h82v-298q0 -68 24 -97t90 -29q50 0 82.5 35t32.5 91v298h82v-496zM385 553l-133 106l-134 -107l-39 38l150 153h53l143 -151z" />
    <glyph glyph-name="udieresis" unicode="&#xfc;" horiz-adv-x="514" 
d="M449 0h-82v56h-3q-48 -62 -136 -62q-80 0 -126 42t-46 131v329h82v-298q0 -68 24 -97t90 -29q50 0 82.5 35t32.5 91v298h82v-496zM377 597h-88v88h88v-88zM197 597h-88v88h88v-88z" />
    <glyph glyph-name="yacute" unicode="&#xfd;" horiz-adv-x="438" 
d="M438 496l-213 -601q-20 -56 -52 -75.5t-79 -19.5h-42v72h41q44 0 62 56l27 82l-182 486h91l79 -225l51 -156h3l51 155l77 226h86zM240 551l-53 20l72 177l81 -25z" />
    <glyph glyph-name="thorn" unicode="&#xfe;" horiz-adv-x="514" 
d="M56 696h82v-255l3 -1q53 61 135 61q177 0 177 -249q0 -258 -193 -258q-67 0 -120 50h-2v-242h-82v894zM138 247q0 -171 114 -171q37 0 61 14.5t35 42t15 53.5t4 61t-3.5 60.5t-14.5 53.5t-35.5 43.5t-61.5 15.5q-114 0 -114 -173z" />
    <glyph glyph-name="ydieresis" unicode="&#xff;" horiz-adv-x="438" 
d="M438 496l-213 -601q-20 -56 -52 -75.5t-79 -19.5h-42v72h41q44 0 62 56l27 82l-182 486h91l79 -225l51 -156h3l51 155l77 226h86zM363 597h-88v88h88v-88zM183 597h-88v88h88v-88z" />
    <glyph glyph-name="Amacron" unicode="&#x100;" horiz-adv-x="598" 
d="M592 0h-93l-56 160h-289l-56 -160h-92l255 696h76zM418 236l-67 195l-51 148h-3l-49 -144l-69 -199h239zM433 780h-268v75h268v-75z" />
    <glyph glyph-name="amacron" unicode="&#x101;" horiz-adv-x="482" 
d="M232 501q200 0 200 -160v-341h-83v43l-1 1q-14 -22 -51 -36t-86 -14q-83 0 -129.5 41t-46.5 106q0 62 41 104t117 42h156v56q0 81 -114 81q-82 0 -118 -43l-52 55q56 65 167 65zM113 146q0 -36 27.5 -56.5t80.5 -20.5q128 0 128 92v58h-136q-48 0 -74 -19t-26 -54z
M385 600h-268v75h268v-75z" />
    <glyph glyph-name="Abreve" unicode="&#x102;" horiz-adv-x="598" 
d="M592 0h-93l-56 160h-289l-56 -160h-92l255 696h76zM418 236l-67 195l-51 148h-3l-49 -144l-69 -199h239zM156 860h73q2 -23 21.5 -43t49.5 -20q33 0 52.5 20t19.5 43h71q-5 -51 -37.5 -90t-105.5 -39q-74 0 -108.5 40t-35.5 89z" />
    <glyph glyph-name="abreve" unicode="&#x103;" horiz-adv-x="482" 
d="M232 501q200 0 200 -160v-341h-83v43l-1 1q-14 -22 -51 -36t-86 -14q-83 0 -129.5 41t-46.5 106q0 62 41 104t117 42h156v56q0 81 -114 81q-82 0 -118 -43l-52 55q56 65 167 65zM113 146q0 -36 27.5 -56.5t80.5 -20.5q128 0 128 92v58h-136q-48 0 -74 -19t-26 -54z
M117 697h73q2 -23 21.5 -43t49.5 -20q33 0 52.5 20t19.5 43h71q-5 -51 -37.5 -90t-105.5 -39q-74 0 -108.5 40t-35.5 89z" />
    <glyph glyph-name="Aogonek" unicode="&#x104;" horiz-adv-x="598" 
d="M462 -92q0 41 37 92l-56 160h-289l-56 -160h-92l255 696h76l255 -696h-33q-32 -45 -32 -77q0 -44 48 -44q27 0 58 13l19 -48q-37 -24 -87 -24q-46 0 -74.5 25.5t-28.5 62.5zM418 236l-67 195l-51 148h-3l-49 -144l-69 -199h239z" />
    <glyph glyph-name="aogonek" unicode="&#x105;" horiz-adv-x="482" 
d="M312 -92q0 41 37 92v43l-1 1q-14 -22 -51 -36t-86 -14q-83 0 -129.5 41t-46.5 106q0 62 41 104t117 42h156v56q0 81 -114 81q-82 0 -118 -43l-52 55q56 65 167 65q200 0 200 -160v-341h-23q-32 -45 -32 -77q0 -44 48 -44q27 0 58 13l19 -48q-37 -24 -87 -24
q-46 0 -74.5 25.5t-28.5 62.5zM113 146q0 -36 27.5 -56.5t80.5 -20.5q128 0 128 92v58h-136q-48 0 -74 -19t-26 -54z" />
    <glyph glyph-name="Cacute" unicode="&#x106;" horiz-adv-x="543" 
d="M446 182l82 -40q-26 -70 -86 -109t-143 -39q-119 0 -183 73.5t-64 184.5v192q0 109 64 183t183 74q82 0 141 -39.5t87 -107.5l-82 -37q-18 46 -55.5 72.5t-89.5 26.5q-77 0 -119 -52t-42 -124v-181q0 -75 42 -128t119 -53q52 0 90 28t56 76zM267 738l-37 42l148 122
l59 -61z" />
    <glyph glyph-name="cacute" unicode="&#x107;" horiz-adv-x="431" 
d="M416 64q-70 -70 -163 -70q-95 0 -160 63t-65 190q0 128 65 191t160 63q91 0 162 -69l-53 -60q-45 50 -105 50q-71 0 -109 -44t-38 -131t38 -131t109 -44q58 0 105 51zM246 551l-53 20l72 177l81 -25z" />
    <glyph glyph-name="Ccircumflex" unicode="&#x108;" horiz-adv-x="543" 
d="M446 182l82 -40q-26 -70 -86 -109t-143 -39q-119 0 -183 73.5t-64 184.5v192q0 109 64 183t183 74q82 0 141 -39.5t87 -107.5l-82 -37q-18 46 -55.5 72.5t-89.5 26.5q-77 0 -119 -52t-42 -124v-181q0 -75 42 -128t119 -53q52 0 90 28t56 76zM443 740l-143 86l-144 -87
l-29 38l150 128h53l143 -126z" />
    <glyph glyph-name="ccircumflex" unicode="&#x109;" horiz-adv-x="431" 
d="M416 64q-70 -70 -163 -70q-95 0 -160 63t-65 190q0 128 65 191t160 63q91 0 162 -69l-53 -60q-45 50 -105 50q-71 0 -109 -44t-38 -131t38 -131t109 -44q58 0 105 51zM375 553l-133 106l-134 -107l-39 38l150 153h53l143 -151z" />
    <glyph glyph-name="Cdotaccent" unicode="&#x10a;" horiz-adv-x="543" 
d="M446 182l82 -40q-26 -70 -86 -109t-143 -39q-119 0 -183 73.5t-64 184.5v192q0 109 64 183t183 74q82 0 141 -39.5t87 -107.5l-82 -37q-18 46 -55.5 72.5t-89.5 26.5q-77 0 -119 -52t-42 -124v-181q0 -75 42 -128t119 -53q52 0 90 28t56 76zM335 767h-88v88h88v-88z" />
    <glyph glyph-name="cdotaccent" unicode="&#x10b;" horiz-adv-x="431" 
d="M416 64q-70 -70 -163 -70q-95 0 -160 63t-65 190q0 128 65 191t160 63q91 0 162 -69l-53 -60q-45 50 -105 50q-71 0 -109 -44t-38 -131t38 -131t109 -44q58 0 105 51zM295 597h-88v88h88v-88z" />
    <glyph glyph-name="Ccaron" unicode="&#x10c;" horiz-adv-x="543" 
d="M446 182l82 -40q-26 -70 -86 -109t-143 -39q-119 0 -183 73.5t-64 184.5v192q0 109 64 183t183 74q82 0 141 -39.5t87 -107.5l-82 -37q-18 46 -55.5 72.5t-89.5 26.5q-77 0 -119 -52t-42 -124v-181q0 -75 42 -128t119 -53q52 0 90 28t56 76zM296 822l143 86l30 -39
l-143 -127h-53l-150 129l29 38z" />
    <glyph glyph-name="ccaron" unicode="&#x10d;" horiz-adv-x="431" 
d="M416 64q-70 -70 -163 -70q-95 0 -160 63t-65 190q0 128 65 191t160 63q91 0 162 -69l-53 -60q-45 50 -105 50q-71 0 -109 -44t-38 -131t38 -131t109 -44q58 0 105 51zM242 637l133 106l40 -39l-143 -151h-53l-150 153l39 38z" />
    <glyph glyph-name="Dcaron" unicode="&#x10e;" horiz-adv-x="618" 
d="M76 696h228q175 0 237 -129q27 -55 27 -207q0 -163 -25 -222q-60 -138 -256 -138h-211v696zM480 279v133q0 203 -180 203h-136v-534h136q180 0 180 198zM275 822l143 86l30 -39l-143 -127h-53l-150 129l29 38z" />
    <glyph glyph-name="dcaron" unicode="&#x10f;" horiz-adv-x="613" 
d="M606 615l-56 -90h-51l39 88h-35v111h103v-109zM443 0h-82v48l-3 1q-58 -55 -139 -55q-51 0 -86.5 19.5t-53.5 55.5t-25.5 77.5t-7.5 96.5q0 258 193 258q82 0 120 -50h2v275h82v-726zM361 248q0 33 -4 59t-14.5 53.5t-34 43t-59.5 15.5q-37 0 -61.5 -14.5t-36 -41.5
t-15.5 -53.5t-4 -61.5q0 -31 2 -53.5t9 -46.5t18.5 -39t33 -24.5t50.5 -9.5q116 0 116 173z" />
    <glyph glyph-name="Dcroat" unicode="&#x110;" horiz-adv-x="618" 
d="M6 328v63h70v305h228q175 0 237 -129q27 -55 27 -207q0 -163 -25 -222q-60 -138 -256 -138h-211v328h-70zM480 279v133q0 203 -180 203h-136v-224h105v-63h-105v-247h136q180 0 180 198z" />
    <glyph glyph-name="dcroat" unicode="&#x111;" horiz-adv-x="496" 
d="M274 567v57h87v102h82v-102h53v-57h-53v-567h-82v48l-3 1q-58 -55 -139 -55q-51 0 -86.5 19.5t-53.5 55.5t-25.5 77.5t-7.5 96.5q0 258 193 258q82 0 120 -50h2v116h-87zM361 248q0 33 -4 59t-14.5 53.5t-34 43t-59.5 15.5q-37 0 -61.5 -14.5t-36 -41.5t-15.5 -53.5
t-4 -61.5q0 -31 2 -53.5t9 -46.5t18.5 -39t33 -24.5t50.5 -9.5q116 0 116 173z" />
    <glyph glyph-name="Emacron" unicode="&#x112;" horiz-adv-x="543" 
d="M516 0h-440v696h440v-81h-352v-225h300v-77h-300v-232h352v-81zM433 780h-268v75h268v-75z" />
    <glyph glyph-name="emacron" unicode="&#x113;" horiz-adv-x="481" 
d="M444 220h-319v-8q0 -62 33.5 -102t94.5 -40q60 0 112 47l53 -59q-67 -64 -169 -64q-42 0 -76.5 11t-66 37.5t-49.5 78.5t-18 125q0 70 18.5 122t50 80t66 41t72.5 13q85 0 141.5 -59t56.5 -159v-64zM242 424q-51 0 -82 -35.5t-35 -99.5h233q-3 66 -34 100.5t-82 34.5z
M395 600h-268v75h268v-75z" />
    <glyph glyph-name="Ebreve" unicode="&#x114;" horiz-adv-x="543" 
d="M516 0h-440v696h440v-81h-352v-225h300v-77h-300v-232h352v-81zM156 860h73q2 -23 21.5 -43t49.5 -20q33 0 52.5 20t19.5 43h71q-5 -51 -37.5 -90t-105.5 -39q-74 0 -108.5 40t-35.5 89z" />
    <glyph glyph-name="ebreve" unicode="&#x115;" horiz-adv-x="481" 
d="M444 220h-319v-8q0 -62 33.5 -102t94.5 -40q60 0 112 47l53 -59q-67 -64 -169 -64q-42 0 -76.5 11t-66 37.5t-49.5 78.5t-18 125q0 70 18.5 122t50 80t66 41t72.5 13q85 0 141.5 -59t56.5 -159v-64zM242 424q-51 0 -82 -35.5t-35 -99.5h233q-3 66 -34 100.5t-82 34.5z
M107 697h73q2 -23 21.5 -43t49.5 -20q33 0 52.5 20t19.5 43h71q-5 -51 -37.5 -90t-105.5 -39q-74 0 -108.5 40t-35.5 89z" />
    <glyph glyph-name="Edotaccent" unicode="&#x116;" horiz-adv-x="543" 
d="M516 0h-440v696h440v-81h-352v-225h300v-77h-300v-232h352v-81zM335 767h-88v88h88v-88z" />
    <glyph glyph-name="edotaccent" unicode="&#x117;" horiz-adv-x="481" 
d="M444 220h-319v-8q0 -62 33.5 -102t94.5 -40q60 0 112 47l53 -59q-67 -64 -169 -64q-42 0 -76.5 11t-66 37.5t-49.5 78.5t-18 125q0 70 18.5 122t50 80t66 41t72.5 13q85 0 141.5 -59t56.5 -159v-64zM242 424q-51 0 -82 -35.5t-35 -99.5h233q-3 66 -34 100.5t-82 34.5z
M292 597h-88v88h88v-88z" />
    <glyph glyph-name="Eogonek" unicode="&#x118;" horiz-adv-x="543" 
d="M419 -92q0 41 36 92h-379v696h440v-81h-352v-225h300v-77h-300v-232h352v-81q-32 -45 -32 -77q0 -44 48 -44q27 0 58 13l19 -48q-37 -24 -87 -24q-46 0 -74.5 25.5t-28.5 62.5z" />
    <glyph glyph-name="eogonek" unicode="&#x119;" horiz-adv-x="481" 
d="M289 -65q0 32 19 65q-28 -6 -59 -6q-42 0 -76.5 11t-66 37.5t-49.5 78.5t-18 125q0 70 18.5 122t50 80t66 41t72.5 13q85 0 141.5 -59t56.5 -159v-64h-319v-8q0 -62 33.5 -102t94.5 -40q60 0 112 47l53 -59q-17 -17 -38 -29h5l1 -2q-32 -45 -32 -77q0 -44 48 -44
q27 0 58 13l19 -48q-37 -24 -87 -24q-46 0 -74.5 25.5t-28.5 62.5zM242 424q-51 0 -82 -35.5t-35 -99.5h233q-3 66 -34 100.5t-82 34.5z" />
    <glyph glyph-name="Ecaron" unicode="&#x11a;" horiz-adv-x="543" 
d="M516 0h-440v696h440v-81h-352v-225h300v-77h-300v-232h352v-81zM289 822l143 86l30 -39l-143 -127h-53l-150 129l29 38z" />
    <glyph glyph-name="ecaron" unicode="&#x11b;" horiz-adv-x="481" 
d="M444 220h-319v-8q0 -62 33.5 -102t94.5 -40q60 0 112 47l53 -59q-67 -64 -169 -64q-42 0 -76.5 11t-66 37.5t-49.5 78.5t-18 125q0 70 18.5 122t50 80t66 41t72.5 13q85 0 141.5 -59t56.5 -159v-64zM242 424q-51 0 -82 -35.5t-35 -99.5h233q-3 66 -34 100.5t-82 34.5z
M248 637l133 106l40 -39l-143 -151h-53l-150 153l39 38z" />
    <glyph glyph-name="Gcircumflex" unicode="&#x11c;" horiz-adv-x="598" 
d="M299 72q67 0 113 49.5t46 116.5v55h-147v80h235v-135q0 -107 -69.5 -176t-178.5 -69q-121 0 -184 73.5t-63 185.5v192q0 110 62 183.5t180 73.5q82 0 141 -39.5t87 -107.5l-82 -37q-18 45 -56.5 72t-90.5 27q-76 0 -115 -51.5t-39 -124.5v-187q0 -75 42 -128t119 -53z
M443 740l-143 86l-144 -87l-29 38l150 128h53l143 -126z" />
    <glyph glyph-name="gcircumflex" unicode="&#x11d;" horiz-adv-x="511" 
d="M443 9q0 -106 -61.5 -160t-153.5 -54q-100 0 -160 57l49 67q21 -18 53 -31.5t60 -13.5q57 0 93.5 33t36.5 91v58h-2q-54 -61 -135 -61q-177 0 -177 242q0 42 4 77t16 71t31.5 61t53.5 40.5t80 15.5q37 0 72 -16.5t55 -44.5h2v55h83v-487zM131 248q0 -39 3.5 -66t14.5 -53
t34.5 -39t60.5 -13q116 0 116 171q0 33 -3 56.5t-13 53.5t-35 46.5t-63 16.5q-37 0 -61.5 -15t-35.5 -43t-14.5 -54t-3.5 -61zM385 553l-133 106l-134 -107l-39 38l150 153h53l143 -151z" />
    <glyph glyph-name="Gbreve" unicode="&#x11e;" horiz-adv-x="598" 
d="M299 72q67 0 113 49.5t46 116.5v55h-147v80h235v-135q0 -107 -69.5 -176t-178.5 -69q-121 0 -184 73.5t-63 185.5v192q0 110 62 183.5t180 73.5q82 0 141 -39.5t87 -107.5l-82 -37q-18 45 -56.5 72t-90.5 27q-76 0 -115 -51.5t-39 -124.5v-187q0 -75 42 -128t119 -53z
M156 860h73q2 -23 21.5 -43t49.5 -20q33 0 52.5 20t19.5 43h71q-5 -51 -37.5 -90t-105.5 -39q-74 0 -108.5 40t-35.5 89z" />
    <glyph glyph-name="gbreve" unicode="&#x11f;" horiz-adv-x="511" 
d="M443 9q0 -106 -61.5 -160t-153.5 -54q-100 0 -160 57l49 67q21 -18 53 -31.5t60 -13.5q57 0 93.5 33t36.5 91v58h-2q-54 -61 -135 -61q-177 0 -177 242q0 42 4 77t16 71t31.5 61t53.5 40.5t80 15.5q37 0 72 -16.5t55 -44.5h2v55h83v-487zM131 248q0 -39 3.5 -66t14.5 -53
t34.5 -39t60.5 -13q116 0 116 171q0 33 -3 56.5t-13 53.5t-35 46.5t-63 16.5q-37 0 -61.5 -15t-35.5 -43t-14.5 -54t-3.5 -61zM127 697h73q2 -23 21.5 -43t49.5 -20q33 0 52.5 20t19.5 43h71q-5 -51 -37.5 -90t-105.5 -39q-74 0 -108.5 40t-35.5 89z" />
    <glyph glyph-name="Gdotaccent" unicode="&#x120;" horiz-adv-x="598" 
d="M299 72q67 0 113 49.5t46 116.5v55h-147v80h235v-135q0 -107 -69.5 -176t-178.5 -69q-121 0 -184 73.5t-63 185.5v192q0 110 62 183.5t180 73.5q82 0 141 -39.5t87 -107.5l-82 -37q-18 45 -56.5 72t-90.5 27q-76 0 -115 -51.5t-39 -124.5v-187q0 -75 42 -128t119 -53z
M347 767h-88v88h88v-88z" />
    <glyph glyph-name="gdotaccent" unicode="&#x121;" horiz-adv-x="511" 
d="M443 9q0 -106 -61.5 -160t-153.5 -54q-100 0 -160 57l49 67q21 -18 53 -31.5t60 -13.5q57 0 93.5 33t36.5 91v58h-2q-54 -61 -135 -61q-177 0 -177 242q0 42 4 77t16 71t31.5 61t53.5 40.5t80 15.5q37 0 72 -16.5t55 -44.5h2v55h83v-487zM131 248q0 -39 3.5 -66t14.5 -53
t34.5 -39t60.5 -13q116 0 116 171q0 33 -3 56.5t-13 53.5t-35 46.5t-63 16.5q-37 0 -61.5 -15t-35.5 -43t-14.5 -54t-3.5 -61zM302 597h-88v88h88v-88z" />
    <glyph glyph-name="Gcommaaccent" unicode="&#x122;" horiz-adv-x="598" 
d="M299 72q67 0 113 49.5t46 116.5v55h-147v80h235v-135q0 -107 -69.5 -176t-178.5 -69q-121 0 -184 73.5t-63 185.5v192q0 110 62 183.5t180 73.5q82 0 141 -39.5t87 -107.5l-82 -37q-18 45 -56.5 72t-90.5 27q-76 0 -115 -51.5t-39 -124.5v-187q0 -75 42 -128t119 -53z
M355 -167l-56 -90h-51l39 88h-35v111h103v-109z" />
    <glyph glyph-name="gcommaaccent" unicode="&#x123;" horiz-adv-x="511" 
d="M210 662l56 90h51l-39 -88h35v-111h-103v109zM443 9q0 -106 -61.5 -160t-153.5 -54q-100 0 -160 57l49 67q21 -18 53 -31.5t60 -13.5q57 0 93.5 33t36.5 91v58h-2q-54 -61 -135 -61q-177 0 -177 242q0 42 4 77t16 71t31.5 61t53.5 40.5t80 15.5q37 0 72 -16.5t55 -44.5h2
v55h83v-487zM131 248q0 -39 3.5 -66t14.5 -53t34.5 -39t60.5 -13q116 0 116 171q0 33 -3 56.5t-13 53.5t-35 46.5t-63 16.5q-37 0 -61.5 -15t-35.5 -43t-14.5 -54t-3.5 -61z" />
    <glyph glyph-name="Hcircumflex" unicode="&#x124;" horiz-adv-x="636" 
d="M560 0h-88v313h-308v-313h-88v696h88v-306h308v306h88v-696zM459 740l-143 86l-144 -87l-29 38l150 128h53l143 -126z" />
    <glyph glyph-name="hcircumflex" unicode="&#x125;" horiz-adv-x="551" 
d="M494 0h-82v297q0 61 -25 92t-84 31q-51 0 -85.5 -33.5t-34.5 -89.5v-297h-82v726h82v-292h3q53 67 138 67q75 0 122.5 -44.5t47.5 -127.5v-329zM281 740l-143 86l-144 -87l-29 38l150 128h53l143 -126z" />
    <glyph glyph-name="Hbar" unicode="&#x126;" horiz-adv-x="636" 
d="M560 0h-88v313h-308v-313h-88v535h-50v60h50v101h88v-101h308v101h88v-101h51v-60h-51v-535zM164 390h308v145h-308v-145z" />
    <glyph glyph-name="hbar" unicode="&#x127;" horiz-adv-x="521" 
d="M13 572v67h61v87h82v-87h216v-67h-216v-144h3q53 67 141 67q74 0 120.5 -44.5t46.5 -127.5v-323h-82v291q0 61 -25 92t-84 31q-51 0 -85.5 -33.5t-34.5 -89.5v-291h-82v572h-61z" />
    <glyph glyph-name="Itilde" unicode="&#x128;" horiz-adv-x="241" 
d="M164 0h-88v696h88v-696zM52 869q26 0 72 -23.5t62 -23.5q31 0 61 45l52 -29q-42 -89 -107 -89q-25 0 -70 21t-63 21q-30 0 -63 -40l-52 29q20 42 49 65.5t59 23.5z" />
    <glyph glyph-name="itilde" unicode="&#x129;" horiz-adv-x="315" 
d="M201 0h-88v495h88v-495zM88 699q26 0 72 -23.5t62 -23.5q31 0 61 45l52 -29q-42 -89 -107 -89q-25 0 -70 21t-63 21q-30 0 -63 -40l-52 29q20 42 49 65.5t59 23.5z" />
    <glyph glyph-name="Imacron" unicode="&#x12a;" horiz-adv-x="241" 
d="M164 0h-88v696h88v-696zM257 780h-268v75h268v-75z" />
    <glyph glyph-name="imacron" unicode="&#x12b;" horiz-adv-x="248" 
d="M168 0h-88v495h88v-495zM259 600h-268v75h268v-75z" />
    <glyph glyph-name="Ibreve" unicode="&#x12c;" horiz-adv-x="271" 
d="M-5 860h73q2 -23 21.5 -43t49.5 -20q33 0 52.5 20t19.5 43h71q-5 -51 -37.5 -90t-105.5 -39q-74 0 -108.5 40t-35.5 89zM180 0h-88v696h88v-696z" />
    <glyph glyph-name="ibreve" unicode="&#x12d;" horiz-adv-x="247" 
d="M167 0h-88v495h88v-495zM-20 703h73q2 -23 21.5 -43t49.5 -20q33 0 52.5 20t19.5 43h71q-5 -51 -37.5 -90t-105.5 -39q-74 0 -108.5 40t-35.5 89z" />
    <glyph glyph-name="Iogonek" unicode="&#x12e;" horiz-adv-x="241" 
d="M39 -92q0 41 37 92v696h88v-696h-28q-32 -45 -32 -77q0 -44 48 -44q27 0 58 13l19 -48q-37 -24 -87 -24q-46 0 -74.5 25.5t-28.5 62.5z" />
    <glyph glyph-name="iogonek" unicode="&#x12f;" horiz-adv-x="224" 
d="M35 -91q0 42 36 91v496h82v-496h-22q-31 -44 -31 -76q0 -44 48 -44q27 0 58 13l19 -48q-37 -24 -87 -24q-46 0 -74.5 25.5t-28.5 62.5zM153 614h-82v82h82v-82z" />
    <glyph glyph-name="Idotaccent" unicode="&#x130;" horiz-adv-x="241" 
d="M164 0h-88v696h88v-696zM163 767h-88v88h88v-88z" />
    <glyph glyph-name="dotlessi" unicode="&#x131;" horiz-adv-x="200" 
d="M144 0h-88v495h88v-495z" />
    <glyph glyph-name="IJ" unicode="&#x132;" horiz-adv-x="674" 
d="M163 0h-88v696h88v-696zM606 696v-474q0 -120 -58 -174t-155 -54q-108 0 -172 72l58 65q20 -20 52.5 -37t58.5 -17q58 0 93 31.5t35 114.5v473h88z" />
    <glyph glyph-name="ij" unicode="&#x133;" horiz-adv-x="438" 
d="M153 614h-82v82h82v-82zM153 0h-82v496h82v-496zM359 614h-83v82h83v-82zM359 496v-563q0 -62 -33 -98.5t-94 -36.5h-44v75h30q27 1 42.5 18t15.5 48v557h83z" />
    <glyph glyph-name="Jcircumflex" unicode="&#x134;" horiz-adv-x="467" 
d="M399 697v-474q0 -120 -58 -174t-155 -54q-108 0 -172 72l58 65q20 -20 52.5 -37t58.5 -17q58 0 93 31.5t35 114.5v473h88zM496 742l-143 86l-144 -87l-29 38l150 128h53l143 -126z" />
    <glyph glyph-name="jcircumflex" unicode="&#x135;" horiz-adv-x="306" 
d="M194 495v-562q0 -60 -39.5 -97.5t-101.5 -37.5h-30v75q29 0 30 1q58 2 58 65v556h83zM286 553l-133 106l-134 -107l-39 38l150 153h53l143 -151z" />
    <glyph glyph-name="Kcommaaccent" unicode="&#x136;" horiz-adv-x="618" 
d="M612 0h-102l-212 353l-134 -161v-192h-88v696h89v-377l3 1l128 156l183 220h102l-227 -274zM375 -147l-56 -90h-51l39 88h-35v111h103v-109z" />
    <glyph glyph-name="kcommaaccent" unicode="&#x137;" horiz-adv-x="506" 
d="M499 0h-95l-164 249l-90 -99v-150h-82v726h82v-469h3l214 239h97l-169 -187zM319 -167l-56 -90h-51l39 88h-35v111h103v-109z" />
    <glyph glyph-name="kgreenlandic" unicode="&#x138;" horiz-adv-x="506" 
d="M499 0h-95l-164 249l-90 -99v-150h-82v496h82v-239h3l214 239h97l-169 -187z" />
    <glyph glyph-name="Lacute" unicode="&#x139;" horiz-adv-x="543" 
d="M516 0h-440v696h88v-615h352v-81zM117 738l-37 42l148 122l59 -61z" />
    <glyph glyph-name="lacute" unicode="&#x13a;" horiz-adv-x="243" 
d="M225 0h-35q-122 0 -122 115v611h82v-604q0 -47 51 -47h24v-75zM107 748l-37 42l148 122l59 -61z" />
    <glyph glyph-name="Lcommaaccent" unicode="&#x13b;" horiz-adv-x="543" 
d="M516 0h-440v696h88v-615h352v-81zM345 -167l-56 -90h-51l39 88h-35v111h103v-109z" />
    <glyph glyph-name="lcommaaccent" unicode="&#x13c;" horiz-adv-x="243" 
d="M225 0h-35q-122 0 -122 115v611h82v-604q0 -47 51 -47h24v-75zM197 -167l-56 -90h-51l39 88h-35v111h103v-109z" />
    <glyph glyph-name="Lcaron" unicode="&#x13d;" horiz-adv-x="543" 
d="M516 0h-440v696h88v-615h352v-81zM446 587l-56 -90h-51l39 88h-35v111h103v-109z" />
    <glyph glyph-name="lcaron" unicode="&#x13e;" horiz-adv-x="313" 
d="M313 616l-56 -90h-51l39 88h-35v111h103v-109zM225 0h-35q-122 0 -122 115v611h82v-604q0 -47 51 -47h24v-75z" />
    <glyph glyph-name="Ldot" unicode="&#x13f;" horiz-adv-x="543" 
d="M516 0h-440v696h88v-615h352v-81zM398 311h-88v88h88v-88z" />
    <glyph glyph-name="ldot" unicode="&#x140;" horiz-adv-x="322" 
d="M313 338h-88v88h88v-88zM225 0h-35q-122 0 -122 115v611h82v-604q0 -47 51 -47h24v-75z" />
    <glyph glyph-name="Lslash" unicode="&#x141;" horiz-adv-x="574" 
d="M547 0h-440v242l-82 -47l-33 58l115 67v376h88v-325l127 74l33 -58l-160 -93v-213h352v-81z" />
    <glyph glyph-name="lslash" unicode="&#x142;" horiz-adv-x="326" 
d="M269 0h-35q-122 0 -122 115v175l-79 -45l-33 58l112 64v359h82v-311l99 57l33 -58l-132 -76v-216q0 -47 51 -47h24v-75z" />
    <glyph glyph-name="Nacute" unicode="&#x143;" horiz-adv-x="673" 
d="M599 0h-86l-254 392l-92 152l-3 -1v-543h-88v696h87l245 -379l101 -167l3 2v544h87v-696zM317 738l-37 42l148 122l59 -61z" />
    <glyph glyph-name="nacute" unicode="&#x144;" horiz-adv-x="506" 
d="M449 0h-82v297q0 61 -25.5 92t-87.5 31q-51 0 -83.5 -33.5t-32.5 -89.5v-297h-82v497h82v-63h3q25 32 63.5 49.5t79.5 17.5q74 0 119.5 -44.5t45.5 -127.5v-329zM246 551l-53 20l72 177l81 -25z" />
    <glyph glyph-name="Ncommaaccent" unicode="&#x145;" horiz-adv-x="673" 
d="M599 0h-86l-254 392l-92 152l-3 -1v-543h-88v696h87l245 -379l101 -167l3 2v544h87v-696zM385 -147l-56 -90h-51l39 88h-35v111h103v-109z" />
    <glyph glyph-name="ncommaaccent" unicode="&#x146;" horiz-adv-x="506" 
d="M449 0h-82v297q0 61 -25.5 92t-87.5 31q-51 0 -83.5 -33.5t-32.5 -89.5v-297h-82v497h82v-63h3q25 32 63.5 49.5t79.5 17.5q74 0 119.5 -44.5t45.5 -127.5v-329zM301 -167l-56 -90h-51l39 88h-35v111h103v-109z" />
    <glyph glyph-name="Ncaron" unicode="&#x147;" horiz-adv-x="673" 
d="M599 0h-86l-254 392l-92 152l-3 -1v-543h-88v696h87l245 -379l101 -167l3 2v544h87v-696zM336 822l143 86l30 -39l-143 -127h-53l-150 129l29 38z" />
    <glyph glyph-name="ncaron" unicode="&#x148;" horiz-adv-x="506" 
d="M449 0h-82v297q0 61 -25.5 92t-87.5 31q-51 0 -83.5 -33.5t-32.5 -89.5v-297h-82v497h82v-63h3q25 32 63.5 49.5t79.5 17.5q74 0 119.5 -44.5t45.5 -127.5v-329zM252 637l133 106l40 -39l-143 -151h-53l-150 153l39 38z" />
    <glyph glyph-name="napostrophe" unicode="&#x149;" horiz-adv-x="587" 
d="M530 0h-82v297q0 61 -25.5 92t-87.5 31q-51 0 -83.5 -33.5t-32.5 -89.5v-297h-82v497h82v-63h3q25 32 63.5 49.5t79.5 17.5q74 0 119.5 -44.5t45.5 -127.5v-329zM117 560l-56 -90h-51l39 88h-35v111h103v-109z" />
    <glyph glyph-name="Eng" unicode="&#x14a;" horiz-adv-x="673" 
d="M599 696v-768q0 -54 -28 -80t-74 -26q-43 0 -88 21l21 59q40 -11 54 -11q33 0 33 41v63l-258 397l-92 152l-3 -1v-543h-88v696h87l245 -379l101 -167l3 2v544h87z" />
    <glyph glyph-name="eng" unicode="&#x14b;" horiz-adv-x="506" 
d="M449 330v-402q0 -54 -28 -80t-74 -26q-43 0 -88 21l21 59q40 -11 54 -11q33 0 33 41v365q0 122 -114 122q-50 0 -82 -34t-32 -88v-297h-83v496h83v-60h4q50 65 140 65q71 0 118.5 -45.5t47.5 -125.5z" />
    <glyph glyph-name="Omacron" unicode="&#x14c;" horiz-adv-x="595" 
d="M297 701q113 0 180.5 -72t67.5 -185v-192q0 -118 -67.5 -188t-180.5 -70q-119 0 -183 73.5t-64 184.5v192q0 109 64 183t183 74zM298 618q-77 0 -119 -52t-42 -124v-185q0 -75 42 -128t119 -53q72 0 115.5 51t43.5 130v185q0 75 -43.5 125.5t-115.5 50.5zM441 780h-268
v75h268v-75z" />
    <glyph glyph-name="omacron" unicode="&#x14d;" horiz-adv-x="514" 
d="M263 500q111 0 164 -83q34 -53 34 -152q0 -127 -31 -180q-25 -43 -72 -67t-106 -24q-113 0 -164 75q-37 56 -37 177q0 91 25 142q25 53 74 82.5t113 29.5zM260 426q-77 0 -109 -70q-16 -35 -18 -111q0 -75 15 -108q30 -68 105 -68q90 0 117 88q8 27 8 105q0 61 -13 92
q-28 72 -105 72zM395 600h-268v75h268v-75z" />
    <glyph glyph-name="Obreve" unicode="&#x14e;" horiz-adv-x="595" 
d="M297 701q113 0 180.5 -72t67.5 -185v-192q0 -118 -67.5 -188t-180.5 -70q-119 0 -183 73.5t-64 184.5v192q0 109 64 183t183 74zM298 618q-77 0 -119 -52t-42 -124v-185q0 -75 42 -128t119 -53q72 0 115.5 51t43.5 130v185q0 75 -43.5 125.5t-115.5 50.5zM159 860h73
q2 -23 21.5 -43t49.5 -20q33 0 52.5 20t19.5 43h71q-5 -51 -37.5 -90t-105.5 -39q-74 0 -108.5 40t-35.5 89z" />
    <glyph glyph-name="obreve" unicode="&#x14f;" horiz-adv-x="514" 
d="M263 500q111 0 164 -83q34 -53 34 -152q0 -127 -31 -180q-25 -43 -72 -67t-106 -24q-113 0 -164 75q-37 56 -37 177q0 91 25 142q25 53 74 82.5t113 29.5zM260 426q-77 0 -109 -70q-16 -35 -18 -111q0 -75 15 -108q30 -68 105 -68q90 0 117 88q8 27 8 105q0 61 -13 92
q-28 72 -105 72zM117 697h73q2 -23 21.5 -43t49.5 -20q33 0 52.5 20t19.5 43h71q-5 -51 -37.5 -90t-105.5 -39q-74 0 -108.5 40t-35.5 89z" />
    <glyph glyph-name="Ohungarumlaut" unicode="&#x150;" horiz-adv-x="595" 
d="M297 701q113 0 180.5 -72t67.5 -185v-192q0 -118 -67.5 -188t-180.5 -70q-119 0 -183 73.5t-64 184.5v192q0 109 64 183t183 74zM298 618q-77 0 -119 -52t-42 -124v-185q0 -75 42 -128t119 -53q72 0 115.5 51t43.5 130v185q0 75 -43.5 125.5t-115.5 50.5zM365 738l-37 42
l148 122l59 -61zM212 738l-37 42l148 122l59 -61z" />
    <glyph glyph-name="ohungarumlaut" unicode="&#x151;" horiz-adv-x="514" 
d="M263 500q111 0 164 -83q34 -53 34 -152q0 -127 -31 -180q-25 -43 -72 -67t-106 -24q-113 0 -164 75q-37 56 -37 177q0 91 25 142q25 53 74 82.5t113 29.5zM260 426q-77 0 -109 -70q-16 -35 -18 -111q0 -75 15 -108q30 -68 105 -68q90 0 117 88q8 27 8 105q0 61 -13 92
q-28 72 -105 72zM206 551l-53 20l72 177l81 -25zM336 551l-53 20l72 177l81 -25z" />
    <glyph glyph-name="OE" unicode="&#x152;" horiz-adv-x="811" 
d="M784 0h-435q-29 -6 -60 -6q-119 0 -183 73.5t-64 184.5v192q0 109 64 183t183 74q25 0 55 -5h440v-81h-352v-225h300v-77h-300v-232h352v-81zM290 76q28 0 54 9v524q-26 9 -54 9q-77 0 -119 -52t-42 -124v-185q0 -75 42 -128t119 -53z" />
    <glyph glyph-name="oe" unicode="&#x153;" horiz-adv-x="828" 
d="M249 500q111 0 165 -82v-1q56 84 162 84q85 0 144 -59t59 -158v-63h-325q0 -51 18 -86q35 -65 118 -65q26 0 58 12.5t55 33.5l52 -59q-66 -63 -163 -63q-122 0 -178 84q-55 -84 -168 -84q-112 0 -163 75q-40 59 -40 177q0 94 22 142q24 53 72 82.5t112 29.5zM695 288
q-2 67 -34 102t-84 35q-53 0 -86.5 -36t-36.5 -101h241zM248 426q-76 0 -108 -70q-15 -35 -15 -111q0 -72 16 -108q32 -68 107 -68q89 0 115 88q7 24 7 89q0 71 -15 108q-29 72 -107 72z" />
    <glyph glyph-name="Racute" unicode="&#x154;" horiz-adv-x="598" 
d="M552 0h-98l-133 306h-157v-306h-88v696h284q86 0 143.5 -53t57.5 -137q0 -70 -41 -120t-109 -71zM473 506q0 56 -35 84.5t-94 28.5h-180v-236h176q59 0 96 32.5t37 90.5zM267 738l-37 42l148 122l59 -61z" />
    <glyph glyph-name="racute" unicode="&#x155;" horiz-adv-x="365" 
d="M368 480l-35 -79q-29 19 -70 19q-51 0 -82 -31t-31 -89v-300h-82v496h82v-63h4q47 68 130 68q53 0 84 -21zM203 551l-53 20l72 177l81 -25z" />
    <glyph glyph-name="Rcommaaccent" unicode="&#x156;" horiz-adv-x="598" 
d="M552 0h-98l-133 306h-157v-306h-88v696h284q86 0 143.5 -53t57.5 -137q0 -70 -41 -120t-109 -71zM473 506q0 56 -35 84.5t-94 28.5h-180v-236h176q59 0 96 32.5t37 90.5zM355 -147l-56 -90h-51l39 88h-35v111h103v-109z" />
    <glyph glyph-name="rcommaaccent" unicode="&#x157;" horiz-adv-x="365" 
d="M368 480l-35 -79q-29 19 -70 19q-51 0 -82 -31t-31 -89v-300h-82v496h82v-63h4q47 68 130 68q53 0 84 -21zM167 -167l-56 -90h-51l39 88h-35v111h103v-109z" />
    <glyph glyph-name="Rcaron" unicode="&#x158;" horiz-adv-x="598" 
d="M552 0h-98l-133 306h-157v-306h-88v696h284q86 0 143.5 -53t57.5 -137q0 -70 -41 -120t-109 -71zM473 506q0 56 -35 84.5t-94 28.5h-180v-236h176q59 0 96 32.5t37 90.5zM276 822l143 86l30 -39l-143 -127h-53l-150 129l29 38z" />
    <glyph glyph-name="rcaron" unicode="&#x159;" horiz-adv-x="365" 
d="M368 480l-35 -79q-29 19 -70 19q-51 0 -82 -31t-31 -89v-300h-82v496h82v-63h4q47 68 130 68q53 0 84 -21zM189 637l133 106l40 -39l-143 -151h-53l-150 153l39 38z" />
    <glyph glyph-name="Sacute" unicode="&#x15a;" horiz-adv-x="544" 
d="M519 198q0 -94 -69 -149t-181 -55q-69 0 -142 25t-125 70l56 71q85 -82 215 -82q70 0 112.5 30t42.5 91q0 53 -40 76t-121 39q-30 6 -42 8.5t-38.5 9t-39 13t-33 17t-30.5 23.5t-21.5 30.5t-16 40.5t-4.5 51q0 92 66.5 144t164.5 52q139 0 223 -67l-49 -75
q-84 56 -174 56q-69 0 -106.5 -29t-37.5 -81q0 -51 44 -74t151 -44q34 -7 55.5 -13t50.5 -20t46 -33t30 -51t13 -74zM247 738l-37 42l148 122l59 -61z" />
    <glyph glyph-name="sacute" unicode="&#x15b;" horiz-adv-x="457" 
d="M421 147q0 -69 -54.5 -111t-140.5 -42q-124 0 -207 72l50 63q70 -61 161 -61q48 0 78.5 20t30.5 57q0 35 -28 49.5t-86 20.5q-30 3 -49 6t-45.5 12.5t-42.5 22.5t-27.5 37.5t-11.5 56.5q0 68 53 109.5t128 41.5q106 0 177 -54l-44 -66q-66 44 -133 44q-47 0 -74 -20
t-27 -53q0 -32 32 -46.5t104 -21.5q29 -3 54.5 -10.5t49.5 -22.5t38 -41.5t14 -62.5zM246 551l-53 20l72 177l81 -25z" />
    <glyph glyph-name="Scircumflex" unicode="&#x15c;" horiz-adv-x="544" 
d="M519 198q0 -94 -69 -149t-181 -55q-69 0 -142 25t-125 70l56 71q85 -82 215 -82q70 0 112.5 30t42.5 91q0 53 -40 76t-121 39q-30 6 -42 8.5t-38.5 9t-39 13t-33 17t-30.5 23.5t-21.5 30.5t-16 40.5t-4.5 51q0 92 66.5 144t164.5 52q139 0 223 -67l-49 -75
q-84 56 -174 56q-69 0 -106.5 -29t-37.5 -81q0 -51 44 -74t151 -44q34 -7 55.5 -13t50.5 -20t46 -33t30 -51t13 -74zM413 740l-143 86l-144 -87l-29 38l150 128h53l143 -126z" />
    <glyph glyph-name="scircumflex" unicode="&#x15d;" horiz-adv-x="457" 
d="M421 147q0 -69 -54.5 -111t-140.5 -42q-124 0 -207 72l50 63q70 -61 161 -61q48 0 78.5 20t30.5 57q0 35 -28 49.5t-86 20.5q-30 3 -49 6t-45.5 12.5t-42.5 22.5t-27.5 37.5t-11.5 56.5q0 68 53 109.5t128 41.5q106 0 177 -54l-44 -66q-66 44 -133 44q-47 0 -74 -20
t-27 -53q0 -32 32 -46.5t104 -21.5q29 -3 54.5 -10.5t49.5 -22.5t38 -41.5t14 -62.5zM365 553l-133 106l-134 -107l-39 38l150 153h53l143 -151z" />
    <glyph glyph-name="Scedilla" unicode="&#x15e;" horiz-adv-x="544" 
d="M519 198q0 -92 -65.5 -146.5t-174.5 -57.5l-10 -33q52 -3 76 -28.5t24 -55.5q0 -32 -26 -57.5t-82 -25.5q-47 0 -87 18l17 43q35 -15 70 -15q20 0 33.5 10t13.5 26q0 19 -16 29.5t-42 10.5h-14l-20 21l18 59q-62 5 -124.5 29t-107.5 64l56 71q85 -82 215 -82
q70 0 112.5 30t42.5 91q0 53 -40 76t-121 39q-30 6 -42 8.5t-38.5 9t-39 13t-33 17t-30.5 23.5t-21.5 30.5t-16 40.5t-4.5 51q0 92 66.5 144t164.5 52q139 0 223 -67l-49 -75q-84 56 -174 56q-69 0 -106.5 -29t-37.5 -81q0 -51 44 -74t151 -44q34 -7 55.5 -13t50.5 -20
t46 -33t30 -51t13 -74z" />
    <glyph glyph-name="scedilla" unicode="&#x15f;" horiz-adv-x="457" 
d="M421 147q0 -67 -52.5 -109t-135.5 -44l-10 -33q52 -3 76 -28.5t24 -55.5q0 -32 -26 -57.5t-82 -25.5q-47 0 -87 18l17 43q35 -15 70 -15q20 0 33.5 10t13.5 26q0 19 -16 29.5t-42 10.5h-14l-20 21l18 59q-99 10 -169 70l50 63q70 -61 161 -61q48 0 78.5 20t30.5 57
q0 35 -28 49.5t-86 20.5q-30 3 -49 6t-45.5 12.5t-42.5 22.5t-27.5 37.5t-11.5 56.5q0 68 53 109.5t128 41.5q106 0 177 -54l-44 -66q-66 44 -133 44q-47 0 -74 -20t-27 -53q0 -32 32 -46.5t104 -21.5q29 -3 54.5 -10.5t49.5 -22.5t38 -41.5t14 -62.5z" />
    <glyph glyph-name="Scaron" unicode="&#x160;" horiz-adv-x="544" 
d="M519 198q0 -94 -69 -149t-181 -55q-69 0 -142 25t-125 70l56 71q85 -82 215 -82q70 0 112.5 30t42.5 91q0 53 -40 76t-121 39q-30 6 -42 8.5t-38.5 9t-39 13t-33 17t-30.5 23.5t-21.5 30.5t-16 40.5t-4.5 51q0 92 66.5 144t164.5 52q139 0 223 -67l-49 -75
q-84 56 -174 56q-69 0 -106.5 -29t-37.5 -81q0 -51 44 -74t151 -44q34 -7 55.5 -13t50.5 -20t46 -33t30 -51t13 -74zM276 822l143 86l30 -39l-143 -127h-53l-150 129l29 38z" />
    <glyph glyph-name="scaron" unicode="&#x161;" horiz-adv-x="457" 
d="M421 147q0 -69 -54.5 -111t-140.5 -42q-124 0 -207 72l50 63q70 -61 161 -61q48 0 78.5 20t30.5 57q0 35 -28 49.5t-86 20.5q-30 3 -49 6t-45.5 12.5t-42.5 22.5t-27.5 37.5t-11.5 56.5q0 68 53 109.5t128 41.5q106 0 177 -54l-44 -66q-66 44 -133 44q-47 0 -74 -20
t-27 -53q0 -32 32 -46.5t104 -21.5q29 -3 54.5 -10.5t49.5 -22.5t38 -41.5t14 -62.5zM225 637l133 106l40 -39l-143 -151h-53l-150 153l39 38z" />
    <glyph glyph-name="Tcommaaccent" unicode="&#x162;" horiz-adv-x="486" 
d="M485 619h-198v-619h-88v619h-198v77h484v-77zM295 -167l-56 -90h-51l39 88h-35v111h103v-109z" />
    <glyph glyph-name="tcommaaccent" unicode="&#x163;" horiz-adv-x="298" 
d="M268 0h-59q-52 0 -83.5 30.5t-31.5 85.5v309h-59v71h59v123h82v-123h76v-71h-76v-289q0 -62 49 -62h43v-74zM207 -167l-56 -90h-51l39 88h-35v111h103v-109z" />
    <glyph glyph-name="Tcaron" unicode="&#x164;" horiz-adv-x="486" 
d="M485 619h-198v-619h-88v619h-198v77h484v-77zM243 822l143 86l30 -39l-143 -127h-53l-150 129l29 38z" />
    <glyph glyph-name="tcaron" unicode="&#x165;" horiz-adv-x="342" 
d="M344 642l-56 -90h-51l39 88h-35v111h103v-109zM268 0h-59q-52 0 -83.5 30.5t-31.5 85.5v309h-59v71h59v123h82v-123h76v-71h-76v-289q0 -62 49 -62h43v-74z" />
    <glyph glyph-name="Tbar" unicode="&#x166;" horiz-adv-x="486" 
d="M485 619h-198v-216h144v-70h-144v-333h-88v333h-146v70h146v216h-198v77h484v-77z" />
    <glyph glyph-name="tbar" unicode="&#x167;" horiz-adv-x="298" 
d="M268 0h-59q-52 0 -83.5 30.5t-31.5 85.5v128h-57v67h57v114h-59v71h59v123h82v-123h76v-71h-76v-114h78v-67h-78v-108q0 -62 49 -62h43v-74z" />
    <glyph glyph-name="Utilde" unicode="&#x168;" horiz-adv-x="618" 
d="M469 696h88v-444q0 -118 -67.5 -188t-180.5 -70q-119 0 -183 73.5t-64 184.5v444h87v-437q0 -75 42 -128t119 -53q74 0 116.5 47.5t42.5 133.5v437zM238 869q26 0 72 -23.5t62 -23.5q31 0 61 45l52 -29q-42 -89 -107 -89q-25 0 -70 21t-63 21q-30 0 -63 -40l-52 29
q20 42 49 65.5t59 23.5z" />
    <glyph glyph-name="utilde" unicode="&#x169;" horiz-adv-x="514" 
d="M449 0h-82v56h-3q-48 -62 -136 -62q-80 0 -126 42t-46 131v329h82v-298q0 -68 24 -97t90 -29q50 0 82.5 35t32.5 91v298h82v-496zM178 699q26 0 72 -23.5t62 -23.5q31 0 61 45l52 -29q-42 -89 -107 -89q-25 0 -70 21t-63 21q-30 0 -63 -40l-52 29q20 42 49 65.5t59 23.5z
" />
    <glyph glyph-name="Umacron" unicode="&#x16a;" horiz-adv-x="618" 
d="M469 696h88v-444q0 -118 -67.5 -188t-180.5 -70q-119 0 -183 73.5t-64 184.5v444h87v-437q0 -75 42 -128t119 -53q74 0 116.5 47.5t42.5 133.5v437zM433 780h-268v75h268v-75z" />
    <glyph glyph-name="umacron" unicode="&#x16b;" horiz-adv-x="514" 
d="M449 0h-82v56h-3q-48 -62 -136 -62q-80 0 -126 42t-46 131v329h82v-298q0 -68 24 -97t90 -29q50 0 82.5 35t32.5 91v298h82v-496zM395 600h-268v75h268v-75z" />
    <glyph glyph-name="Ubreve" unicode="&#x16c;" horiz-adv-x="618" 
d="M469 696h88v-444q0 -118 -67.5 -188t-180.5 -70q-119 0 -183 73.5t-64 184.5v444h87v-437q0 -75 42 -128t119 -53q74 0 116.5 47.5t42.5 133.5v437zM168 847h73q2 -23 21.5 -43t49.5 -20q33 0 52.5 20t19.5 43h71q-5 -51 -37.5 -90t-105.5 -39q-74 0 -108.5 40t-35.5 89z
" />
    <glyph glyph-name="ubreve" unicode="&#x16d;" horiz-adv-x="514" 
d="M449 0h-82v56h-3q-48 -62 -136 -62q-80 0 -126 42t-46 131v329h82v-298q0 -68 24 -97t90 -29q50 0 82.5 35t32.5 91v298h82v-496zM111 697h73q2 -23 21.5 -43t49.5 -20q33 0 52.5 20t19.5 43h71q-5 -51 -37.5 -90t-105.5 -39q-74 0 -108.5 40t-35.5 89z" />
    <glyph glyph-name="Uring" unicode="&#x16e;" horiz-adv-x="618" 
d="M469 696h88v-444q0 -118 -67.5 -188t-180.5 -70q-119 0 -183 73.5t-64 184.5v444h87v-437q0 -75 42 -128t119 -53q74 0 116.5 47.5t42.5 133.5v437zM313 708q-41 0 -70 28.5t-29 69.5t29 69.5t70 28.5t69.5 -29t28.5 -69t-28.5 -69t-69.5 -29zM313 861q-23 0 -39 -16
t-16 -39t16 -39t39 -16t39 16t16 39t-16 39t-39 16z" />
    <glyph glyph-name="uring" unicode="&#x16f;" horiz-adv-x="514" 
d="M449 0h-82v56h-3q-48 -62 -136 -62q-80 0 -126 42t-46 131v329h82v-298q0 -68 24 -97t90 -29q50 0 82.5 35t32.5 91v298h82v-496zM255 546q-41 0 -70 28.5t-29 69.5t29 69.5t70 28.5t69.5 -29t28.5 -69t-28.5 -69t-69.5 -29zM255 699q-23 0 -39 -16t-16 -39t16 -39
t39 -16t39 16t16 39t-16 39t-39 16z" />
    <glyph glyph-name="Uhungarumlaut" unicode="&#x170;" horiz-adv-x="618" 
d="M469 696h88v-444q0 -118 -67.5 -188t-180.5 -70q-119 0 -183 73.5t-64 184.5v444h87v-437q0 -75 42 -128t119 -53q74 0 116.5 47.5t42.5 133.5v437zM347 738l-37 42l148 122l59 -61zM194 738l-37 42l148 122l59 -61z" />
    <glyph glyph-name="uhungarumlaut" unicode="&#x171;" horiz-adv-x="514" 
d="M449 0h-82v56h-3q-48 -62 -136 -62q-80 0 -126 42t-46 131v329h82v-298q0 -68 24 -97t90 -29q50 0 82.5 35t32.5 91v298h82v-496zM206 551l-53 20l72 177l81 -25zM336 551l-53 20l72 177l81 -25z" />
    <glyph glyph-name="Uogonek" unicode="&#x172;" horiz-adv-x="618" 
d="M256 -90q0 39 31 85q-108 6 -166.5 79t-58.5 178v444h87v-437q0 -75 42 -128t119 -53q74 0 116.5 47.5t42.5 133.5v437h88v-444q0 -107 -55.5 -175t-152.5 -80q-28 -43 -28 -72q0 -44 48 -44q27 0 58 13l19 -48q-37 -24 -87 -24q-46 0 -74.5 25.5t-28.5 62.5z" />
    <glyph glyph-name="uogonek" unicode="&#x173;" horiz-adv-x="514" 
d="M331 -90q0 42 36 91v55h-3q-48 -62 -136 -62q-80 0 -126 42t-46 131v329h82v-298q0 -68 24 -97t90 -29q50 0 82.5 35t32.5 91v298h82v-496h-23q-30 -43 -30 -75q0 -44 48 -44q27 0 58 13l19 -48q-37 -24 -87 -24q-46 0 -74.5 25.5t-28.5 62.5z" />
    <glyph glyph-name="Wcircumflex" unicode="&#x174;" horiz-adv-x="823" 
d="M410 532l-4 -1l-45 -172l-97 -359h-77l-175 696h96l78 -341l42 -188l4 -1l46 187l95 343h72l98 -349l48 -182h3q6 27 18 88.5t18 90.5l80 352h96l-176 -696h-76l-94 346zM555 740l-143 86l-144 -87l-29 38l150 128h53l143 -126z" />
    <glyph glyph-name="wcircumflex" unicode="&#x175;" horiz-adv-x="719" 
d="M511 118h5q6 22 32 120l72 258h91l-159 -496h-78l-74 239l-43 138l-40 -137l-74 -240h-79l-158 496h90l75 -261l32 -111h4q5 19 16.5 56t15.5 52l82 264h76l80 -261zM490 553l-133 106l-134 -107l-39 38l150 153h53l143 -151z" />
    <glyph glyph-name="Ycircumflex" unicode="&#x176;" horiz-adv-x="508" 
d="M504 696l-209 -420v-276h-84v276l-209 420h93l97 -193l62 -133l65 139l94 187h91zM395 740l-143 86l-144 -87l-29 38l150 128h53l143 -126z" />
    <glyph glyph-name="ycircumflex" unicode="&#x177;" horiz-adv-x="438" 
d="M438 496l-213 -601q-20 -56 -52 -75.5t-79 -19.5h-42v72h41q44 0 62 56l27 82l-182 486h91l79 -225l51 -156h3l51 155l77 226h86zM354 553l-133 106l-134 -107l-39 38l150 153h53l143 -151z" />
    <glyph glyph-name="Ydieresis" unicode="&#x178;" horiz-adv-x="508" 
d="M504 696l-209 -420v-276h-84v276l-209 420h93l97 -193l62 -133l65 139l94 187h91zM388 770h-88v88h88v-88zM208 770h-88v88h88v-88z" />
    <glyph glyph-name="Zacute" unicode="&#x179;" horiz-adv-x="505" 
d="M473 0h-440v77l339 542h-326v77h427v-70l-341 -545h341v-81zM229 738l-37 42l148 122l59 -61z" />
    <glyph glyph-name="zacute" unicode="&#x17a;" horiz-adv-x="434" 
d="M400 0h-366v68l270 356h-255v72h351v-71l-268 -349h268v-76zM246 551l-53 20l72 177l81 -25z" />
    <glyph glyph-name="Zdotaccent" unicode="&#x17b;" horiz-adv-x="505" 
d="M473 0h-440v77l339 542h-326v77h427v-70l-341 -545h341v-81zM313 767h-88v88h88v-88z" />
    <glyph glyph-name="zdotaccent" unicode="&#x17c;" horiz-adv-x="434" 
d="M400 0h-366v68l270 356h-255v72h351v-71l-268 -349h268v-76zM267 597h-88v88h88v-88z" />
    <glyph glyph-name="Zcaron" unicode="&#x17d;" horiz-adv-x="505" 
d="M473 0h-440v77l339 542h-326v77h427v-70l-341 -545h341v-81zM262 822l143 86l30 -39l-143 -127h-53l-150 129l29 38z" />
    <glyph glyph-name="zcaron" unicode="&#x17e;" horiz-adv-x="434" 
d="M400 0h-366v68l270 356h-255v72h351v-71l-268 -349h268v-76zM222 637l133 106l40 -39l-143 -151h-53l-150 153l39 38z" />
    <glyph glyph-name="florin" unicode="&#x192;" horiz-adv-x="500" 
d="M121 351v69h97l11 73q31 207 187 207q45 0 80 -14q-3 -12 -9.5 -36.5t-9.5 -38.5q-27 10 -65 10q-78 0 -95 -123l-11 -78h106v-69h-116l-32 -228q-15 -104 -53.5 -158.5t-116.5 -54.5q-47 0 -95 19q5 14 13 34.5t12 32.5q33 -13 60 -13q40 0 60.5 35.5t30.5 103.5l33 229
h-87z" />
    <glyph glyph-name="Ohorn" unicode="&#x1a0;" horiz-adv-x="595" 
d="M297 701q89 0 152 -47q32 4 44.5 25.5t12.5 73.5v21h77v-33q0 -116 -78 -148q40 -63 40 -149v-192q0 -118 -67.5 -188t-180.5 -70q-119 0 -183 73.5t-64 184.5v192q0 109 64 183t183 74zM298 618q-77 0 -119 -52t-42 -124v-185q0 -75 42 -128t119 -53q72 0 115.5 51
t43.5 130v185q0 75 -43.5 125.5t-115.5 50.5z" />
    <glyph glyph-name="ohorn" unicode="&#x1a1;" horiz-adv-x="537" 
d="M263 500q77 0 130 -44q38 2 52.5 23t14.5 77v21h77v-33q0 -128 -97 -154q21 -49 21 -125q0 -127 -31 -180q-25 -43 -72 -67t-106 -24q-113 0 -164 75q-37 56 -37 177q0 91 25 142q25 53 74 82.5t113 29.5zM260 426q-77 0 -109 -70q-16 -35 -18 -111q0 -75 15 -108
q30 -68 105 -68q90 0 117 88q8 27 8 105q0 61 -13 92q-28 72 -105 72z" />
    <glyph glyph-name="Uhorn" unicode="&#x1af;" horiz-adv-x="664" 
d="M469 696h88v-42q32 4 44.5 25.5t12.5 73.5v21h77v-33q0 -150 -134 -159v-330q0 -118 -67.5 -188t-180.5 -70q-119 0 -183 73.5t-64 184.5v444h87v-437q0 -75 42 -128t119 -53q74 0 116.5 47.5t42.5 133.5v437z" />
    <glyph glyph-name="uhorn" unicode="&#x1b0;" horiz-adv-x="568" 
d="M449 0h-82v56h-3q-48 -62 -136 -62q-80 0 -126 42t-46 131v329h82v-298q0 -68 24 -97t90 -29q50 0 82.5 35t32.5 91v298h82v-39q32 4 44.5 25.5t12.5 73.5v21h77v-33q0 -150 -134 -159v-385z" />
    <glyph glyph-name="AEacute" unicode="&#x1fc;" horiz-adv-x="977" 
d="M932 0h-441v204h-259l-130 -204h-92l444 696h478v-81h-352v-225h300v-77h-300v-232h352v-81zM491 612l-211 -332h211v332zM636 738l-37 42l148 122l59 -61z" />
    <glyph glyph-name="aeacute" unicode="&#x1fd;" horiz-adv-x="799" 
d="M766 221h-325q0 -51 18 -86q35 -65 118 -65q26 0 58 12.5t55 33.5l52 -59q-66 -63 -163 -63q-120 0 -175 78q-49 -78 -183 -78q-83 0 -129.5 41t-46.5 106q0 62 41 104t117 42h156v56q0 81 -114 81q-82 0 -118 -43l-52 55q56 65 167 65q129 0 177 -61q55 61 144 61
q85 0 144 -59t59 -158v-63zM123 146q0 -36 27.5 -56.5t80.5 -20.5q128 0 128 92v60h-136q-48 0 -74 -20t-26 -55zM682 288q-2 67 -34 102t-84 35q-53 0 -86.5 -36t-36.5 -101h241zM446 551l-53 20l72 177l81 -25z" />
    <glyph glyph-name="Oslashacute" unicode="&#x1fe;" horiz-adv-x="595" 
d="M297 701q96 0 162 -55l36 53l43 -29l-43 -63q50 -67 50 -163v-192q0 -118 -67.5 -188t-180.5 -70q-110 0 -175 65l-42 -61l-42 29l50 74q-38 63 -38 151v192q0 109 64 183t183 74zM457 442q0 45 -17 84l-266 -390q43 -60 124 -60q72 0 115.5 51t43.5 130v185zM298 618
q-77 0 -119 -52t-42 -124v-185q0 -38 10 -69l262 384q-44 46 -111 46zM295 738l-37 42l148 122l59 -61z" />
    <glyph glyph-name="oslashacute" unicode="&#x1ff;" horiz-adv-x="514" 
d="M263 500q67 0 118 -35l42 59l38 -27l-46 -64l12 -16q34 -53 34 -152q0 -127 -31 -180q-25 -43 -72 -67t-106 -24q-74 0 -123 33l-37 -52l-37 28l40 56q-4 4 -7 10q-37 56 -37 177q0 91 25 142q25 53 74 82.5t113 29.5zM365 354q-2 2 -2 4l-186 -262q30 -27 76 -27
q90 0 117 88q8 27 8 105q0 61 -13 92zM260 426q-77 0 -109 -70q-16 -35 -18 -111q0 -75 15 -108v-2l187 264q-30 27 -75 27zM266 551l-53 20l72 177l81 -25z" />
    <glyph glyph-name="Scommaaccent" unicode="&#x218;" horiz-adv-x="544" 
d="M519 198q0 -94 -69 -149t-181 -55q-69 0 -142 25t-125 70l56 71q85 -82 215 -82q70 0 112.5 30t42.5 91q0 53 -40 76t-121 39q-30 6 -42 8.5t-38.5 9t-39 13t-33 17t-30.5 23.5t-21.5 30.5t-16 40.5t-4.5 51q0 92 66.5 144t164.5 52q139 0 223 -67l-49 -75
q-84 56 -174 56q-69 0 -106.5 -29t-37.5 -81q0 -51 44 -74t151 -44q34 -7 55.5 -13t50.5 -20t46 -33t30 -51t13 -74zM332 -167l-56 -90h-51l39 88h-35v111h103v-109z" />
    <glyph glyph-name="scommaaccent" unicode="&#x219;" horiz-adv-x="457" 
d="M421 147q0 -69 -54.5 -111t-140.5 -42q-124 0 -207 72l50 63q70 -61 161 -61q48 0 78.5 20t30.5 57q0 35 -28 49.5t-86 20.5q-30 3 -49 6t-45.5 12.5t-42.5 22.5t-27.5 37.5t-11.5 56.5q0 68 53 109.5t128 41.5q106 0 177 -54l-44 -66q-66 44 -133 44q-47 0 -74 -20
t-27 -53q0 -32 32 -46.5t104 -21.5q29 -3 54.5 -10.5t49.5 -22.5t38 -41.5t14 -62.5zM285 -167l-56 -90h-51l39 88h-35v111h103v-109z" />
    <glyph glyph-name="schwa" unicode="&#x259;" horiz-adv-x="481" 
d="M40 276h319v8q0 62 -33.5 102t-94.5 40q-60 0 -112 -47l-53 59q67 64 169 64q42 0 76.5 -11t66 -37.5t49.5 -78.5t18 -125q0 -70 -18.5 -122t-50 -80t-66 -41t-72.5 -13q-85 0 -141.5 59t-56.5 159v64zM242 72q51 0 82 35.5t35 99.5h-233q3 -66 34 -100.5t82 -34.5z" />
    <glyph glyph-name="primemod" unicode="&#x2b9;" horiz-adv-x="270" 
d="M146 694l96 -24l-138 -266l-57 18z" />
    <glyph glyph-name="circumflex" unicode="&#x2c6;" horiz-adv-x="491" 
d="M385 553l-133 106l-134 -107l-39 38l150 153h53l143 -151z" />
    <glyph glyph-name="caron" unicode="&#x2c7;" horiz-adv-x="491" 
d="M252 637l133 106l40 -39l-143 -151h-53l-150 153l39 38z" />
    <glyph glyph-name="breve" unicode="&#x2d8;" horiz-adv-x="511" 
d="M127 697h73q2 -23 21.5 -43t49.5 -20q33 0 52.5 20t19.5 43h71q-5 -51 -37.5 -90t-105.5 -39q-74 0 -108.5 40t-35.5 89z" />
    <glyph glyph-name="dotaccent" unicode="&#x2d9;" horiz-adv-x="491" 
d="M292 597h-88v88h88v-88z" />
    <glyph glyph-name="ring" unicode="&#x2da;" horiz-adv-x="491" 
d="M274 546q-41 0 -70 28.5t-29 69.5t29 69.5t70 28.5q40 0 69 -29t29 -69t-29 -69t-69 -29zM274 699q-23 0 -39 -16t-16 -39t16 -39t39 -16t39 16t16 39t-16 39t-39 16z" />
    <glyph glyph-name="ogonek" unicode="&#x2db;" horiz-adv-x="281" 
d="M59 -92q0 41 38 94h58l1 -2q-32 -45 -32 -77q0 -44 48 -44q27 0 58 13l19 -48q-37 -24 -87 -24q-46 0 -74.5 25.5t-28.5 62.5z" />
    <glyph glyph-name="tilde" unicode="&#x2dc;" horiz-adv-x="491" 
d="M178 699q26 0 72 -23.5t62 -23.5q31 0 61 45l52 -29q-42 -89 -107 -89q-25 0 -70 21t-63 21q-30 0 -63 -40l-52 29q20 42 49 65.5t59 23.5z" />
    <glyph glyph-name="hungarumlaut" unicode="&#x2dd;" horiz-adv-x="563" 
d="M206 551l-53 20l72 177l81 -25zM336 551l-53 20l72 177l81 -25z" />
    <glyph glyph-name="tonos" unicode="&#x384;" horiz-adv-x="491" 
d="M246 551l-53 20l72 177l81 -25z" />
    <glyph glyph-name="dieresistonos" unicode="&#x385;" horiz-adv-x="391" 
d="M379 589h-87v89h87v-89zM94 589h-87v89h87v-89zM180 551l-53 20l72 177l81 -25z" />
    <glyph glyph-name="Alphatonos" unicode="&#x386;" horiz-adv-x="598" 
d="M592 0h-93l-56 160h-289l-56 -160h-92l255 696h76zM418 236l-67 195l-51 148h-3l-49 -144l-69 -199h239zM17 531l-53 20l72 177l81 -25z" />
    <glyph glyph-name="anoteleia" unicode="&#x387;" horiz-adv-x="238" 
d="M167 285h-103v111h103v-111z" />
    <glyph glyph-name="Epsilontonos" unicode="&#x388;" horiz-adv-x="543" 
d="M516 0h-440v696h440v-81h-352v-225h300v-77h-300v-232h352v-81zM-77 531l-53 20l72 177l81 -25z" />
    <glyph glyph-name="Etatonos" unicode="&#x389;" horiz-adv-x="636" 
d="M560 0h-88v313h-308v-313h-88v696h88v-306h308v306h88v-696zM-70 531l-53 20l72 177l81 -25z" />
    <glyph glyph-name="Iotatonos" unicode="&#x38a;" horiz-adv-x="241" 
d="M164 0h-88v696h88v-696zM-72 531l-53 20l72 177l81 -25z" />
    <glyph glyph-name="Omicrontonos" unicode="&#x38c;" horiz-adv-x="595" 
d="M297 701q113 0 180.5 -72t67.5 -185v-192q0 -118 -67.5 -188t-180.5 -70q-119 0 -183 73.5t-64 184.5v192q0 109 64 183t183 74zM298 618q-77 0 -119 -52t-42 -124v-185q0 -75 42 -128t119 -53q72 0 115.5 51t43.5 130v185q0 75 -43.5 125.5t-115.5 50.5zM-54 531l-53 20
l72 177l81 -25z" />
    <glyph glyph-name="Upsilontonos" unicode="&#x38e;" horiz-adv-x="508" 
d="M504 696l-209 -420v-276h-84v276l-209 420h93l97 -193l62 -133l65 139l94 187h91zM-128 531l-53 20l72 177l81 -25z" />
    <glyph glyph-name="Omegatonos" unicode="&#x38f;" horiz-adv-x="580" 
d="M346 95q49 17 75.5 64t26.5 111v173q0 77 -41.5 127.5t-117.5 50.5q-80 0 -120.5 -52t-40.5 -126v-173q0 -59 27 -107t78 -68l-1 -95h-205v81h88q-74 45 -74 194v170q0 109 64 183t183 74q113 0 180.5 -72t67.5 -185v-170q0 -139 -74 -194h89v-81h-205v95zM-54 531
l-53 20l72 177l81 -25z" />
    <glyph glyph-name="iotadieresistonos" unicode="&#x390;" horiz-adv-x="225" 
d="M195 70l-2 -70q-10 -1 -21 -1q-59 0 -81.5 25t-22.5 87v383h82v-379q0 -30 8 -37.5t37 -7.5zM304 589h-87v89h87v-89zM19 589h-87v89h87v-89zM105 551l-53 20l72 177l81 -25z" />
    <glyph glyph-name="Alpha" unicode="&#x391;" horiz-adv-x="598" 
d="M592 0h-93l-56 160h-289l-56 -160h-92l255 696h76zM418 236l-67 195l-51 148h-3l-49 -144l-69 -199h239z" />
    <glyph glyph-name="Beta" unicode="&#x392;" horiz-adv-x="598" 
d="M560 193q0 -86 -56 -139.5t-136 -53.5h-292v696h263q99 0 152 -49.5t53 -132.5q0 -47 -26 -90t-79 -62v-3q57 -13 89 -61.5t32 -104.5zM328 619h-164v-225h164q61 0 94.5 31.5t33.5 81.5q0 49 -33.5 80.5t-94.5 31.5zM343 318h-179v-237h179q62 0 95.5 34.5t33.5 84.5
t-33 84t-96 34z" />
    <glyph glyph-name="Gamma" unicode="&#x393;" horiz-adv-x="524" 
d="M516 615h-352v-615h-88v696h440v-81z" />
    <glyph glyph-name="Delta" unicode="&#x394;" horiz-adv-x="598" 
d="M592 0h-586l255 696h76zM472 77l-120 351l-52 161h-3l-52 -162l-120 -350h347z" />
    <glyph glyph-name="Delta" unicode="&#x2206;" horiz-adv-x="598" 
d="M592 0h-586l255 696h76zM472 77l-120 351l-52 161h-3l-52 -162l-120 -350h347z" />
    <glyph glyph-name="Epsilon" unicode="&#x395;" horiz-adv-x="543" 
d="M516 0h-440v696h440v-81h-352v-225h300v-77h-300v-232h352v-81z" />
    <glyph glyph-name="Zeta" unicode="&#x396;" horiz-adv-x="505" 
d="M473 0h-440v77l339 542h-326v77h427v-70l-341 -545h341v-81z" />
    <glyph glyph-name="Eta" unicode="&#x397;" horiz-adv-x="636" 
d="M560 0h-88v313h-308v-313h-88v696h88v-306h308v306h88v-696z" />
    <glyph glyph-name="Theta" unicode="&#x398;" horiz-adv-x="580" 
d="M289 701q113 0 180.5 -72t67.5 -185v-192q0 -118 -67.5 -188t-180.5 -70q-119 0 -183 73.5t-64 184.5v192q0 109 64 183t183 74zM290 616q-77 0 -119 -52t-42 -124v-181q0 -75 42 -128t119 -53q72 0 115.5 51t43.5 130v181q0 75 -43.5 125.5t-115.5 50.5zM162 318v75h256
v-75h-256z" />
    <glyph glyph-name="Iota" unicode="&#x399;" horiz-adv-x="241" 
d="M164 0h-88v696h88v-696z" />
    <glyph glyph-name="Kappa" unicode="&#x39a;" horiz-adv-x="618" 
d="M612 0h-102l-212 353l-134 -161v-192h-88v696h89v-377l3 1l128 156l183 220h102l-227 -274z" />
    <glyph glyph-name="Lambda" unicode="&#x39b;" horiz-adv-x="598" 
d="M592 0h-93l-61 176q-85 239 -138 394h-3q-49 -145 -91 -263.5t-46 -130.5l-62 -176h-92l255 696h76z" />
    <glyph glyph-name="Mu" unicode="&#x39c;" horiz-adv-x="748" 
d="M683 0h-88v496l-3 -2l-54 -131l-120 -260h-77l-122 268l-52 125l-3 -2v-494h-88v696h88l147 -325l69 -162h3l69 161l145 326h86v-696z" />
    <glyph glyph-name="Nu" unicode="&#x39d;" horiz-adv-x="673" 
d="M599 0h-86l-254 392l-92 152l-3 -1v-543h-88v696h87l245 -379l101 -167l3 2v544h87v-696z" />
    <glyph glyph-name="Xi" unicode="&#x39e;" horiz-adv-x="568" 
d="M507 615h-450v81h450v-81zM453 313h-342v77h342v-77zM507 0h-450v81h450v-81z" />
    <glyph glyph-name="Omicron" unicode="&#x39f;" horiz-adv-x="595" 
d="M297 701q113 0 180.5 -72t67.5 -185v-192q0 -118 -67.5 -188t-180.5 -70q-119 0 -183 73.5t-64 184.5v192q0 109 64 183t183 74zM298 618q-77 0 -119 -52t-42 -124v-185q0 -75 42 -128t119 -53q72 0 115.5 51t43.5 130v185q0 75 -43.5 125.5t-115.5 50.5z" />
    <glyph glyph-name="Pi" unicode="&#x3a0;" horiz-adv-x="636" 
d="M560 0h-88v619h-308v-619h-88v696h484v-696z" />
    <glyph glyph-name="Rho" unicode="&#x3a1;" horiz-adv-x="581" 
d="M561 485q0 -79 -59.5 -142t-156.5 -63h-181v-280h-88v696h255q96 0 163 -53t67 -158zM469 488q0 62 -37.5 94.5t-98.5 32.5h-169v-254h173q63 0 97.5 38.5t34.5 88.5z" />
    <glyph glyph-name="Sigma" unicode="&#x3a3;" horiz-adv-x="505" 
d="M473 0h-440v77l168 281l-167 268v70h427v-77h-324l167 -261l-169 -277h338v-81z" />
    <glyph glyph-name="Tau" unicode="&#x3a4;" horiz-adv-x="486" 
d="M485 619h-198v-619h-88v619h-198v77h484v-77z" />
    <glyph glyph-name="Upsilon" unicode="&#x3a5;" horiz-adv-x="508" 
d="M504 696l-209 -420v-276h-84v276l-209 420h93l97 -193l62 -133l65 139l94 187h91z" />
    <glyph glyph-name="Phi" unicode="&#x3a6;" horiz-adv-x="732" 
d="M692 355q0 -129 -74 -211t-210 -89v-55h-87v55q-133 8 -208 88.5t-75 211.5q0 130 74 214.5t209 93.5v33h87v-33q146 -7 215 -89.5t69 -218.5zM408 591v-462q94 1 146 65t52 161q0 104 -50 168.5t-148 67.5zM321 592q-98 -5 -147.5 -73t-49.5 -164t53 -157t144 -69v463z
" />
    <glyph glyph-name="Chi" unicode="&#x3a7;" horiz-adv-x="523" 
d="M524 0h-98l-165 289l-164 -289h-98l214 357l-200 339h98l150 -271l151 271h98l-200 -339z" />
    <glyph glyph-name="Psi" unicode="&#x3a8;" horiz-adv-x="726" 
d="M664 382q0 -105 -71.5 -169.5t-185.5 -69.5v-143h-88v144q-115 3 -186 70t-71 178v304h88v-292q0 -78 46.5 -126.5t122.5 -50.5v469h88v-469q76 1 122.5 45.5t46.5 121.5v302h88v-314z" />
    <glyph glyph-name="Omega" unicode="&#x3a9;" horiz-adv-x="580" 
d="M346 95q49 17 75.5 64t26.5 111v173q0 77 -41.5 127.5t-117.5 50.5q-80 0 -120.5 -52t-40.5 -126v-173q0 -59 27 -107t78 -68l-1 -95h-205v81h88q-74 45 -74 194v170q0 109 64 183t183 74q113 0 180.5 -72t67.5 -185v-170q0 -139 -74 -194h89v-81h-205v95z" />
    <glyph glyph-name="Iotadieresis" unicode="&#x3aa;" horiz-adv-x="241" 
d="M164 0h-88v696h88v-696zM254 770h-88v88h88v-88zM74 770h-88v88h88v-88z" />
    <glyph glyph-name="Upsilondieresis" unicode="&#x3ab;" horiz-adv-x="508" 
d="M504 696l-209 -420v-276h-84v276l-209 420h93l97 -193l62 -133l65 139l94 187h91zM387 770h-88v88h88v-88zM207 770h-88v88h88v-88z" />
    <glyph glyph-name="alphatonos" unicode="&#x3ac;" horiz-adv-x="505" 
d="M48 244q0 256 188 256q83 0 124 -60l2 1v54h82v-495h-82v55l-2 1q-57 -62 -135 -62q-177 0 -177 250zM133 247q0 -35 4 -61.5t15 -53.5t35.5 -41.5t60.5 -14.5q114 0 114 171q0 173 -114 173q-37 0 -61.5 -15.5t-35.5 -43.5t-14.5 -53.5t-3.5 -60.5zM251 551l-53 20
l72 177l81 -25z" />
    <glyph glyph-name="epsilontonos" unicode="&#x3ad;" horiz-adv-x="440" 
d="M127 259v2q-70 27 -70 98q0 59 47 100.5t133 41.5q109 0 174 -63l-51 -62q-18 19 -52.5 31.5t-66.5 12.5q-48 0 -75 -19.5t-27 -47.5q0 -25 19.5 -41t59.5 -16h84v-73h-81q-41 0 -66 -21t-25 -54t31 -54t84 -21q32 0 69 14.5t57 35.5l52 -59q-34 -31 -84 -49.5
t-101 -18.5q-86 0 -137.5 39t-51.5 107q0 31 18.5 66.5t59.5 50.5zM246 551l-53 20l72 177l81 -25z" />
    <glyph glyph-name="etatonos" unicode="&#x3ae;" horiz-adv-x="524" 
d="M458 0h-82v297q0 61 -25.5 92t-87.5 31q-51 0 -83.5 -33.5t-32.5 -89.5v-297h-82v497h82v-63h3q53 67 138 67q75 0 122.5 -44.5t47.5 -127.5v-329zM246 551l-53 20l72 177l81 -25z" />
    <glyph glyph-name="iotatonos" unicode="&#x3af;" horiz-adv-x="225" 
d="M195 70l-2 -70q-10 -1 -21 -1q-59 0 -81.5 25t-22.5 87v383h82v-379q0 -30 8 -37.5t37 -7.5zM130 551l-53 20l72 177l81 -25z" />
    <glyph glyph-name="upsilondieresistonos" unicode="&#x3b0;" horiz-adv-x="529" 
d="M462 496v-323q0 -79 -55.5 -129t-142.5 -50t-141.5 50t-54.5 129v323h82v-298q0 -56 32.5 -90.5t82.5 -34.5t82.5 34.5t32.5 90.5v298h82zM450 589h-87v89h87v-89zM165 589h-87v89h87v-89zM251 551l-53 20l72 177l81 -25z" />
    <glyph glyph-name="alpha" unicode="&#x3b1;" horiz-adv-x="505" 
d="M48 244q0 256 188 256q83 0 124 -60l2 1v54h82v-495h-82v55l-2 1q-57 -62 -135 -62q-177 0 -177 250zM133 247q0 -35 4 -61.5t15 -53.5t35.5 -41.5t60.5 -14.5q114 0 114 171q0 173 -114 173q-37 0 -61.5 -15.5t-35.5 -43.5t-14.5 -53.5t-3.5 -60.5z" />
    <glyph glyph-name="beta" unicode="&#x3b2;" horiz-adv-x="517" 
d="M466 233q-2 -239 -182 -239q-83 0 -134 60l-2 -1v-198h-82v678q0 91 49.5 143t139.5 52q64 0 107 -30.5t58.5 -67.5t15.5 -74q0 -97 -68 -141q98 -19 98 -182zM379 245q-2 133 -97 133h-80v71h66q45 0 65 30.5t20 68.5q0 41 -24.5 75t-75.5 34q-58 0 -81.5 -35.5
t-23.5 -84.5v-292q0 -176 116 -176q117 0 115 176z" />
    <glyph glyph-name="gamma" unicode="&#x3b3;" horiz-adv-x="450" 
d="M229 150h6q90 268 122 346h88q-103 -260 -174 -472v-224h-82v209q-54 187 -122 366q-14 35 -20.5 41t-30.5 6h-4l-7 69q28 9 50 9q32 0 51 -18t32 -52q44 -118 91 -280z" />
    <glyph glyph-name="delta" unicode="&#x3b4;" horiz-adv-x="491" 
d="M247 435q-41 -4 -71 -27t-42 -56q-13 -37 -13 -110q0 -74 16 -110q29 -63 107 -63q89 0 115 88q7 24 7 86q0 68 -15 105q-27 66 -104 87zM259 729q84 0 158 -40l-36 -71q-63 35 -123 35q-38 0 -61.5 -16.5t-23.5 -39.5q0 -25 28 -47t84 -48q95 -45 125 -90
q39 -60 39 -171q0 -98 -33 -154q-54 -93 -174 -93q-112 0 -163 75q-40 59 -40 174q0 85 24 137q34 76 102 99q-75 40 -75 112q0 64 48.5 101t120.5 37z" />
    <glyph glyph-name="epsilon" unicode="&#x3b5;" horiz-adv-x="440" 
d="M127 259v2q-70 27 -70 98q0 59 47 100.5t133 41.5q109 0 174 -63l-51 -62q-18 19 -52.5 31.5t-66.5 12.5q-48 0 -75 -19.5t-27 -47.5q0 -25 19.5 -41t59.5 -16h84v-73h-81q-41 0 -66 -21t-25 -54t31 -54t84 -21q32 0 69 14.5t57 35.5l52 -59q-34 -31 -84 -49.5
t-101 -18.5q-86 0 -137.5 39t-51.5 107q0 31 18.5 66.5t59.5 50.5z" />
    <glyph glyph-name="zeta" unicode="&#x3b6;" horiz-adv-x="398" 
d="M121 215q0 -48 25 -75.5t70 -46.5l115 -46q48 -19 64 -40t16 -51q0 -11 -4.5 -25.5t-10.5 -26.5t-17 -28.5t-17.5 -25.5t-19.5 -26t-16 -21l-64 35l41 69q11 22 11 34q0 22 -45 39l-93 36q-66 25 -104 75t-38 122q0 87 79 205t215 221h-257v72h370v-68
q-127 -98 -223.5 -220t-96.5 -208z" />
    <glyph glyph-name="eta" unicode="&#x3b7;" horiz-adv-x="524" 
d="M458 0h-82v297q0 61 -25.5 92t-87.5 31q-51 0 -83.5 -33.5t-32.5 -89.5v-297h-82v497h82v-63h3q53 67 138 67q75 0 122.5 -44.5t47.5 -127.5v-329z" />
    <glyph glyph-name="theta" unicode="&#x3b8;" horiz-adv-x="512" 
d="M264 731q108 0 156 -85q42 -70 42 -263q0 -213 -42 -294q-22 -43 -66 -69t-101 -26q-107 0 -160 78q-43 65 -43 298q0 87 11.5 153.5t24.5 93.5q53 114 178 114zM367 160q21 91 18 190h-257q-3 -148 19 -210q24 -71 109 -71q87 0 111 91zM260 657q-74 0 -106 -70
q-23 -47 -26 -165h257q0 29 -1.5 53t-4.5 42.5t-5 27.5t-6 23l-4 15q-10 34 -38 54t-66 20z" />
    <glyph glyph-name="iota" unicode="&#x3b9;" horiz-adv-x="225" 
d="M195 70l-2 -70q-10 -1 -21 -1q-59 0 -81.5 25t-22.5 87v383h82v-379q0 -30 8 -37.5t37 -7.5z" />
    <glyph glyph-name="kappa" unicode="&#x3ba;" horiz-adv-x="506" 
d="M499 0h-95l-164 249l-90 -99v-150h-82v496h82v-239h3l214 239h97l-169 -187z" />
    <glyph glyph-name="lambda" unicode="&#x3bb;" horiz-adv-x="454" 
d="M455 68l3 -69q-21 -5 -45 -5q-58 0 -78 59l-62 182l-44 139h-3l-55 -165l-77 -209h-91l184 492l-32 107q-8 28 -21 40t-42 12q-14 0 -22 -1l-5 74q29 6 51 6q46 0 72.5 -24t42.5 -74l169 -512q11 -34 19.5 -43t35.5 -9z" />
    <glyph glyph-name="nu" unicode="&#x3bd;" horiz-adv-x="446" 
d="M441 496l-183 -496h-70l-183 496h87l73 -207l57 -172h3l56 171l72 208h88z" />
    <glyph glyph-name="xi" unicode="&#x3be;" horiz-adv-x="413" 
d="M392 614q-61 36 -124 36q-57 0 -90.5 -31.5t-33.5 -77.5q0 -45 40.5 -77.5t92.5 -32.5h91v-71h-114q-58 0 -93 -44.5t-35 -100.5q0 -93 97 -127q121 -42 157 -64t36 -69q0 -56 -74 -152l-65 33l37 70q9 20 9 26q0 25 -42 40l-102 38q-67 26 -105 71.5t-38 128.5
q0 46 27.5 100t86.5 85q-34 13 -56 42t-29.5 55.5t-7.5 50.5q0 82 58 134.5t148 52.5q99 0 168 -44z" />
    <glyph glyph-name="omicron" unicode="&#x3bf;" horiz-adv-x="514" 
d="M263 500q111 0 164 -83q34 -53 34 -152q0 -127 -31 -180q-25 -43 -72 -67t-106 -24q-113 0 -164 75q-37 56 -37 177q0 91 25 142q25 53 74 82.5t113 29.5zM260 426q-77 0 -109 -70q-16 -35 -18 -111q0 -75 15 -108q30 -68 105 -68q90 0 117 88q8 27 8 105q0 61 -13 92
q-28 72 -105 72z" />
    <glyph glyph-name="pi" unicode="&#x3c0;" horiz-adv-x="529" 
d="M461 0h-82v424h-229v-424h-82v496h393v-496z" />
    <glyph glyph-name="rho" unicode="&#x3c1;" horiz-adv-x="513" 
d="M261 500q111 0 165 -82q36 -55 36 -174q0 -101 -33 -157q-54 -93 -171 -93q-68 0 -116 56l-2 -3v-247h-82v446q0 95 22 142q50 112 181 112zM259 426q-71 0 -104 -70q-15 -35 -17 -111q0 -75 15 -108q30 -68 101 -68q89 0 116 88q9 27 9 89q2 70 -14 108q-28 72 -106 72z
" />
    <glyph glyph-name="sigma1" unicode="&#x3c2;" horiz-adv-x="430" 
d="M396 372q-48 47 -108 47q-70 0 -109 -44.5t-39 -131.5q0 -55 20.5 -91.5t69.5 -56.5l114 -47q75 -31 75 -91q0 -54 -72 -137l-63 36q21 31 28 47q12 24 12 37q0 24 -45 42q-111 43 -146 68q-68 48 -77 145q-2 20 -2 42q0 131 65.5 197.5t158.5 66.5q103 0 171 -65z" />
    <glyph glyph-name="sigma" unicode="&#x3c3;" horiz-adv-x="507" 
d="M393 424v-3q56 -41 56 -177q0 -123 -54 -186.5t-150 -63.5q-201 0 -201 250q0 117 52 184.5t152 67.5h232v-73zM247 418q-60 0 -90.5 -46.5t-30.5 -125.5q0 -83 30.5 -129t90.5 -46q56 0 87.5 44t31.5 128q0 85 -31.5 130t-87.5 45z" />
    <glyph glyph-name="tau" unicode="&#x3c4;" horiz-adv-x="367" 
d="M342 423h-129v-287q0 -60 49 -60h55v-76h-71q-52 0 -83.5 30.5t-31.5 85.5v307h-114v73h325v-73z" />
    <glyph glyph-name="upsilon" unicode="&#x3c5;" horiz-adv-x="529" 
d="M462 496v-323q0 -79 -55.5 -129t-142.5 -50t-141.5 50t-54.5 129v323h82v-298q0 -56 32.5 -90.5t82.5 -34.5t82.5 34.5t32.5 90.5v298h82z" />
    <glyph glyph-name="phi" unicode="&#x3c6;" horiz-adv-x="599" 
d="M340 426v-357q43 0 79.5 22.5t49.5 65.5q7 24 7 92q0 71 -15 108q-14 34 -48 51.5t-73 17.5zM257 -199v193q-126 4 -175 75q-40 59 -40 177q0 205 141 245l24 -71q-27 -10 -44.5 -27.5t-25.5 -42.5t-10.5 -48.5t-2.5 -56.5q0 -72 16 -108q15 -32 47.5 -50.5t69.5 -18.5
v433h88q55 0 102.5 -20.5t72.5 -59.5q39 -60 39 -174q0 -104 -33 -160q-49 -85 -186 -93v-193h-83z" />
    <glyph glyph-name="chi" unicode="&#x3c7;" horiz-adv-x="463" 
d="M448 0h-99l-117 193l-117 -193h-99l169 254l-161 242h98l110 -186l110 186h99l-162 -243z" />
    <glyph glyph-name="psi" unicode="&#x3c8;" horiz-adv-x="625" 
d="M563 180q0 -81 -61 -131t-149 -55v-193h-82v193q-87 5 -146.5 55t-59.5 127v320h82v-296q0 -57 34 -91.5t90 -36.5v443h82v-443q57 2 92.5 36.5t35.5 91.5v296h82v-316z" />
    <glyph glyph-name="omega" unicode="&#x3c9;" horiz-adv-x="752" 
d="M528 423l12 77q173 -11 173 -253q0 -252 -189 -252q-92 0 -146 74q-62 -75 -145 -75q-189 0 -189 252q0 243 178 254l9 -77q-103 -11 -103 -178q0 -80 25.5 -126.5t77.5 -46.5q49 0 76 33t27 90v185h82v-185q0 -56 29 -89t81 -33t77.5 46.5t25.5 126.5q0 164 -101 177z
" />
    <glyph glyph-name="iotadieresis" unicode="&#x3ca;" horiz-adv-x="225" 
d="M195 70l-2 -70q-10 -1 -21 -1q-59 0 -81.5 25t-22.5 87v383h82v-379q0 -30 8 -37.5t37 -7.5zM235 597h-88v88h88v-88zM55 597h-88v88h88v-88z" />
    <glyph glyph-name="upsilondieresis" unicode="&#x3cb;" horiz-adv-x="529" 
d="M462 496v-323q0 -79 -55.5 -129t-142.5 -50t-141.5 50t-54.5 129v323h82v-298q0 -56 32.5 -90.5t82.5 -34.5t82.5 34.5t32.5 90.5v298h82zM396 597h-88v88h88v-88zM216 597h-88v88h88v-88z" />
    <glyph glyph-name="omicrontonos" unicode="&#x3cc;" horiz-adv-x="514" 
d="M263 500q111 0 164 -83q34 -53 34 -152q0 -127 -31 -180q-25 -43 -72 -67t-106 -24q-113 0 -164 75q-37 56 -37 177q0 91 25 142q25 53 74 82.5t113 29.5zM260 426q-77 0 -109 -70q-16 -35 -18 -111q0 -75 15 -108q30 -68 105 -68q90 0 117 88q8 27 8 105q0 61 -13 92
q-28 72 -105 72zM260 551l-53 20l72 177l81 -25z" />
    <glyph glyph-name="upsilontonos" unicode="&#x3cd;" horiz-adv-x="529" 
d="M462 496v-323q0 -79 -55.5 -129t-142.5 -50t-141.5 50t-54.5 129v323h82v-298q0 -56 32.5 -90.5t82.5 -34.5t82.5 34.5t32.5 90.5v298h82zM266 551l-53 20l72 177l81 -25z" />
    <glyph glyph-name="omegatonos" unicode="&#x3ce;" horiz-adv-x="752" 
d="M528 423l12 77q173 -11 173 -253q0 -252 -189 -252q-92 0 -146 74q-62 -75 -145 -75q-189 0 -189 252q0 243 178 254l9 -77q-103 -11 -103 -178q0 -80 25.5 -126.5t77.5 -46.5q49 0 76 33t27 90v185h82v-185q0 -56 29 -89t81 -33t77.5 46.5t25.5 126.5q0 164 -101 177z
M383 551l-53 20l72 177l81 -25z" />
    <glyph glyph-name="afii10023" unicode="&#x401;" horiz-adv-x="543" 
d="M516 0h-440v696h440v-81h-352v-225h300v-77h-300v-232h352v-81zM432 770h-88v88h88v-88zM252 770h-88v88h88v-88z" />
    <glyph glyph-name="afii10051" unicode="&#x402;" horiz-adv-x="706" 
d="M287 408h2q66 61 166 61q88 0 150 -58.5t62 -175.5q0 -114 -59.5 -185t-177.5 -71q-10 0 -34 2v71h18q164 0 164 175q0 79 -39.5 119.5t-99.5 40.5q-83 0 -152 -71v-316h-88v619h-198v77h549v-77h-263v-211z" />
    <glyph glyph-name="afii10052" unicode="&#x403;" horiz-adv-x="524" 
d="M516 615h-352v-615h-88v696h440v-81zM256 738l-37 42l148 122l59 -61z" />
    <glyph glyph-name="afii10053" unicode="&#x404;" horiz-adv-x="543" 
d="M446 182l82 -40q-26 -70 -86 -109t-143 -39q-119 0 -183 73.5t-64 184.5v192q0 109 64 183t183 74q82 0 141 -39.5t87 -107.5l-82 -37q-18 46 -55.5 72.5t-89.5 26.5q-77 0 -119 -52t-42 -124v-50h240v-77h-240v-54q0 -75 42 -128t119 -53q52 0 90 28t56 76z" />
    <glyph glyph-name="afii10054" unicode="&#x405;" horiz-adv-x="544" 
d="M519 198q0 -94 -69 -149t-181 -55q-69 0 -142 25t-125 70l56 71q85 -82 215 -82q70 0 112.5 30t42.5 91q0 53 -40 76t-121 39q-30 6 -42 8.5t-38.5 9t-39 13t-33 17t-30.5 23.5t-21.5 30.5t-16 40.5t-4.5 51q0 92 66.5 144t164.5 52q139 0 223 -67l-49 -75
q-84 56 -174 56q-69 0 -106.5 -29t-37.5 -81q0 -51 44 -74t151 -44q34 -7 55.5 -13t50.5 -20t46 -33t30 -51t13 -74z" />
    <glyph glyph-name="afii10055" unicode="&#x406;" horiz-adv-x="241" 
d="M164 0h-88v696h88v-696z" />
    <glyph glyph-name="afii10056" unicode="&#x407;" horiz-adv-x="241" 
d="M164 0h-88v696h88v-696zM254 776h-88v88h88v-88zM74 776h-88v88h88v-88z" />
    <glyph glyph-name="afii10057" unicode="&#x408;" horiz-adv-x="467" 
d="M399 696v-474q0 -120 -58 -174t-155 -54q-108 0 -172 72l58 65q20 -20 52.5 -37t58.5 -17q58 0 93 31.5t35 114.5v473h88z" />
    <glyph glyph-name="afii10058" unicode="&#x409;" horiz-adv-x="916" 
d="M415 0v619h-184v-331q0 -80 -14.5 -136.5t-43 -89.5t-61.5 -49.5t-79 -25.5l-23 74q32 12 45.5 18t35 22.5t30.5 38.5t16.5 60.5t7.5 92.5v403h358v-301h181q98 0 157 -57t59 -134q0 -98 -68 -151t-162 -53h-255zM808 202q0 47 -34.5 81.5t-97.5 34.5h-173v-237h169
q60 0 98 32.5t38 88.5z" />
    <glyph glyph-name="afii10059" unicode="&#x40a;" horiz-adv-x="937" 
d="M693 0h-257v314h-272v-314h-88v696h88v-301h272v301h88v-301h170q102 0 164.5 -54t62.5 -139q0 -100 -66.5 -151t-161.5 -51zM829 199q0 47 -36.5 81t-99.5 34h-169v-233h169q61 0 98.5 30t37.5 88z" />
    <glyph glyph-name="afii10060" unicode="&#x40b;" horiz-adv-x="727" 
d="M468 472q84 0 138 -45.5t54 -132.5v-294h-87v263q0 64 -28.5 96t-94.5 32q-79 0 -163 -69v-322h-88v619h-198v77h549v-77h-263v-209h2q83 62 179 62z" />
    <glyph glyph-name="afii10061" unicode="&#x40c;" horiz-adv-x="578" 
d="M159 0h-88v694h88v-302h113q42 0 75 20.5t52 81.5l64 200h87l-63 -203q-34 -109 -99 -131q41 -13 66 -47t41 -90l67 -223h-95l-61 209q-19 64 -50.5 86t-78.5 22h-118v-317zM259 738l-37 42l148 122l59 -61z" />
    <glyph glyph-name="afii10062" unicode="&#x40e;" horiz-adv-x="547" 
d="M536 697l-217 -580q-28 -75 -64 -101.5t-90 -26.5h-57v82h39q28 0 46.5 11t33.5 43l8 23l-208 547h95l89 -252l73 -191h4l68 192l89 253h91zM145 844h73q2 -23 21.5 -43t49.5 -20q33 0 52.5 20t19.5 43h71q-5 -51 -37.5 -90t-105.5 -39q-74 0 -108.5 40t-35.5 89z" />
    <glyph glyph-name="afii10145" unicode="&#x40f;" horiz-adv-x="636" 
d="M472 696h88v-696h-194v-163h-96v163h-194v696h88v-615h308v615z" />
    <glyph glyph-name="afii10017" unicode="&#x410;" horiz-adv-x="598" 
d="M592 0h-93l-56 160h-289l-56 -160h-92l255 696h76zM418 236l-67 195l-51 148h-3l-49 -144l-69 -199h239z" />
    <glyph glyph-name="afii10018" unicode="&#x411;" horiz-adv-x="596" 
d="M333 0h-257v696h421v-81h-333v-220h170q105 0 166 -53.5t61 -139.5q0 -100 -66.5 -151t-161.5 -51zM469 199q0 48 -35 81.5t-101 33.5h-169v-233h169q61 0 98.5 30t37.5 88z" />
    <glyph glyph-name="afii10019" unicode="&#x412;" horiz-adv-x="598" 
d="M560 193q0 -86 -56 -139.5t-136 -53.5h-292v696h263q99 0 152 -49.5t53 -132.5q0 -47 -26 -90t-79 -62v-3q57 -13 89 -61.5t32 -104.5zM328 619h-164v-225h164q61 0 94.5 31.5t33.5 81.5q0 49 -33.5 80.5t-94.5 31.5zM343 318h-179v-237h179q62 0 95.5 34.5t33.5 84.5
t-33 84t-96 34z" />
    <glyph glyph-name="afii10020" unicode="&#x413;" horiz-adv-x="524" 
d="M516 615h-352v-615h-88v696h440v-81z" />
    <glyph glyph-name="afii10021" unicode="&#x414;" horiz-adv-x="708" 
d="M20 66l54 12q54 36 69 99.5t21 225.5l9 293h445l1 -619h64v-226h-86v149h-490v-149h-87v215zM530 619h-276l-7 -212q-4 -101 -7 -147.5t-15 -99.5t-34 -83h339v542z" />
    <glyph glyph-name="afii10022" unicode="&#x415;" horiz-adv-x="543" 
d="M516 0h-440v696h440v-81h-352v-225h300v-77h-300v-232h352v-81z" />
    <glyph glyph-name="afii10024" unicode="&#x416;" horiz-adv-x="905" 
d="M408 392v305h89v-305h98q27 0 47.5 5.5t43.5 29.5t36 67l64 200h87l-63 -203q-30 -107 -99 -131q41 -13 66 -47t41 -90l67 -223h-95l-61 209q-20 64 -51.5 86t-77.5 22h-103v-317h-89v317h-103q-46 0 -77.5 -22t-51.5 -86l-61 -209h-95l67 223q16 56 41 90t66 47
q-69 24 -99 131l-63 203h87l64 -200q13 -43 36 -67t43.5 -29.5t47.5 -5.5h98z" />
    <glyph glyph-name="afii10025" unicode="&#x417;" horiz-adv-x="554" 
d="M258 -5q-89 0 -155 39t-92 108l82 40q17 -46 65.5 -76.5t102.5 -30.5q71 0 114 34.5t43 93.5q0 60 -35.5 94t-101.5 34h-74v78h72q58 0 93.5 30t35.5 79q0 44 -37 71t-97 27q-54 0 -98 -26.5t-66 -72.5l-82 37q27 68 91.5 107t153.5 39q111 0 168 -49.5t57 -128.5
q0 -43 -25.5 -87t-74.5 -62v-5q43 -14 69.5 -45t34.5 -59.5t8 -59.5q0 -91 -68.5 -150t-183.5 -59z" />
    <glyph glyph-name="afii10026" unicode="&#x418;" horiz-adv-x="673" 
d="M161 0h-86v696h87v-548l3 -2l359 550h74v-696h-88v523l-3 1z" />
    <glyph glyph-name="afii10027" unicode="&#x419;" horiz-adv-x="673" 
d="M190 848h73q2 -23 21.5 -43t49.5 -20q33 0 52.5 20t19.5 43h71q-5 -51 -37.5 -90t-105.5 -39q-74 0 -108.5 40t-35.5 89zM161 0h-86v696h87v-548l3 -2l359 550h74v-696h-88v523l-3 1z" />
    <glyph glyph-name="afii10028" unicode="&#x41a;" horiz-adv-x="578" 
d="M159 0h-88v694h88v-302h113q42 0 75 20.5t52 81.5l64 200h87l-63 -203q-34 -109 -99 -131q41 -13 66 -47t41 -90l67 -223h-95l-61 209q-19 64 -50.5 86t-78.5 22h-118v-317z" />
    <glyph glyph-name="afii10029" unicode="&#x41b;" horiz-adv-x="651" 
d="M483 0v619h-257v-331q0 -80 -14.5 -136.5t-43 -89.5t-61.5 -49.5t-79 -25.5l-23 74q31 11 45.5 18t35.5 23.5t30 38.5t16.5 60.5t7.5 91.5v403h431v-696h-88z" />
    <glyph glyph-name="afii10030" unicode="&#x41c;" horiz-adv-x="748" 
d="M683 0h-88v496l-3 -2l-54 -131l-120 -260h-77l-122 268l-52 125l-3 -2v-494h-88v696h88l147 -325l69 -162h3l69 161l145 326h86v-696z" />
    <glyph glyph-name="afii10031" unicode="&#x41d;" horiz-adv-x="636" 
d="M560 0h-88v313h-308v-313h-88v696h88v-306h308v306h88v-696z" />
    <glyph glyph-name="afii10032" unicode="&#x41e;" horiz-adv-x="595" 
d="M297 701q113 0 180.5 -72t67.5 -185v-192q0 -118 -67.5 -188t-180.5 -70q-119 0 -183 73.5t-64 184.5v192q0 109 64 183t183 74zM298 618q-77 0 -119 -52t-42 -124v-185q0 -75 42 -128t119 -53q72 0 115.5 51t43.5 130v185q0 75 -43.5 125.5t-115.5 50.5z" />
    <glyph glyph-name="afii10033" unicode="&#x41f;" horiz-adv-x="636" 
d="M560 0h-88v619h-308v-619h-88v696h484v-696z" />
    <glyph glyph-name="afii10034" unicode="&#x420;" horiz-adv-x="572" 
d="M561 485q0 -79 -59.5 -142t-156.5 -63h-181v-280h-88v696h255q96 0 163 -53t67 -158zM469 488q0 62 -37.5 94.5t-98.5 32.5h-169v-254h173q63 0 97.5 38.5t34.5 88.5z" />
    <glyph glyph-name="afii10035" unicode="&#x421;" horiz-adv-x="543" 
d="M446 182l82 -40q-26 -70 -86 -109t-143 -39q-119 0 -183 73.5t-64 184.5v192q0 109 64 183t183 74q82 0 141 -39.5t87 -107.5l-82 -37q-18 46 -55.5 72.5t-89.5 26.5q-77 0 -119 -52t-42 -124v-181q0 -75 42 -128t119 -53q52 0 90 28t56 76z" />
    <glyph glyph-name="afii10036" unicode="&#x422;" horiz-adv-x="486" 
d="M485 619h-198v-619h-88v619h-198v77h484v-77z" />
    <glyph glyph-name="afii10037" unicode="&#x423;" horiz-adv-x="547" 
d="M536 697l-217 -580q-28 -75 -64 -101.5t-90 -26.5h-57v82h39q28 0 46.5 11t33.5 43l8 23l-208 547h95l89 -252l73 -191h4l68 192l89 253h91z" />
    <glyph glyph-name="afii10038" unicode="&#x424;" horiz-adv-x="732" 
d="M692 355q0 -129 -74 -211t-210 -89v-55h-87v55q-133 8 -208 88.5t-75 211.5q0 130 74 214.5t209 93.5v33h87v-33q146 -7 215 -89.5t69 -218.5zM408 591v-462q94 1 146 65t52 161q0 104 -50 168.5t-148 67.5zM321 592q-98 -5 -147.5 -73t-49.5 -164t53 -157t144 -69v463z
" />
    <glyph glyph-name="afii10039" unicode="&#x425;" horiz-adv-x="523" 
d="M524 0h-98l-165 289l-164 -289h-98l214 357l-200 339h98l150 -271l151 271h98l-200 -339z" />
    <glyph glyph-name="afii10040" unicode="&#x426;" horiz-adv-x="660" 
d="M548 -149v149h-472v696h88v-615h308v615h88v-617h74v-228h-86z" />
    <glyph glyph-name="afii10041" unicode="&#x427;" horiz-adv-x="610" 
d="M55 696h87v-198q0 -74 38 -111t106 -37q91 0 160 59v287h88v-696h-88v325h-2q-80 -53 -178 -53t-154.5 59.5t-56.5 157.5v207z" />
    <glyph glyph-name="afii10042" unicode="&#x428;" horiz-adv-x="900" 
d="M742 696h88v-696h-760v696h88v-615h247v615h88v-615h249v615z" />
    <glyph glyph-name="afii10043" unicode="&#x429;" horiz-adv-x="928" 
d="M816 -149v149h-748v696h88v-615h247v615h88v-615h249v615h88v-617h74v-228h-86z" />
    <glyph glyph-name="afii10044" unicode="&#x42a;" horiz-adv-x="720" 
d="M710 202q0 -100 -66.5 -151t-161.5 -51h-257v615h-219v81h307v-301h170q102 0 164.5 -54t62.5 -139zM618 199q0 47 -36.5 81t-99.5 34h-169v-233h169q61 0 98.5 30t37.5 88z" />
    <glyph glyph-name="afii10045" unicode="&#x42b;" horiz-adv-x="794" 
d="M341 0h-257v696h88v-301h170q102 0 164.5 -54t62.5 -139q0 -100 -66.5 -151t-161.5 -51zM726 0h-88v696h88v-696zM477 199q0 47 -36.5 81t-99.5 34h-169v-233h169q61 0 98.5 30t37.5 88z" />
    <glyph glyph-name="afii10046" unicode="&#x42c;" horiz-adv-x="572" 
d="M333 0h-257v696h88v-301h170q102 0 164.5 -54t62.5 -139q0 -100 -66.5 -151t-161.5 -51zM469 199q0 47 -36.5 81t-99.5 34h-169v-233h169q61 0 98.5 30t37.5 88z" />
    <glyph glyph-name="afii10047" unicode="&#x42d;" horiz-adv-x="555" 
d="M167 323v77h241v40q0 75 -36.5 125.5t-115.5 50.5q-53 0 -93 -27t-58 -72l-82 37q27 68 89.5 107.5t145.5 39.5q65 0 112.5 -20.5t73.5 -57.5t38.5 -81t12.5 -98v-192q0 -111 -64 -184.5t-183 -73.5q-83 0 -143 39t-86 109l82 40q18 -48 56 -76t90 -28q85 0 123 51.5
t38 129.5v64h-241z" />
    <glyph glyph-name="afii10048" unicode="&#x42e;" horiz-adv-x="774" 
d="M491 701q117 0 175 -69t58 -186v-197q0 -117 -62 -186t-171 -69q-120 0 -176 73t-56 185v61h-96v-313h-88v696h88v-306h96v53q0 110 59.5 184t172.5 74zM492 618q-54 0 -88.5 -29.5t-46 -67t-11.5 -82.5v-182q0 -50 12.5 -88.5t46.5 -65.5t87 -27q75 0 109.5 49t34.5 132
v182q0 75 -34.5 127t-109.5 52z" />
    <glyph glyph-name="afii10049" unicode="&#x42f;" horiz-adv-x="608" 
d="M148 493q0 -56 39.5 -83t103.5 -27h154v236h-163q-62 0 -98 -34t-36 -92zM445 0v308h-124q-107 0 -143 -117l-55 -191h-95l57 201q16 54 37 83.5t58 43.5q-64 16 -92 63t-28 101q0 88 57 146t153 58h263v-696h-88z" />
    <glyph glyph-name="afii10065" unicode="&#x430;" horiz-adv-x="482" 
d="M232 501q200 0 200 -160v-341h-83v43l-1 1q-14 -22 -51 -36t-86 -14q-83 0 -129.5 41t-46.5 106q0 62 41 104t117 42h156v56q0 81 -114 81q-82 0 -118 -43l-52 55q56 65 167 65zM113 146q0 -36 27.5 -56.5t80.5 -20.5q128 0 128 92v58h-136q-48 0 -74 -19t-26 -54z" />
    <glyph glyph-name="afii10066" unicode="&#x431;" horiz-adv-x="514" 
d="M260 410q-67 0 -99 -54q-26 -44 -26 -117q0 -68 16 -104q31 -66 107 -66q89 0 115 88q7 24 7 83q0 63 -13 98q-15 36 -39 54t-68 18zM273 484q102 0 152 -75q38 -58 38 -171q0 -95 -33 -151q-54 -93 -174 -93q-112 0 -163 75q-22 33 -32.5 85.5t-9.5 151.5q2 102 12 150
q16 82 60 135.5t125 85.5q17 7 40.5 15.5t60.5 22t64 23.5l26 -62q-38 -17 -127 -51q-91 -35 -130 -77.5t-46 -123.5q1 0 2 -1q53 61 135 61z" />
    <glyph glyph-name="afii10067" unicode="&#x432;" horiz-adv-x="480" 
d="M452 146q0 -63 -46 -104.5t-112 -41.5h-236v496h214q80 0 124 -38.5t44 -98.5q0 -70 -69 -102q81 -27 81 -111zM275 221h-134v-145h134q46 0 70.5 20.5t24.5 50.5q0 31 -24.5 52.5t-70.5 21.5zM263 424h-122v-138h122q94 0 94 70q0 30 -24 49t-70 19z" />
    <glyph glyph-name="afii10068" unicode="&#x433;" horiz-adv-x="421" 
d="M417 424h-276v-424h-83v496h359v-72z" />
    <glyph glyph-name="afii10069" unicode="&#x434;" horiz-adv-x="561" 
d="M406 424h-193l-6 -136q-4 -92 -11 -137.5t-28 -77.5h238v351zM15 65l50 9q38 24 49 64.5t17 146.5l10 211h349v-423h51v-208h-81v135h-364v-135h-81v200z" />
    <glyph glyph-name="afii10070" unicode="&#x435;" horiz-adv-x="481" 
d="M444 220h-319v-8q0 -62 33.5 -102t94.5 -40q60 0 112 47l53 -59q-67 -64 -169 -64q-42 0 -76.5 11t-66 37.5t-49.5 78.5t-18 125q0 70 18.5 122t50 80t66 41t72.5 13q85 0 141.5 -59t56.5 -159v-64zM242 424q-51 0 -82 -35.5t-35 -99.5h233q-3 66 -34 100.5t-82 34.5z
" />
    <glyph glyph-name="afii10072" unicode="&#x436;" horiz-adv-x="715" 
d="M399 -1h-83v215h-77q-37 0 -59 -16t-37 -61l-39 -137h-84l49 161q12 42 29 66t49 32q-50 13 -73 93l-45 144h82l44 -143q13 -43 36.5 -57.5t58.5 -14.5h66v214h83v-214h66q35 0 58.5 14.5t36.5 57.5l44 143h82l-45 -144q-23 -80 -73 -93q32 -8 49 -32t29 -66l49 -161h-84
l-39 137q-15 45 -37 61t-59 16h-77v-215z" />
    <glyph glyph-name="afii10073" unicode="&#x437;" horiz-adv-x="453" 
d="M317 359q0 30 -25.5 47t-67.5 17q-95 0 -135 -41l-51 58q62 61 179 61q93 0 137 -37.5t44 -96.5q0 -30 -18 -60.5t-53 -45.5q82 -33 82 -111q0 -66 -51 -111t-147 -45q-131 0 -191 60l54 59q39 -42 135 -42q53 0 85 22.5t32 59.5q0 35 -29 54t-69 19h-76v67h76
q44 0 66.5 17.5t22.5 48.5z" />
    <glyph glyph-name="afii10074" unicode="&#x438;" horiz-adv-x="529" 
d="M142 135h5l69 101l184 260h69v-496h-84v352l-4 -1l-66 -95l-177 -256h-79v496h83v-361z" />
    <glyph glyph-name="afii10075" unicode="&#x439;" horiz-adv-x="529" 
d="M122 697h73q2 -23 21.5 -43t49.5 -20q33 0 52.5 20t19.5 43h71q-5 -51 -37.5 -90t-105.5 -39q-74 0 -108.5 40t-35.5 89zM142 135h5l69 101l184 260h69v-496h-84v352l-4 -1l-66 -95l-177 -256h-79v496h83v-361z" />
    <glyph glyph-name="afii10076" unicode="&#x43a;" horiz-adv-x="469" 
d="M133 0h-83v496h83v-215h86q35 0 58.5 14.5t36.5 57.5l44 143h82l-45 -144q-23 -80 -73 -93q32 -8 49 -32t29 -66l49 -161h-84l-39 137q-15 45 -37 61t-59 16h-97v-214z" />
    <glyph glyph-name="afii10077" unicode="&#x43b;" horiz-adv-x="526" 
d="M372 424h-180v-159q0 -75 -11 -127t-33.5 -82.5t-51 -45.5t-69.5 -23l-22 69q33 12 48.5 20.5t31.5 30.5t21.5 60.5t5.5 102.5v226h344v-496h-84v424z" />
    <glyph glyph-name="afii10078" unicode="&#x43c;" horiz-adv-x="609" 
d="M550 0h-83v319q-10 -22 -32 -64l-96 -184h-68l-99 189l-30 60v-320h-83v496h80l117 -235q10 -18 26 -53t25 -53q9 16 25 52.5t24 53.5l116 235h78v-496z" />
    <glyph glyph-name="afii10079" unicode="&#x43d;" horiz-adv-x="510" 
d="M452 0h-82v217h-229v-217h-83v496h83v-213h229v213h82v-496z" />
    <glyph glyph-name="afii10080" unicode="&#x43e;" horiz-adv-x="514" 
d="M263 500q111 0 164 -83q34 -53 34 -152q0 -127 -31 -180q-25 -43 -72 -67t-106 -24q-113 0 -164 75q-37 56 -37 177q0 91 25 142q25 53 74 82.5t113 29.5zM260 426q-77 0 -109 -70q-16 -35 -18 -111q0 -75 15 -108q30 -68 105 -68q90 0 117 88q8 27 8 105q0 61 -13 92
q-28 72 -105 72z" />
    <glyph glyph-name="afii10081" unicode="&#x43f;" horiz-adv-x="513" 
d="M453 0h-82v424h-229v-424h-82v496h393v-496z" />
    <glyph glyph-name="afii10082" unicode="&#x440;" horiz-adv-x="499" 
d="M56 496h82v-55l3 -1q53 61 135 61q177 0 177 -249q0 -258 -193 -258q-77 0 -120 50h-2v-242h-82v694zM138 247q0 -33 4 -59t14.5 -53.5t34 -43t59.5 -15.5q37 0 61.5 14.5t36 41.5t15.5 53.5t4 61.5q0 28 -1.5 48t-8 45.5t-18 41.5t-33 27t-51.5 11q-117 0 -117 -173z
" />
    <glyph glyph-name="afii10083" unicode="&#x441;" horiz-adv-x="431" 
d="M416 64q-70 -70 -163 -70q-95 0 -160 63t-65 190q0 128 65 191t160 63q91 0 162 -69l-53 -60q-45 50 -105 50q-71 0 -109 -44t-38 -131t38 -131t109 -44q58 0 105 51z" />
    <glyph glyph-name="afii10084" unicode="&#x442;" horiz-adv-x="396" 
d="M395 424h-156v-424h-83v424h-155v71h394v-71z" />
    <glyph glyph-name="afii10085" unicode="&#x443;" horiz-adv-x="438" 
d="M438 496l-213 -601q-20 -56 -52 -75.5t-79 -19.5h-42v72h41q44 0 62 56l27 82l-182 486h91l79 -225l51 -156h3l51 155l77 226h86z" />
    <glyph glyph-name="afii10086" unicode="&#x444;" horiz-adv-x="599" 
d="M340 727v-223q54 0 102 -23.5t74 -62.5q37 -57 37 -174q0 -101 -33 -157q-27 -47 -76 -72.5t-104 -25.5v-188h-83v188q-54 0 -102 21.5t-73 58.5q-40 59 -40 177q0 90 24 142q24 53 77 84.5t114 31.5v223h83zM340 425v-359q42 0 76 23.5t47 67.5q7 24 7 89q0 74 -14 108
q-14 35 -46 53t-70 18zM257 66v359q-38 0 -70.5 -18.5t-47.5 -50.5q-15 -35 -15 -111q0 -72 16 -108q15 -32 47.5 -51.5t69.5 -19.5z" />
    <glyph glyph-name="afii10087" unicode="&#x445;" horiz-adv-x="463" 
d="M448 0h-99l-117 193l-117 -193h-99l169 254l-161 242h98l110 -186l110 186h99l-162 -243z" />
    <glyph glyph-name="afii10088" unicode="&#x446;" horiz-adv-x="548" 
d="M454 496v-421h74v-210h-81v135h-387v496h84v-421h228v421h82z" />
    <glyph glyph-name="afii10089" unicode="&#x447;" horiz-adv-x="483" 
d="M35 497h82v-148q0 -53 24.5 -75t71.5 -22q26 0 65 10t67 30v205h82v-497h-82v215h-3q-64 -42 -141 -42q-78 0 -122 41.5t-44 129.5v153z" />
    <glyph glyph-name="afii10090" unicode="&#x448;" horiz-adv-x="772" 
d="M629 496h83v-496h-652v496h83v-420h201v420h82v-420h203v420z" />
    <glyph glyph-name="afii10091" unicode="&#x449;" horiz-adv-x="806" 
d="M705 -135v135h-645v496h84v-420h200v420h83v-420h202v420h83v-421h74v-210h-81z" />
    <glyph glyph-name="afii10092" unicode="&#x44a;" horiz-adv-x="584" 
d="M488 153q0 31 -22.5 52.5t-67.5 21.5l-137 1v-152h137q43 0 66.5 20t23.5 57zM262 496v-193h139q82 0 127 -42t45 -108q0 -70 -45.5 -111.5t-127.5 -41.5h-222v424h-171v72h255z" />
    <glyph glyph-name="afii10093" unicode="&#x44b;" horiz-adv-x="651" 
d="M591 0h-83v495h83v-495zM365 153q0 31 -22.5 52.5t-67.5 21.5l-137 1v-152h137q43 0 66.5 20t23.5 57zM139 496v-193h139q82 0 127 -42t45 -108q0 -70 -45.5 -111.5t-127.5 -41.5h-221v496h83z" />
    <glyph glyph-name="afii10094" unicode="&#x44c;" horiz-adv-x="459" 
d="M370 153q0 31 -22.5 52.5t-67.5 21.5l-137 1v-152h137q43 0 66.5 20t23.5 57zM144 496v-193h139q82 0 127 -42t45 -108q0 -70 -45.5 -111.5t-127.5 -41.5h-222l1 496h83z" />
    <glyph glyph-name="afii10095" unicode="&#x44d;" horiz-adv-x="446" 
d="M137 220v66h185q-2 65 -35 100.5t-94 35.5q-30 0 -63 -14t-53 -36l-53 60q71 69 173 69q91 0 150 -58t59 -180q0 -136 -65 -202.5t-162 -66.5q-96 0 -166 70l54 59q47 -51 105 -51q138 0 150 148h-185z" />
    <glyph glyph-name="afii10096" unicode="&#x44e;" horiz-adv-x="650" 
d="M60 0v495h82v-212h69q3 61 22 105q23 53 67.5 82.5t104.5 29.5q112 0 158 -77q35 -56 35 -179q0 -106 -30 -159q-50 -91 -165 -91q-106 0 -155 75q-34 51 -37 148h-69v-217h-82zM405 426q-68 0 -98 -70q-15 -36 -15 -111q0 -73 15 -108q30 -68 98 -68q81 0 104 86
q7 24 7 91q0 76 -13 111q-27 69 -98 69z" />
    <glyph glyph-name="afii10097" unicode="&#x44f;" horiz-adv-x="492" 
d="M46 342q0 65 43 109t111 44h236v-495h-82v205h-108q-87 -4 -104 -81l-27 -124h-86l32 134q9 35 25 56.5t51 33.5q-47 10 -69 42.5t-22 75.5zM128 344q0 -36 27 -54.5t71 -18.5h128v152h-141q-35 0 -60 -21t-25 -58z" />
    <glyph glyph-name="afii10071" unicode="&#x451;" horiz-adv-x="481" 
d="M444 220h-319v-8q0 -62 33.5 -102t94.5 -40q60 0 112 47l53 -59q-67 -64 -169 -64q-42 0 -76.5 11t-66 37.5t-49.5 78.5t-18 125q0 70 18.5 122t50 80t66 41t72.5 13q85 0 141.5 -59t56.5 -159v-64zM242 424q-51 0 -82 -35.5t-35 -99.5h233q-3 66 -34 100.5t-82 34.5z
M379 604h-88v88h88v-88zM199 604h-88v88h88v-88z" />
    <glyph glyph-name="afii10099" unicode="&#x452;" horiz-adv-x="549" 
d="M155 433h3q50 63 143 63q91 0 142 -62.5t51 -190.5q0 -109 -54 -180t-163 -71q-9 0 -32 3v73q11 -2 33 -2q66 0 99.5 49t33.5 125q0 181 -140 181q-43 0 -79.5 -37t-36.5 -108v-276h-81v572h-61v66h61v88h81v-88h228v-66h-228v-139z" />
    <glyph glyph-name="afii10100" unicode="&#x453;" horiz-adv-x="421" 
d="M235 551l-53 20l72 177l81 -25zM417 424h-276v-424h-83v496h359v-72z" />
    <glyph glyph-name="afii10101" unicode="&#x454;" horiz-adv-x="431" 
d="M416 64q-70 -70 -163 -70q-44 0 -83 14t-71.5 42t-51.5 77t-19 113q0 132 65 196.5t160 64.5q91 0 162 -69l-53 -60q-45 50 -105 50q-130 0 -145 -139h187v-66h-188q7 -72 44.5 -108.5t101.5 -36.5q58 0 105 51z" />
    <glyph glyph-name="afii10102" unicode="&#x455;" horiz-adv-x="457" 
d="M421 147q0 -69 -54.5 -111t-140.5 -42q-124 0 -207 72l50 63q70 -61 161 -61q48 0 78.5 20t30.5 57q0 35 -28 49.5t-86 20.5q-30 3 -49 6t-45.5 12.5t-42.5 22.5t-27.5 37.5t-11.5 56.5q0 68 53 109.5t128 41.5q106 0 177 -54l-44 -66q-66 44 -133 44q-47 0 -74 -20
t-27 -53q0 -32 32 -46.5t104 -21.5q29 -3 54.5 -10.5t49.5 -22.5t38 -41.5t14 -62.5z" />
    <glyph glyph-name="afii10103" unicode="&#x456;" horiz-adv-x="224" 
d="M153 614h-82v82h82v-82zM153 0h-82v496h82v-496z" />
    <glyph glyph-name="afii10104" unicode="&#x457;" horiz-adv-x="200" 
d="M226 597h-88v88h88v-88zM46 597h-88v88h88v-88zM144 0h-88v495h88v-495z" />
    <glyph glyph-name="afii10105" unicode="&#x458;" horiz-adv-x="243" 
d="M164 614h-83v82h83v-82zM164 496v-563q0 -62 -33 -98.5t-94 -36.5h-44v75h30q27 1 42.5 18t15.5 48v557h83z" />
    <glyph glyph-name="afii10106" unicode="&#x459;" horiz-adv-x="734" 
d="M411 496v-193h139q82 0 127 -42t45 -108q0 -70 -45.5 -111.5t-127.5 -41.5h-222v424h-123v-159q0 -75 -11 -126t-34 -81.5t-50.5 -46t-69.5 -24.5l-22 69q31 11 48 22t32 33.5t21 60.5t6 98v226h287zM637 153q0 31 -22.5 53t-67.5 22h-137v-152h137q43 0 66.5 20t23.5 57
z" />
    <glyph glyph-name="afii10107" unicode="&#x45a;" horiz-adv-x="752" 
d="M654 153q0 31 -22.5 52.5t-67.5 21.5l-137 1v-152h137q43 0 66.5 20t23.5 57zM344 496h84v-193h139q82 0 127 -42t45 -108q0 -70 -45.5 -111.5t-127.5 -41.5h-222v230h-200v-230h-83v496h83v-192h200v192z" />
    <glyph glyph-name="afii10108" unicode="&#x45b;" horiz-adv-x="521" 
d="M13 572v67h61v87h82v-87h216v-67h-216v-144h3q53 67 141 67q74 0 120.5 -44.5t46.5 -127.5v-323h-82v291q0 61 -25 92t-84 31q-51 0 -85.5 -33.5t-34.5 -89.5v-291h-82v572h-61z" />
    <glyph glyph-name="afii10109" unicode="&#x45c;" horiz-adv-x="469" 
d="M240 551l-53 20l72 177l81 -25zM133 0h-83v496h83v-215h86q35 0 58.5 14.5t36.5 57.5l44 143h82l-45 -144q-23 -80 -73 -93q32 -8 49 -32t29 -66l49 -161h-84l-39 137q-15 45 -37 61t-59 16h-97v-214z" />
    <glyph glyph-name="afii10110" unicode="&#x45e;" horiz-adv-x="438" 
d="M438 496l-213 -601q-20 -56 -52 -75.5t-79 -19.5h-42v72h41q44 0 62 56l27 82l-182 486h91l79 -225l51 -156h3l51 155l77 226h86zM77 697h73q2 -23 21.5 -43t49.5 -20q33 0 52.5 20t19.5 43h71q-5 -51 -37.5 -90t-105.5 -39q-74 0 -108.5 40t-35.5 89z" />
    <glyph glyph-name="afii10193" unicode="&#x45f;" horiz-adv-x="510" 
d="M370 495h82v-495h-152v-141h-92v141h-150v495h83v-419h229v419z" />
    <glyph glyph-name="afii10050" unicode="&#x490;" horiz-adv-x="524" 
d="M515 807l1 -192h-352v-615h-88v696h357v111h82z" />
    <glyph glyph-name="afii10098" unicode="&#x491;" horiz-adv-x="421" 
d="M417 595v-171h-276v-424h-83v496h282v99h77z" />
    <glyph glyph-name="schwacyrillic" unicode="&#x4d9;" horiz-adv-x="481" 
d="M40 276h319v8q0 62 -33.5 102t-94.5 40q-60 0 -112 -47l-53 59q67 64 169 64q42 0 76.5 -11t66 -37.5t49.5 -78.5t18 -125q0 -70 -18.5 -122t-50 -80t-66 -41t-72.5 -13q-85 0 -141.5 59t-56.5 159v64zM242 72q51 0 82 35.5t35 99.5h-233q3 -66 34 -100.5t82 -34.5z" />
    <glyph glyph-name="Wgrave" unicode="&#x1e80;" horiz-adv-x="823" 
d="M410 532l-4 -1l-45 -172l-97 -359h-77l-175 696h96l78 -341l42 -188l4 -1l46 187l95 343h72l98 -349l48 -182h3q6 27 18 88.5t18 90.5l80 352h96l-176 -696h-76l-94 346zM461 780l-37 -42l-170 103l59 61z" />
    <glyph glyph-name="wgrave" unicode="&#x1e81;" horiz-adv-x="719" 
d="M511 118h5q6 22 32 120l72 258h91l-159 -496h-78l-74 239l-43 138l-40 -137l-74 -240h-79l-158 496h90l75 -261l32 -111h4q5 19 16.5 56t15.5 52l82 264h76l80 -261zM397 571l-53 -20l-100 172l81 25z" />
    <glyph glyph-name="Wacute" unicode="&#x1e82;" horiz-adv-x="823" 
d="M410 532l-4 -1l-45 -172l-97 -359h-77l-175 696h96l78 -341l42 -188l4 -1l46 187l95 343h72l98 -349l48 -182h3q6 27 18 88.5t18 90.5l80 352h96l-176 -696h-76l-94 346zM414 738l-37 42l148 122l59 -61z" />
    <glyph glyph-name="wacute" unicode="&#x1e83;" horiz-adv-x="719" 
d="M511 118h5q6 22 32 120l72 258h91l-159 -496h-78l-74 239l-43 138l-40 -137l-74 -240h-79l-158 496h90l75 -261l32 -111h4q5 19 16.5 56t15.5 52l82 264h76l80 -261zM393 551l-53 20l72 177l81 -25z" />
    <glyph glyph-name="Wdieresis" unicode="&#x1e84;" horiz-adv-x="823" 
d="M410 532l-4 -1l-45 -172l-97 -359h-77l-175 696h96l78 -341l42 -188l4 -1l46 187l95 343h72l98 -349l48 -182h3q6 27 18 88.5t18 90.5l80 352h96l-176 -696h-76l-94 346zM363 770h-88v88h88v-88zM543 770h-88v88h88v-88z" />
    <glyph glyph-name="wdieresis" unicode="&#x1e85;" horiz-adv-x="719" 
d="M511 118h5q6 22 32 120l72 258h91l-159 -496h-78l-74 239l-43 138l-40 -137l-74 -240h-79l-158 496h90l75 -261l32 -111h4q5 19 16.5 56t15.5 52l82 264h76l80 -261zM310 597h-88v88h88v-88zM490 597h-88v88h88v-88z" />
    <glyph glyph-name="Ygrave" unicode="&#x1ef2;" horiz-adv-x="508" 
d="M504 696l-209 -420v-276h-84v276l-209 420h93l97 -193l62 -133l65 139l94 187h91zM330 780l-37 -42l-170 103l59 61z" />
    <glyph glyph-name="ygrave" unicode="&#x1ef3;" horiz-adv-x="438" 
d="M438 496l-213 -601q-20 -56 -52 -75.5t-79 -19.5h-42v72h41q44 0 62 56l27 82l-182 486h91l79 -225l51 -156h3l51 155l77 226h86zM269 571l-53 -20l-100 172l81 25z" />
    <glyph glyph-name="uni1F00" unicode="&#x1f00;" horiz-adv-x="505" 
d="M48 244q0 256 188 256q83 0 124 -60l2 1v54h82v-495h-82v55l-2 1q-57 -62 -135 -62q-177 0 -177 250zM133 247q0 -35 4 -61.5t15 -53.5t35.5 -41.5t60.5 -14.5q114 0 114 171q0 173 -114 173q-37 0 -61.5 -15.5t-35.5 -43.5t-14.5 -53.5t-3.5 -60.5zM274 551l-43 19
q26 36 26 70q0 47 -64 58l29 81q116 -22 116 -106q0 -25 -16 -59t-48 -63z" />
    <glyph glyph-name="uni1F01" unicode="&#x1f01;" horiz-adv-x="505" 
d="M48 244q0 256 188 256q83 0 124 -60l2 1v54h82v-495h-82v55l-2 1q-57 -62 -135 -62q-177 0 -177 250zM133 247q0 -35 4 -61.5t15 -53.5t35.5 -41.5t60.5 -14.5q114 0 114 171q0 173 -114 173q-37 0 -61.5 -15.5t-35.5 -43.5t-14.5 -53.5t-3.5 -60.5zM308 570l-43 -19
q-32 29 -48 63t-16 59q0 84 116 106l29 -81q-64 -11 -64 -58q0 -34 26 -70z" />
    <glyph glyph-name="uni1F02" unicode="&#x1f02;" horiz-adv-x="505" 
d="M48 244q0 256 188 256q83 0 124 -60l2 1v54h82v-495h-82v55l-2 1q-57 -62 -135 -62q-177 0 -177 250zM133 247q0 -35 4 -61.5t15 -53.5t35.5 -41.5t60.5 -14.5q114 0 114 171q0 173 -114 173q-37 0 -61.5 -15.5t-35.5 -43.5t-14.5 -53.5t-3.5 -60.5zM164 552l-43 19
q26 36 26 70q0 47 -64 58l29 81q116 -22 116 -106q0 -25 -16 -59t-48 -63zM375 554l-139 209l99 17l86 -210z" />
    <glyph glyph-name="uni1F03" unicode="&#x1f03;" horiz-adv-x="505" 
d="M48 244q0 256 188 256q83 0 124 -60l2 1v54h82v-495h-82v55l-2 1q-57 -62 -135 -62q-177 0 -177 250zM133 247q0 -35 4 -61.5t15 -53.5t35.5 -41.5t60.5 -14.5q114 0 114 171q0 173 -114 173q-37 0 -61.5 -15.5t-35.5 -43.5t-14.5 -53.5t-3.5 -60.5zM199 570l-43 -19
q-32 29 -48 63t-16 59q0 84 116 106l29 -81q-64 -11 -64 -58q0 -34 26 -70zM382 554l-139 209l99 17l86 -210z" />
    <glyph glyph-name="uni1F04" unicode="&#x1f04;" horiz-adv-x="505" 
d="M48 244q0 256 188 256q83 0 124 -60l2 1v54h82v-495h-82v55l-2 1q-57 -62 -135 -62q-177 0 -177 250zM133 247q0 -35 4 -61.5t15 -53.5t35.5 -41.5t60.5 -14.5q114 0 114 171q0 173 -114 173q-37 0 -61.5 -15.5t-35.5 -43.5t-14.5 -53.5t-3.5 -60.5zM158 550l-43 19
q26 36 26 70q0 47 -64 58l29 81q116 -22 116 -106q0 -25 -16 -59t-48 -63zM427 763l-139 -209l-46 16l90 210z" />
    <glyph glyph-name="uni1F05" unicode="&#x1f05;" horiz-adv-x="505" 
d="M48 244q0 256 188 256q83 0 124 -60l2 1v54h82v-495h-82v55l-2 1q-57 -62 -135 -62q-177 0 -177 250zM133 247q0 -35 4 -61.5t15 -53.5t35.5 -41.5t60.5 -14.5q114 0 114 171q0 173 -114 173q-37 0 -61.5 -15.5t-35.5 -43.5t-14.5 -53.5t-3.5 -60.5zM204 569l-43 -19
q-32 29 -48 63t-16 59q0 84 116 106l29 -81q-64 -11 -64 -58q0 -34 26 -70zM427 763l-139 -209l-46 16l90 210z" />
    <glyph glyph-name="uni1F06" unicode="&#x1f06;" horiz-adv-x="505" 
d="M48 244q0 256 188 256q83 0 124 -60l2 1v54h82v-495h-82v55l-2 1q-57 -62 -135 -62q-177 0 -177 250zM133 247q0 -35 4 -61.5t15 -53.5t35.5 -41.5t60.5 -14.5q114 0 114 171q0 173 -114 173q-37 0 -61.5 -15.5t-35.5 -43.5t-14.5 -53.5t-3.5 -60.5zM263 530l-41 15
q32 34 32 62q0 31 -60 40l28 65q106 -15 106 -77q0 -51 -65 -105zM197 845q26 0 72 -23.5t62 -23.5q31 0 61 45l52 -29q-42 -89 -107 -89q-25 0 -72 22.5t-65 22.5q-30 0 -63 -40l-48 26q20 42 49 65.5t59 23.5z" />
    <glyph glyph-name="uni1F07" unicode="&#x1f07;" horiz-adv-x="505" 
d="M48 244q0 256 188 256q83 0 124 -60l2 1v54h82v-495h-82v55l-2 1q-57 -62 -135 -62q-177 0 -177 250zM133 247q0 -35 4 -61.5t15 -53.5t35.5 -41.5t60.5 -14.5q114 0 114 171q0 173 -114 173q-37 0 -61.5 -15.5t-35.5 -43.5t-14.5 -53.5t-3.5 -60.5zM300 547l-41 -15
q-64 53 -64 105q0 62 105 77l28 -65q-59 -9 -59 -40q0 -29 31 -62zM205 849q26 0 72 -23.5t62 -23.5q31 0 61 45l52 -29q-42 -89 -107 -89q-25 0 -72 22.5t-65 22.5q-30 0 -63 -40l-48 26q20 42 49 65.5t59 23.5z" />
    <glyph glyph-name="uni1F08" unicode="&#x1f08;" horiz-adv-x="598" 
d="M592 0h-93l-56 160h-289l-56 -160h-92l255 696h76zM418 236l-67 195l-51 148h-3l-49 -144l-69 -199h239zM60 495l-43 19q26 36 26 70q0 47 -64 58l29 81q116 -22 116 -106q0 -25 -16 -59t-48 -63z" />
    <glyph glyph-name="uni1F09" unicode="&#x1f09;" horiz-adv-x="598" 
d="M592 0h-93l-56 160h-289l-56 -160h-92l255 696h76zM418 236l-67 195l-51 148h-3l-49 -144l-69 -199h239zM83 515l-43 -19q-32 29 -48 63t-16 59q0 84 116 106l29 -81q-64 -11 -64 -58q0 -34 26 -70z" />
    <glyph glyph-name="uni1F0A" unicode="&#x1f0a;" horiz-adv-x="598" 
d="M592 0h-93l-56 160h-289l-56 -160h-92l255 696h76zM418 236l-67 195l-51 148h-3l-49 -144l-69 -199h239zM-121 496l-43 19q26 36 26 70q0 47 -64 58l29 81q116 -22 116 -106q0 -25 -16 -59t-48 -63zM90 498l-139 209l99 17l86 -210z" />
    <glyph glyph-name="uni1F0B" unicode="&#x1f0b;" horiz-adv-x="598" 
d="M592 0h-93l-56 160h-289l-56 -160h-92l255 696h76zM418 236l-67 195l-51 148h-3l-49 -144l-69 -199h239zM-85 515l-43 -19q-32 29 -48 63t-16 59q0 84 116 106l29 -81q-64 -11 -64 -58q0 -34 26 -70zM98 499l-139 209l99 17l86 -210z" />
    <glyph glyph-name="uni1F0C" unicode="&#x1f0c;" horiz-adv-x="598" 
d="M592 0h-93l-56 160h-289l-56 -160h-92l255 696h76zM418 236l-67 195l-51 148h-3l-49 -144l-69 -199h239zM-127 493l-43 19q26 36 26 70q0 47 -64 58l29 81q116 -22 116 -106q0 -25 -16 -59t-48 -63zM142 706l-139 -209l-46 16l90 210z" />
    <glyph glyph-name="uni1F0D" unicode="&#x1f0d;" horiz-adv-x="598" 
d="M592 0h-93l-56 160h-289l-56 -160h-92l255 696h76zM418 236l-67 195l-51 148h-3l-49 -144l-69 -199h239zM-80 514l-43 -19q-32 29 -48 63t-16 59q0 84 116 106l29 -81q-64 -11 -64 -58q0 -34 26 -70zM143 708l-139 -209l-46 16l90 210z" />
    <glyph glyph-name="uni1F0E" unicode="&#x1f0e;" horiz-adv-x="598" 
d="M592 0h-93l-56 160h-289l-56 -160h-92l255 696h76zM418 236l-67 195l-51 148h-3l-49 -144l-69 -199h239zM-7 420l-41 15q32 34 32 62q0 31 -60 40l28 65q106 -15 106 -77q0 -51 -65 -105zM-73 735q26 0 72 -23.5t62 -23.5q31 0 61 45l52 -29q-42 -89 -107 -89
q-25 0 -72 22.5t-65 22.5q-30 0 -63 -40l-48 26q20 42 49 65.5t59 23.5z" />
    <glyph glyph-name="uni1F0F" unicode="&#x1f0f;" horiz-adv-x="598" 
d="M592 0h-93l-56 160h-289l-56 -160h-92l255 696h76zM418 236l-67 195l-51 148h-3l-49 -144l-69 -199h239zM30 438l-41 -15q-64 53 -64 105q0 62 105 77l28 -65q-59 -9 -59 -40q0 -29 31 -62zM-65 740q26 0 72 -23.5t62 -23.5q31 0 61 45l52 -29q-42 -89 -107 -89
q-25 0 -72 22.5t-65 22.5q-30 0 -63 -40l-48 26q20 42 49 65.5t59 23.5z" />
    <glyph glyph-name="uni1F10" unicode="&#x1f10;" horiz-adv-x="440" 
d="M127 259v2q-70 27 -70 98q0 59 47 100.5t133 41.5q109 0 174 -63l-51 -62q-18 19 -52.5 31.5t-66.5 12.5q-48 0 -75 -19.5t-27 -47.5q0 -25 19.5 -41t59.5 -16h84v-73h-81q-41 0 -66 -21t-25 -54t31 -54t84 -21q32 0 69 14.5t57 35.5l52 -59q-34 -31 -84 -49.5
t-101 -18.5q-86 0 -137.5 39t-51.5 107q0 31 18.5 66.5t59.5 50.5zM264 551l-43 19q26 36 26 70q0 47 -64 58l29 81q116 -22 116 -106q0 -25 -16 -59t-48 -63z" />
    <glyph glyph-name="uni1F11" unicode="&#x1f11;" horiz-adv-x="440" 
d="M127 259v2q-70 27 -70 98q0 59 47 100.5t133 41.5q109 0 174 -63l-51 -62q-18 19 -52.5 31.5t-66.5 12.5q-48 0 -75 -19.5t-27 -47.5q0 -25 19.5 -41t59.5 -16h84v-73h-81q-41 0 -66 -21t-25 -54t31 -54t84 -21q32 0 69 14.5t57 35.5l52 -59q-34 -31 -84 -49.5
t-101 -18.5q-86 0 -137.5 39t-51.5 107q0 31 18.5 66.5t59.5 50.5zM284 570l-43 -19q-32 29 -48 63t-16 59q0 84 116 106l29 -81q-64 -11 -64 -58q0 -34 26 -70z" />
    <glyph glyph-name="uni1F12" unicode="&#x1f12;" horiz-adv-x="440" 
d="M127 259v2q-70 27 -70 98q0 59 47 100.5t133 41.5q109 0 174 -63l-51 -62q-18 19 -52.5 31.5t-66.5 12.5q-48 0 -75 -19.5t-27 -47.5q0 -25 19.5 -41t59.5 -16h84v-73h-81q-41 0 -66 -21t-25 -54t31 -54t84 -21q32 0 69 14.5t57 35.5l52 -59q-34 -31 -84 -49.5
t-101 -18.5q-86 0 -137.5 39t-51.5 107q0 31 18.5 66.5t59.5 50.5zM130 552l-43 19q26 36 26 70q0 47 -64 58l29 81q116 -22 116 -106q0 -25 -16 -59t-48 -63zM341 554l-139 209l99 17l86 -210z" />
    <glyph glyph-name="uni1F13" unicode="&#x1f13;" horiz-adv-x="440" 
d="M127 259v2q-70 27 -70 98q0 59 47 100.5t133 41.5q109 0 174 -63l-51 -62q-18 19 -52.5 31.5t-66.5 12.5q-48 0 -75 -19.5t-27 -47.5q0 -25 19.5 -41t59.5 -16h84v-73h-81q-41 0 -66 -21t-25 -54t31 -54t84 -21q32 0 69 14.5t57 35.5l52 -59q-34 -31 -84 -49.5
t-101 -18.5q-86 0 -137.5 39t-51.5 107q0 31 18.5 66.5t59.5 50.5zM164 570l-43 -19q-32 29 -48 63t-16 59q0 84 116 106l29 -81q-64 -11 -64 -58q0 -34 26 -70zM347 554l-139 209l99 17l86 -210z" />
    <glyph glyph-name="uni1F14" unicode="&#x1f14;" horiz-adv-x="440" 
d="M127 259v2q-70 27 -70 98q0 59 47 100.5t133 41.5q109 0 174 -63l-51 -62q-18 19 -52.5 31.5t-66.5 12.5q-48 0 -75 -19.5t-27 -47.5q0 -25 19.5 -41t59.5 -16h84v-73h-81q-41 0 -66 -21t-25 -54t31 -54t84 -21q32 0 69 14.5t57 35.5l52 -59q-34 -31 -84 -49.5
t-101 -18.5q-86 0 -137.5 39t-51.5 107q0 31 18.5 66.5t59.5 50.5zM176 550l-43 19q26 36 26 70q0 47 -64 58l29 81q116 -22 116 -106q0 -25 -16 -59t-48 -63zM445 763l-139 -209l-46 16l90 210z" />
    <glyph glyph-name="uni1F15" unicode="&#x1f15;" horiz-adv-x="440" 
d="M127 259v2q-70 27 -70 98q0 59 47 100.5t133 41.5q109 0 174 -63l-51 -62q-18 19 -52.5 31.5t-66.5 12.5q-48 0 -75 -19.5t-27 -47.5q0 -25 19.5 -41t59.5 -16h84v-73h-81q-41 0 -66 -21t-25 -54t31 -54t84 -21q32 0 69 14.5t57 35.5l52 -59q-34 -31 -84 -49.5
t-101 -18.5q-86 0 -137.5 39t-51.5 107q0 31 18.5 66.5t59.5 50.5zM224 569l-43 -19q-32 29 -48 63t-16 59q0 84 116 106l29 -81q-64 -11 -64 -58q0 -34 26 -70zM447 763l-139 -209l-46 16l90 210z" />
    <glyph glyph-name="uni1F18" unicode="&#x1f18;" horiz-adv-x="543" 
d="M516 0h-440v696h440v-81h-352v-225h300v-77h-300v-232h352v-81zM-60 501l-43 19q26 36 26 70q0 47 -64 58l29 81q116 -22 116 -106q0 -25 -16 -59t-48 -63z" />
    <glyph glyph-name="uni1F19" unicode="&#x1f19;" horiz-adv-x="543" 
d="M516 0h-440v696h440v-81h-352v-225h300v-77h-300v-232h352v-81zM-37 520l-43 -19q-32 29 -48 63t-16 59q0 84 116 106l29 -81q-64 -11 -64 -58q0 -34 26 -70z" />
    <glyph glyph-name="uni1F1A" unicode="&#x1f1a;" horiz-adv-x="543" 
d="M516 0h-440v696h440v-81h-352v-225h300v-77h-300v-232h352v-81zM-230 502l-43 19q26 36 26 70q0 47 -64 58l29 81q116 -22 116 -106q0 -25 -16 -59t-48 -63zM-19 504l-139 209l99 17l86 -210z" />
    <glyph glyph-name="uni1F1B" unicode="&#x1f1b;" horiz-adv-x="543" 
d="M516 0h-440v696h440v-81h-352v-225h300v-77h-300v-232h352v-81zM-208 520l-43 -19q-32 29 -48 63t-16 59q0 84 116 106l29 -81q-64 -11 -64 -58q0 -34 26 -70zM-25 504l-139 209l99 17l86 -210z" />
    <glyph glyph-name="uni1F1C" unicode="&#x1f1c;" horiz-adv-x="543" 
d="M516 0h-440v696h440v-81h-352v-225h300v-77h-300v-232h352v-81zM-245 500l-43 19q26 36 26 70q0 47 -64 58l29 81q116 -22 116 -106q0 -25 -16 -59t-48 -63zM24 713l-139 -209l-46 16l90 210z" />
    <glyph glyph-name="uni1F1D" unicode="&#x1f1d;" horiz-adv-x="543" 
d="M516 0h-440v696h440v-81h-352v-225h300v-77h-300v-232h352v-81zM-200 519l-43 -19q-32 29 -48 63t-16 59q0 84 116 106l29 -81q-64 -11 -64 -58q0 -34 26 -70zM23 713l-139 -209l-46 16l90 210z" />
    <glyph glyph-name="uni1F20" unicode="&#x1f20;" horiz-adv-x="524" 
d="M458 0h-82v297q0 61 -25.5 92t-87.5 31q-51 0 -83.5 -33.5t-32.5 -89.5v-297h-82v497h82v-63h3q53 67 138 67q75 0 122.5 -44.5t47.5 -127.5v-329zM262 551l-43 19q26 36 26 70q0 47 -64 58l29 81q116 -22 116 -106q0 -25 -16 -59t-48 -63z" />
    <glyph glyph-name="uni1F21" unicode="&#x1f21;" horiz-adv-x="524" 
d="M458 0h-82v297q0 61 -25.5 92t-87.5 31q-51 0 -83.5 -33.5t-32.5 -89.5v-297h-82v497h82v-63h3q53 67 138 67q75 0 122.5 -44.5t47.5 -127.5v-329zM289 570l-43 -19q-32 29 -48 63t-16 59q0 84 116 106l29 -81q-64 -11 -64 -58q0 -34 26 -70z" />
    <glyph glyph-name="uni1F22" unicode="&#x1f22;" horiz-adv-x="524" 
d="M458 0h-82v297q0 61 -25.5 92t-87.5 31q-51 0 -83.5 -33.5t-32.5 -89.5v-297h-82v497h82v-63h3q53 67 138 67q75 0 122.5 -44.5t47.5 -127.5v-329zM153 552l-43 19q26 36 26 70q0 47 -64 58l29 81q116 -22 116 -106q0 -25 -16 -59t-48 -63zM364 554l-139 209l99 17
l86 -210z" />
    <glyph glyph-name="uni1F23" unicode="&#x1f23;" horiz-adv-x="524" 
d="M458 0h-82v297q0 61 -25.5 92t-87.5 31q-51 0 -83.5 -33.5t-32.5 -89.5v-297h-82v497h82v-63h3q53 67 138 67q75 0 122.5 -44.5t47.5 -127.5v-329zM192 570l-43 -19q-32 29 -48 63t-16 59q0 84 116 106l29 -81q-64 -11 -64 -58q0 -34 26 -70zM375 554l-139 209l99 17
l86 -210z" />
    <glyph glyph-name="uni1F24" unicode="&#x1f24;" horiz-adv-x="524" 
d="M458 0h-82v297q0 61 -25.5 92t-87.5 31q-51 0 -83.5 -33.5t-32.5 -89.5v-297h-82v497h82v-63h3q53 67 138 67q75 0 122.5 -44.5t47.5 -127.5v-329zM171 550l-43 19q26 36 26 70q0 47 -64 58l29 81q116 -22 116 -106q0 -25 -16 -59t-48 -63zM440 763l-139 -209l-46 16
l90 210z" />
    <glyph glyph-name="uni1F25" unicode="&#x1f25;" horiz-adv-x="524" 
d="M458 0h-82v297q0 61 -25.5 92t-87.5 31q-51 0 -83.5 -33.5t-32.5 -89.5v-297h-82v497h82v-63h3q53 67 138 67q75 0 122.5 -44.5t47.5 -127.5v-329zM217 569l-43 -19q-32 29 -48 63t-16 59q0 84 116 106l29 -81q-64 -11 -64 -58q0 -34 26 -70zM440 763l-139 -209l-46 16
l90 210z" />
    <glyph glyph-name="uni1F26" unicode="&#x1f26;" horiz-adv-x="524" 
d="M458 0h-82v297q0 61 -25.5 92t-87.5 31q-51 0 -83.5 -33.5t-32.5 -89.5v-297h-82v497h82v-63h3q53 67 138 67q75 0 122.5 -44.5t47.5 -127.5v-329zM241 530l-41 15q32 34 32 62q0 31 -60 40l28 65q106 -15 106 -77q0 -51 -65 -105zM175 845q26 0 72 -23.5t62 -23.5
q31 0 61 45l52 -29q-42 -89 -107 -89q-25 0 -72 22.5t-65 22.5q-30 0 -63 -40l-48 26q20 42 49 65.5t59 23.5z" />
    <glyph glyph-name="uni1F27" unicode="&#x1f27;" horiz-adv-x="524" 
d="M458 0h-82v297q0 61 -25.5 92t-87.5 31q-51 0 -83.5 -33.5t-32.5 -89.5v-297h-82v497h82v-63h3q53 67 138 67q75 0 122.5 -44.5t47.5 -127.5v-329zM276 546l-41 -15q-64 53 -64 105q0 62 105 77l28 -65q-59 -9 -59 -40q0 -29 31 -62zM181 848q26 0 72 -23.5t62 -23.5
q31 0 61 45l52 -29q-42 -89 -107 -89q-25 0 -72 22.5t-65 22.5q-30 0 -63 -40l-48 26q20 42 49 65.5t59 23.5z" />
    <glyph glyph-name="uni1F28" unicode="&#x1f28;" horiz-adv-x="636" 
d="M560 0h-88v313h-308v-313h-88v696h88v-306h308v306h88v-696zM-56 501l-43 19q26 36 26 70q0 47 -64 58l29 81q116 -22 116 -106q0 -25 -16 -59t-48 -63z" />
    <glyph glyph-name="uni1F29" unicode="&#x1f29;" horiz-adv-x="636" 
d="M560 0h-88v313h-308v-313h-88v696h88v-306h308v306h88v-696zM-33 520l-43 -19q-32 29 -48 63t-16 59q0 84 116 106l29 -81q-64 -11 -64 -58q0 -34 26 -70z" />
    <glyph glyph-name="uni1F2A" unicode="&#x1f2a;" horiz-adv-x="636" 
d="M560 0h-88v313h-308v-313h-88v696h88v-306h308v306h88v-696zM-253 502l-43 19q26 36 26 70q0 47 -64 58l29 81q116 -22 116 -106q0 -25 -16 -59t-48 -63zM-42 504l-139 209l99 17l86 -210z" />
    <glyph glyph-name="uni1F2B" unicode="&#x1f2b;" horiz-adv-x="636" 
d="M560 0h-88v313h-308v-313h-88v696h88v-306h308v306h88v-696zM-225 520l-43 -19q-32 29 -48 63t-16 59q0 84 116 106l29 -81q-64 -11 -64 -58q0 -34 26 -70zM-42 504l-139 209l99 17l86 -210z" />
    <glyph glyph-name="uni1F2C" unicode="&#x1f2c;" horiz-adv-x="636" 
d="M560 0h-88v313h-308v-313h-88v696h88v-306h308v306h88v-696zM-263 500l-43 19q26 36 26 70q0 47 -64 58l29 81q116 -22 116 -106q0 -25 -16 -59t-48 -63zM6 713l-139 -209l-46 16l90 210z" />
    <glyph glyph-name="uni1F2D" unicode="&#x1f2d;" horiz-adv-x="636" 
d="M560 0h-88v313h-308v-313h-88v696h88v-306h308v306h88v-696zM-210 519l-43 -19q-32 29 -48 63t-16 59q0 84 116 106l29 -81q-64 -11 -64 -58q0 -34 26 -70zM13 713l-139 -209l-46 16l90 210z" />
    <glyph glyph-name="uni1F2E" unicode="&#x1f2e;" horiz-adv-x="636" 
d="M560 0h-88v313h-308v-313h-88v696h88v-306h308v306h88v-696zM-159 421l-41 15q32 34 32 62q0 31 -60 40l28 65q106 -15 106 -77q0 -51 -65 -105zM-225 736q26 0 72 -23.5t62 -23.5q31 0 61 45l52 -29q-42 -89 -107 -89q-25 0 -72 22.5t-65 22.5q-30 0 -63 -40l-48 26
q20 42 49 65.5t59 23.5z" />
    <glyph glyph-name="uni1F2F" unicode="&#x1f2f;" horiz-adv-x="636" 
d="M560 0h-88v313h-308v-313h-88v696h88v-306h308v306h88v-696zM-134 438l-41 -15q-64 53 -64 105q0 62 105 77l28 -65q-59 -9 -59 -40q0 -29 31 -62zM-229 740q26 0 72 -23.5t62 -23.5q31 0 61 45l52 -29q-42 -89 -107 -89q-25 0 -72 22.5t-65 22.5q-30 0 -63 -40l-48 26
q20 42 49 65.5t59 23.5z" />
    <glyph glyph-name="uni1F30" unicode="&#x1f30;" horiz-adv-x="225" 
d="M195 70l-2 -70q-10 -1 -21 -1q-59 0 -81.5 25t-22.5 87v383h82v-379q0 -30 8 -37.5t37 -7.5zM124 551l-43 19q26 36 26 70q0 47 -64 58l29 81q116 -22 116 -106q0 -25 -16 -59t-48 -63z" />
    <glyph glyph-name="uni1F31" unicode="&#x1f31;" horiz-adv-x="225" 
d="M195 70l-2 -70q-10 -1 -21 -1q-59 0 -81.5 25t-22.5 87v383h82v-379q0 -30 8 -37.5t37 -7.5zM148 570l-43 -19q-32 29 -48 63t-16 59q0 84 116 106l29 -81q-64 -11 -64 -58q0 -34 26 -70z" />
    <glyph glyph-name="uni1F32" unicode="&#x1f32;" horiz-adv-x="225" 
d="M195 70l-2 -70q-10 -1 -21 -1q-59 0 -81.5 25t-22.5 87v383h82v-379q0 -30 8 -37.5t37 -7.5zM16 552l-43 19q26 36 26 70q0 47 -64 58l29 81q116 -22 116 -106q0 -25 -16 -59t-48 -63zM227 554l-139 209l99 17l86 -210z" />
    <glyph glyph-name="uni1F33" unicode="&#x1f33;" horiz-adv-x="225" 
d="M195 70l-2 -70q-10 -1 -21 -1q-59 0 -81.5 25t-22.5 87v383h82v-379q0 -30 8 -37.5t37 -7.5zM48 572l-43 -19q-32 29 -48 63t-16 59q0 84 116 106l29 -81q-64 -11 -64 -58q0 -34 26 -70zM231 556l-139 209l99 17l86 -210z" />
    <glyph glyph-name="uni1F34" unicode="&#x1f34;" horiz-adv-x="225" 
d="M195 70l-2 -70q-10 -1 -21 -1q-59 0 -81.5 25t-22.5 87v383h82v-379q0 -30 8 -37.5t37 -7.5zM61 550l-43 19q26 36 26 70q0 47 -64 58l29 81q116 -22 116 -106q0 -25 -16 -59t-48 -63zM330 763l-139 -209l-46 16l90 210z" />
    <glyph glyph-name="uni1F35" unicode="&#x1f35;" horiz-adv-x="225" 
d="M195 70l-2 -70q-10 -1 -21 -1q-59 0 -81.5 25t-22.5 87v383h82v-379q0 -30 8 -37.5t37 -7.5zM98 569l-43 -19q-32 29 -48 63t-16 59q0 84 116 106l29 -81q-64 -11 -64 -58q0 -34 26 -70zM321 763l-139 -209l-46 16l90 210z" />
    <glyph glyph-name="uni1F36" unicode="&#x1f36;" horiz-adv-x="225" 
d="M195 70l-2 -70q-10 -1 -21 -1q-59 0 -81.5 25t-22.5 87v383h82v-379q0 -30 8 -37.5t37 -7.5zM119 530l-41 15q32 34 32 62q0 31 -60 40l28 65q106 -15 106 -77q0 -51 -65 -105zM53 845q26 0 72 -23.5t62 -23.5q31 0 61 45l52 -29q-42 -89 -107 -89q-25 0 -72 22.5
t-65 22.5q-30 0 -63 -40l-48 26q20 42 49 65.5t59 23.5z" />
    <glyph glyph-name="uni1F37" unicode="&#x1f37;" horiz-adv-x="225" 
d="M195 70l-2 -70q-10 -1 -21 -1q-59 0 -81.5 25t-22.5 87v383h82v-379q0 -30 8 -37.5t37 -7.5zM147 547l-41 -15q-64 53 -64 105q0 62 105 77l28 -65q-59 -9 -59 -40q0 -29 31 -62zM52 849q26 0 72 -23.5t62 -23.5q31 0 61 45l52 -29q-42 -89 -107 -89q-25 0 -72 22.5
t-65 22.5q-30 0 -63 -40l-48 26q20 42 49 65.5t59 23.5z" />
    <glyph glyph-name="uni1F38" unicode="&#x1f38;" horiz-adv-x="241" 
d="M164 0h-88v696h88v-696zM-61 501l-43 19q26 36 26 70q0 47 -64 58l29 81q116 -22 116 -106q0 -25 -16 -59t-48 -63z" />
    <glyph glyph-name="uni1F39" unicode="&#x1f39;" horiz-adv-x="241" 
d="M164 0h-88v696h88v-696zM-34 520l-43 -19q-32 29 -48 63t-16 59q0 84 116 106l29 -81q-64 -11 -64 -58q0 -34 26 -70z" />
    <glyph glyph-name="uni1F3A" unicode="&#x1f3a;" horiz-adv-x="241" 
d="M164 0h-88v696h88v-696zM-222 502l-43 19q26 36 26 70q0 47 -64 58l29 81q116 -22 116 -106q0 -25 -16 -59t-48 -63zM-11 504l-139 209l99 17l86 -210z" />
    <glyph glyph-name="uni1F3B" unicode="&#x1f3b;" horiz-adv-x="241" 
d="M164 0h-88v696h88v-696zM-192 520l-43 -19q-32 29 -48 63t-16 59q0 84 116 106l29 -81q-64 -11 -64 -58q0 -34 26 -70zM-9 504l-139 209l99 17l86 -210z" />
    <glyph glyph-name="uni1F3C" unicode="&#x1f3c;" horiz-adv-x="241" 
d="M164 0h-88v696h88v-696zM-223 500l-43 19q26 36 26 70q0 47 -64 58l29 81q116 -22 116 -106q0 -25 -16 -59t-48 -63zM46 713l-139 -209l-46 16l90 210z" />
    <glyph glyph-name="uni1F3D" unicode="&#x1f3d;" horiz-adv-x="241" 
d="M164 0h-88v696h88v-696zM-178 519l-43 -19q-32 29 -48 63t-16 59q0 84 116 106l29 -81q-64 -11 -64 -58q0 -34 26 -70zM45 713l-139 -209l-46 16l90 210z" />
    <glyph glyph-name="uni1F3E" unicode="&#x1f3e;" horiz-adv-x="241" 
d="M164 0h-88v696h88v-696zM-149 420l-41 15q32 34 32 62q0 31 -60 40l28 65q106 -15 106 -77q0 -51 -65 -105zM-215 735q26 0 72 -23.5t62 -23.5q31 0 61 45l52 -29q-42 -89 -107 -89q-25 0 -72 22.5t-65 22.5q-30 0 -63 -40l-48 26q20 42 49 65.5t59 23.5z" />
    <glyph glyph-name="uni1F3F" unicode="&#x1f3f;" horiz-adv-x="241" 
d="M164 0h-88v696h88v-696zM-120 437l-41 -15q-64 53 -64 105q0 62 105 77l28 -65q-59 -9 -59 -40q0 -29 31 -62zM-215 739q26 0 72 -23.5t62 -23.5q31 0 61 45l52 -29q-42 -89 -107 -89q-25 0 -72 22.5t-65 22.5q-30 0 -63 -40l-48 26q20 42 49 65.5t59 23.5z" />
    <glyph glyph-name="uni1F40" unicode="&#x1f40;" horiz-adv-x="514" 
d="M263 500q111 0 164 -83q34 -53 34 -152q0 -127 -31 -180q-25 -43 -72 -67t-106 -24q-113 0 -164 75q-37 56 -37 177q0 91 25 142q25 53 74 82.5t113 29.5zM260 426q-77 0 -109 -70q-16 -35 -18 -111q0 -75 15 -108q30 -68 105 -68q90 0 117 88q8 27 8 105q0 61 -13 92
q-28 72 -105 72zM267 551l-43 19q26 36 26 70q0 47 -64 58l29 81q116 -22 116 -106q0 -25 -16 -59t-48 -63z" />
    <glyph glyph-name="uni1F41" unicode="&#x1f41;" horiz-adv-x="514" 
d="M263 500q111 0 164 -83q34 -53 34 -152q0 -127 -31 -180q-25 -43 -72 -67t-106 -24q-113 0 -164 75q-37 56 -37 177q0 91 25 142q25 53 74 82.5t113 29.5zM260 426q-77 0 -109 -70q-16 -35 -18 -111q0 -75 15 -108q30 -68 105 -68q90 0 117 88q8 27 8 105q0 61 -13 92
q-28 72 -105 72zM298 570l-43 -19q-32 29 -48 63t-16 59q0 84 116 106l29 -81q-64 -11 -64 -58q0 -34 26 -70z" />
    <glyph glyph-name="uni1F42" unicode="&#x1f42;" horiz-adv-x="514" 
d="M263 500q111 0 164 -83q34 -53 34 -152q0 -127 -31 -180q-25 -43 -72 -67t-106 -24q-113 0 -164 75q-37 56 -37 177q0 91 25 142q25 53 74 82.5t113 29.5zM260 426q-77 0 -109 -70q-16 -35 -18 -111q0 -75 15 -108q30 -68 105 -68q90 0 117 88q8 27 8 105q0 61 -13 92
q-28 72 -105 72zM149 552l-43 19q26 36 26 70q0 47 -64 58l29 81q116 -22 116 -106q0 -25 -16 -59t-48 -63zM360 554l-139 209l99 17l86 -210z" />
    <glyph glyph-name="uni1F43" unicode="&#x1f43;" horiz-adv-x="514" 
d="M263 500q111 0 164 -83q34 -53 34 -152q0 -127 -31 -180q-25 -43 -72 -67t-106 -24q-113 0 -164 75q-37 56 -37 177q0 91 25 142q25 53 74 82.5t113 29.5zM260 426q-77 0 -109 -70q-16 -35 -18 -111q0 -75 15 -108q30 -68 105 -68q90 0 117 88q8 27 8 105q0 61 -13 92
q-28 72 -105 72zM195 570l-43 -19q-32 29 -48 63t-16 59q0 84 116 106l29 -81q-64 -11 -64 -58q0 -34 26 -70zM378 554l-139 209l99 17l86 -210z" />
    <glyph glyph-name="uni1F44" unicode="&#x1f44;" horiz-adv-x="514" 
d="M263 500q111 0 164 -83q34 -53 34 -152q0 -127 -31 -180q-25 -43 -72 -67t-106 -24q-113 0 -164 75q-37 56 -37 177q0 91 25 142q25 53 74 82.5t113 29.5zM260 426q-77 0 -109 -70q-16 -35 -18 -111q0 -75 15 -108q30 -68 105 -68q90 0 117 88q8 27 8 105q0 61 -13 92
q-28 72 -105 72zM207 550l-43 19q26 36 26 70q0 47 -64 58l29 81q116 -22 116 -106q0 -25 -16 -59t-48 -63zM476 763l-139 -209l-46 16l90 210z" />
    <glyph glyph-name="uni1F45" unicode="&#x1f45;" horiz-adv-x="514" 
d="M263 500q111 0 164 -83q34 -53 34 -152q0 -127 -31 -180q-25 -43 -72 -67t-106 -24q-113 0 -164 75q-37 56 -37 177q0 91 25 142q25 53 74 82.5t113 29.5zM260 426q-77 0 -109 -70q-16 -35 -18 -111q0 -75 15 -108q30 -68 105 -68q90 0 117 88q8 27 8 105q0 61 -13 92
q-28 72 -105 72zM247 569l-43 -19q-32 29 -48 63t-16 59q0 84 116 106l29 -81q-64 -11 -64 -58q0 -34 26 -70zM470 763l-139 -209l-46 16l90 210z" />
    <glyph glyph-name="uni1F48" unicode="&#x1f48;" horiz-adv-x="595" 
d="M297 701q113 0 180.5 -72t67.5 -185v-192q0 -118 -67.5 -188t-180.5 -70q-119 0 -183 73.5t-64 184.5v192q0 109 64 183t183 74zM298 618q-77 0 -119 -52t-42 -124v-185q0 -75 42 -128t119 -53q72 0 115.5 51t43.5 130v185q0 75 -43.5 125.5t-115.5 50.5zM-56 501l-43 19
q26 36 26 70q0 47 -64 58l29 81q116 -22 116 -106q0 -25 -16 -59t-48 -63z" />
    <glyph glyph-name="uni1F49" unicode="&#x1f49;" horiz-adv-x="595" 
d="M297 701q113 0 180.5 -72t67.5 -185v-192q0 -118 -67.5 -188t-180.5 -70q-119 0 -183 73.5t-64 184.5v192q0 109 64 183t183 74zM298 618q-77 0 -119 -52t-42 -124v-185q0 -75 42 -128t119 -53q72 0 115.5 51t43.5 130v185q0 75 -43.5 125.5t-115.5 50.5zM-27 520
l-43 -19q-32 29 -48 63t-16 59q0 84 116 106l29 -81q-64 -11 -64 -58q0 -34 26 -70z" />
    <glyph glyph-name="uni1F4A" unicode="&#x1f4a;" horiz-adv-x="595" 
d="M297 701q113 0 180.5 -72t67.5 -185v-192q0 -118 -67.5 -188t-180.5 -70q-119 0 -183 73.5t-64 184.5v192q0 109 64 183t183 74zM298 618q-77 0 -119 -52t-42 -124v-185q0 -75 42 -128t119 -53q72 0 115.5 51t43.5 130v185q0 75 -43.5 125.5t-115.5 50.5zM-251 502
l-43 19q26 36 26 70q0 47 -64 58l29 81q116 -22 116 -106q0 -25 -16 -59t-48 -63zM-40 504l-139 209l99 17l86 -210z" />
    <glyph glyph-name="uni1F4B" unicode="&#x1f4b;" horiz-adv-x="595" 
d="M297 701q113 0 180.5 -72t67.5 -185v-192q0 -118 -67.5 -188t-180.5 -70q-119 0 -183 73.5t-64 184.5v192q0 109 64 183t183 74zM298 618q-77 0 -119 -52t-42 -124v-185q0 -75 42 -128t119 -53q72 0 115.5 51t43.5 130v185q0 75 -43.5 125.5t-115.5 50.5zM-218 520
l-43 -19q-32 29 -48 63t-16 59q0 84 116 106l29 -81q-64 -11 -64 -58q0 -34 26 -70zM-35 504l-139 209l99 17l86 -210z" />
    <glyph glyph-name="uni1F4C" unicode="&#x1f4c;" horiz-adv-x="595" 
d="M297 701q113 0 180.5 -72t67.5 -185v-192q0 -118 -67.5 -188t-180.5 -70q-119 0 -183 73.5t-64 184.5v192q0 109 64 183t183 74zM298 618q-77 0 -119 -52t-42 -124v-185q0 -75 42 -128t119 -53q72 0 115.5 51t43.5 130v185q0 75 -43.5 125.5t-115.5 50.5zM-234 500
l-43 19q26 36 26 70q0 47 -64 58l29 81q116 -22 116 -106q0 -25 -16 -59t-48 -63zM35 713l-139 -209l-46 16l90 210z" />
    <glyph glyph-name="uni1F4D" unicode="&#x1f4d;" horiz-adv-x="595" 
d="M297 701q113 0 180.5 -72t67.5 -185v-192q0 -118 -67.5 -188t-180.5 -70q-119 0 -183 73.5t-64 184.5v192q0 109 64 183t183 74zM298 618q-77 0 -119 -52t-42 -124v-185q0 -75 42 -128t119 -53q72 0 115.5 51t43.5 130v185q0 75 -43.5 125.5t-115.5 50.5zM-187 519
l-43 -19q-32 29 -48 63t-16 59q0 84 116 106l29 -81q-64 -11 -64 -58q0 -34 26 -70zM36 713l-139 -209l-46 16l90 210z" />
    <glyph glyph-name="uni1F50" unicode="&#x1f50;" horiz-adv-x="529" 
d="M462 496v-323q0 -79 -55.5 -129t-142.5 -50t-141.5 50t-54.5 129v323h82v-298q0 -56 32.5 -90.5t82.5 -34.5t82.5 34.5t32.5 90.5v298h82zM274 551l-43 19q26 36 26 70q0 47 -64 58l29 81q116 -22 116 -106q0 -25 -16 -59t-48 -63z" />
    <glyph glyph-name="uni1F51" unicode="&#x1f51;" horiz-adv-x="529" 
d="M462 496v-323q0 -79 -55.5 -129t-142.5 -50t-141.5 50t-54.5 129v323h82v-298q0 -56 32.5 -90.5t82.5 -34.5t82.5 34.5t32.5 90.5v298h82zM305 570l-43 -19q-32 29 -48 63t-16 59q0 84 116 106l29 -81q-64 -11 -64 -58q0 -34 26 -70z" />
    <glyph glyph-name="uni1F52" unicode="&#x1f52;" horiz-adv-x="529" 
d="M462 496v-323q0 -79 -55.5 -129t-142.5 -50t-141.5 50t-54.5 129v323h82v-298q0 -56 32.5 -90.5t82.5 -34.5t82.5 34.5t32.5 90.5v298h82zM159 552l-43 19q26 36 26 70q0 47 -64 58l29 81q116 -22 116 -106q0 -25 -16 -59t-48 -63zM370 554l-139 209l99 17l86 -210z" />
    <glyph glyph-name="uni1F53" unicode="&#x1f53;" horiz-adv-x="529" 
d="M462 496v-323q0 -79 -55.5 -129t-142.5 -50t-141.5 50t-54.5 129v323h82v-298q0 -56 32.5 -90.5t82.5 -34.5t82.5 34.5t32.5 90.5v298h82zM209 570l-43 -19q-32 29 -48 63t-16 59q0 84 116 106l29 -81q-64 -11 -64 -58q0 -34 26 -70zM392 554l-139 209l99 17l86 -210z
" />
    <glyph glyph-name="uni1F54" unicode="&#x1f54;" horiz-adv-x="529" 
d="M462 496v-323q0 -79 -55.5 -129t-142.5 -50t-141.5 50t-54.5 129v323h82v-298q0 -56 32.5 -90.5t82.5 -34.5t82.5 34.5t32.5 90.5v298h82zM215 550l-43 19q26 36 26 70q0 47 -64 58l29 81q116 -22 116 -106q0 -25 -16 -59t-48 -63zM484 763l-139 -209l-46 16l90 210z" />
    <glyph glyph-name="uni1F55" unicode="&#x1f55;" horiz-adv-x="529" 
d="M462 496v-323q0 -79 -55.5 -129t-142.5 -50t-141.5 50t-54.5 129v323h82v-298q0 -56 32.5 -90.5t82.5 -34.5t82.5 34.5t32.5 90.5v298h82zM253 569l-43 -19q-32 29 -48 63t-16 59q0 84 116 106l29 -81q-64 -11 -64 -58q0 -34 26 -70zM476 763l-139 -209l-46 16l90 210z
" />
    <glyph glyph-name="uni1F56" unicode="&#x1f56;" horiz-adv-x="529" 
d="M462 496v-323q0 -79 -55.5 -129t-142.5 -50t-141.5 50t-54.5 129v323h82v-298q0 -56 32.5 -90.5t82.5 -34.5t82.5 34.5t32.5 90.5v298h82zM270 530l-41 15q32 34 32 62q0 31 -60 40l28 65q106 -15 106 -77q0 -51 -65 -105zM204 845q26 0 72 -23.5t62 -23.5q31 0 61 45
l52 -29q-42 -89 -107 -89q-25 0 -72 22.5t-65 22.5q-30 0 -63 -40l-48 26q20 42 49 65.5t59 23.5z" />
    <glyph glyph-name="uni1F57" unicode="&#x1f57;" horiz-adv-x="529" 
d="M462 496v-323q0 -79 -55.5 -129t-142.5 -50t-141.5 50t-54.5 129v323h82v-298q0 -56 32.5 -90.5t82.5 -34.5t82.5 34.5t32.5 90.5v298h82zM288 547l-41 -15q-64 53 -64 105q0 62 105 77l28 -65q-59 -9 -59 -40q0 -29 31 -62zM193 849q26 0 72 -23.5t62 -23.5q31 0 61 45
l52 -29q-42 -89 -107 -89q-25 0 -72 22.5t-65 22.5q-30 0 -63 -40l-48 26q20 42 49 65.5t59 23.5z" />
    <glyph glyph-name="uni1F59" unicode="&#x1f59;" horiz-adv-x="508" 
d="M504 696l-209 -420v-276h-84v276l-209 420h93l97 -193l62 -133l65 139l94 187h91zM-54 520l-43 -19q-32 29 -48 63t-16 59q0 84 116 106l29 -81q-64 -11 -64 -58q0 -34 26 -70z" />
    <glyph glyph-name="uni1F5B" unicode="&#x1f5b;" horiz-adv-x="508" 
d="M504 696l-209 -420v-276h-84v276l-209 420h93l97 -193l62 -133l65 139l94 187h91zM-246 520l-43 -19q-32 29 -48 63t-16 59q0 84 116 106l29 -81q-64 -11 -64 -58q0 -34 26 -70zM-63 504l-139 209l99 17l86 -210z" />
    <glyph glyph-name="uni1F5D" unicode="&#x1f5d;" horiz-adv-x="508" 
d="M504 696l-209 -420v-276h-84v276l-209 420h93l97 -193l62 -133l65 139l94 187h91zM-231 519l-43 -19q-32 29 -48 63t-16 59q0 84 116 106l29 -81q-64 -11 -64 -58q0 -34 26 -70zM-8 713l-139 -209l-46 16l90 210z" />
    <glyph glyph-name="uni1F5F" unicode="&#x1f5f;" horiz-adv-x="508" 
d="M504 696l-209 -420v-276h-84v276l-209 420h93l97 -193l62 -133l65 139l94 187h91zM-189 439l-41 -15q-64 53 -64 105q0 62 105 77l28 -65q-59 -9 -59 -40q0 -29 31 -62zM-284 741q26 0 72 -23.5t62 -23.5q31 0 61 45l52 -29q-42 -89 -107 -89q-25 0 -72 22.5t-65 22.5
q-30 0 -63 -40l-48 26q20 42 49 65.5t59 23.5z" />
    <glyph glyph-name="uni1F60" unicode="&#x1f60;" horiz-adv-x="752" 
d="M528 423l12 77q173 -11 173 -253q0 -252 -189 -252q-92 0 -146 74q-62 -75 -145 -75q-189 0 -189 252q0 243 178 254l9 -77q-103 -11 -103 -178q0 -80 25.5 -126.5t77.5 -46.5q49 0 76 33t27 90v185h82v-185q0 -56 29 -89t81 -33t77.5 46.5t25.5 126.5q0 164 -101 177z
M387 551l-43 19q26 36 26 70q0 47 -64 58l29 81q116 -22 116 -106q0 -25 -16 -59t-48 -63z" />
    <glyph glyph-name="uni1F61" unicode="&#x1f61;" horiz-adv-x="752" 
d="M528 423l12 77q173 -11 173 -253q0 -252 -189 -252q-92 0 -146 74q-62 -75 -145 -75q-189 0 -189 252q0 243 178 254l9 -77q-103 -11 -103 -178q0 -80 25.5 -126.5t77.5 -46.5q49 0 76 33t27 90v185h82v-185q0 -56 29 -89t81 -33t77.5 46.5t25.5 126.5q0 164 -101 177z
M413 570l-43 -19q-32 29 -48 63t-16 59q0 84 116 106l29 -81q-64 -11 -64 -58q0 -34 26 -70z" />
    <glyph glyph-name="uni1F62" unicode="&#x1f62;" horiz-adv-x="752" 
d="M528 423l12 77q173 -11 173 -253q0 -252 -189 -252q-92 0 -146 74q-62 -75 -145 -75q-189 0 -189 252q0 243 178 254l9 -77q-103 -11 -103 -178q0 -80 25.5 -126.5t77.5 -46.5q49 0 76 33t27 90v185h82v-185q0 -56 29 -89t81 -33t77.5 46.5t25.5 126.5q0 164 -101 177z
M274 552l-43 19q26 36 26 70q0 47 -64 58l29 81q116 -22 116 -106q0 -25 -16 -59t-48 -63zM485 554l-139 209l99 17l86 -210z" />
    <glyph glyph-name="uni1F63" unicode="&#x1f63;" horiz-adv-x="752" 
d="M528 423l12 77q173 -11 173 -253q0 -252 -189 -252q-92 0 -146 74q-62 -75 -145 -75q-189 0 -189 252q0 243 178 254l9 -77q-103 -11 -103 -178q0 -80 25.5 -126.5t77.5 -46.5q49 0 76 33t27 90v185h82v-185q0 -56 29 -89t81 -33t77.5 46.5t25.5 126.5q0 164 -101 177z
M326 570l-43 -19q-32 29 -48 63t-16 59q0 84 116 106l29 -81q-64 -11 -64 -58q0 -34 26 -70zM509 554l-139 209l99 17l86 -210z" />
    <glyph glyph-name="uni1F64" unicode="&#x1f64;" horiz-adv-x="752" 
d="M528 423l12 77q173 -11 173 -253q0 -252 -189 -252q-92 0 -146 74q-62 -75 -145 -75q-189 0 -189 252q0 243 178 254l9 -77q-103 -11 -103 -178q0 -80 25.5 -126.5t77.5 -46.5q49 0 76 33t27 90v185h82v-185q0 -56 29 -89t81 -33t77.5 46.5t25.5 126.5q0 164 -101 177z
M325 550l-43 19q26 36 26 70q0 47 -64 58l29 81q116 -22 116 -106q0 -25 -16 -59t-48 -63zM594 763l-139 -209l-46 16l90 210z" />
    <glyph glyph-name="uni1F65" unicode="&#x1f65;" horiz-adv-x="752" 
d="M528 423l12 77q173 -11 173 -253q0 -252 -189 -252q-92 0 -146 74q-62 -75 -145 -75q-189 0 -189 252q0 243 178 254l9 -77q-103 -11 -103 -178q0 -80 25.5 -126.5t77.5 -46.5q49 0 76 33t27 90v185h82v-185q0 -56 29 -89t81 -33t77.5 46.5t25.5 126.5q0 164 -101 177z
M369 569l-43 -19q-32 29 -48 63t-16 59q0 84 116 106l29 -81q-64 -11 -64 -58q0 -34 26 -70zM592 763l-139 -209l-46 16l90 210z" />
    <glyph glyph-name="uni1F66" unicode="&#x1f66;" horiz-adv-x="752" 
d="M528 423l12 77q173 -11 173 -253q0 -252 -189 -252q-92 0 -146 74q-62 -75 -145 -75q-189 0 -189 252q0 243 178 254l9 -77q-103 -11 -103 -178q0 -80 25.5 -126.5t77.5 -46.5q49 0 76 33t27 90v185h82v-185q0 -56 29 -89t81 -33t77.5 46.5t25.5 126.5q0 164 -101 177z
M387 530l-41 15q32 34 32 62q0 31 -60 40l28 65q106 -15 106 -77q0 -51 -65 -105zM321 845q26 0 72 -23.5t62 -23.5q31 0 61 45l52 -29q-42 -89 -107 -89q-25 0 -72 22.5t-65 22.5q-30 0 -63 -40l-48 26q20 42 49 65.5t59 23.5z" />
    <glyph glyph-name="uni1F67" unicode="&#x1f67;" horiz-adv-x="752" 
d="M528 423l12 77q173 -11 173 -253q0 -252 -189 -252q-92 0 -146 74q-62 -75 -145 -75q-189 0 -189 252q0 243 178 254l9 -77q-103 -11 -103 -178q0 -80 25.5 -126.5t77.5 -46.5q49 0 76 33t27 90v185h82v-185q0 -56 29 -89t81 -33t77.5 46.5t25.5 126.5q0 164 -101 177z
M405 547l-41 -15q-64 53 -64 105q0 62 105 77l28 -65q-59 -9 -59 -40q0 -29 31 -62zM310 849q26 0 72 -23.5t62 -23.5q31 0 61 45l52 -29q-42 -89 -107 -89q-25 0 -72 22.5t-65 22.5q-30 0 -63 -40l-48 26q20 42 49 65.5t59 23.5z" />
    <glyph glyph-name="uni1F68" unicode="&#x1f68;" horiz-adv-x="580" 
d="M346 95q49 17 75.5 64t26.5 111v173q0 77 -41.5 127.5t-117.5 50.5q-80 0 -120.5 -52t-40.5 -126v-173q0 -59 27 -107t78 -68l-1 -95h-205v81h88q-74 45 -74 194v170q0 109 64 183t183 74q113 0 180.5 -72t67.5 -185v-170q0 -139 -74 -194h89v-81h-205v95zM-60 501
l-43 19q26 36 26 70q0 47 -64 58l29 81q116 -22 116 -106q0 -25 -16 -59t-48 -63z" />
    <glyph glyph-name="uni1F69" unicode="&#x1f69;" horiz-adv-x="580" 
d="M346 95q49 17 75.5 64t26.5 111v173q0 77 -41.5 127.5t-117.5 50.5q-80 0 -120.5 -52t-40.5 -126v-173q0 -59 27 -107t78 -68l-1 -95h-205v81h88q-74 45 -74 194v170q0 109 64 183t183 74q113 0 180.5 -72t67.5 -185v-170q0 -139 -74 -194h89v-81h-205v95zM-33 520
l-43 -19q-32 29 -48 63t-16 59q0 84 116 106l29 -81q-64 -11 -64 -58q0 -34 26 -70z" />
    <glyph glyph-name="uni1F6A" unicode="&#x1f6a;" horiz-adv-x="580" 
d="M346 95q49 17 75.5 64t26.5 111v173q0 77 -41.5 127.5t-117.5 50.5q-80 0 -120.5 -52t-40.5 -126v-173q0 -59 27 -107t78 -68l-1 -95h-205v81h88q-74 45 -74 194v170q0 109 64 183t183 74q113 0 180.5 -72t67.5 -185v-170q0 -139 -74 -194h89v-81h-205v95zM-251 502
l-43 19q26 36 26 70q0 47 -64 58l29 81q116 -22 116 -106q0 -25 -16 -59t-48 -63zM-40 504l-139 209l99 17l86 -210z" />
    <glyph glyph-name="uni1F6B" unicode="&#x1f6b;" horiz-adv-x="580" 
d="M346 95q49 17 75.5 64t26.5 111v173q0 77 -41.5 127.5t-117.5 50.5q-80 0 -120.5 -52t-40.5 -126v-173q0 -59 27 -107t78 -68l-1 -95h-205v81h88q-74 45 -74 194v170q0 109 64 183t183 74q113 0 180.5 -72t67.5 -185v-170q0 -139 -74 -194h89v-81h-205v95zM-227 520
l-43 -19q-32 29 -48 63t-16 59q0 84 116 106l29 -81q-64 -11 -64 -58q0 -34 26 -70zM-44 504l-139 209l99 17l86 -210z" />
    <glyph glyph-name="uni1F6C" unicode="&#x1f6c;" horiz-adv-x="580" 
d="M346 95q49 17 75.5 64t26.5 111v173q0 77 -41.5 127.5t-117.5 50.5q-80 0 -120.5 -52t-40.5 -126v-173q0 -59 27 -107t78 -68l-1 -95h-205v81h88q-74 45 -74 194v170q0 109 64 183t183 74q113 0 180.5 -72t67.5 -185v-170q0 -139 -74 -194h89v-81h-205v95zM-224 500
l-43 19q26 36 26 70q0 47 -64 58l29 81q116 -22 116 -106q0 -25 -16 -59t-48 -63zM45 713l-139 -209l-46 16l90 210z" />
    <glyph glyph-name="uni1F6D" unicode="&#x1f6d;" horiz-adv-x="580" 
d="M346 95q49 17 75.5 64t26.5 111v173q0 77 -41.5 127.5t-117.5 50.5q-80 0 -120.5 -52t-40.5 -126v-173q0 -59 27 -107t78 -68l-1 -95h-205v81h88q-74 45 -74 194v170q0 109 64 183t183 74q113 0 180.5 -72t67.5 -185v-170q0 -139 -74 -194h89v-81h-205v95zM-172 519
l-43 -19q-32 29 -48 63t-16 59q0 84 116 106l29 -81q-64 -11 -64 -58q0 -34 26 -70zM51 713l-139 -209l-46 16l90 210z" />
    <glyph glyph-name="uni1F6E" unicode="&#x1f6e;" horiz-adv-x="580" 
d="M346 95q49 17 75.5 64t26.5 111v173q0 77 -41.5 127.5t-117.5 50.5q-80 0 -120.5 -52t-40.5 -126v-173q0 -59 27 -107t78 -68l-1 -95h-205v81h88q-74 45 -74 194v170q0 109 64 183t183 74q113 0 180.5 -72t67.5 -185v-170q0 -139 -74 -194h89v-81h-205v95zM-123 419
l-41 15q32 34 32 62q0 31 -60 40l28 65q106 -15 106 -77q0 -51 -65 -105zM-189 734q26 0 72 -23.5t62 -23.5q31 0 61 45l52 -29q-42 -89 -107 -89q-25 0 -72 22.5t-65 22.5q-30 0 -63 -40l-48 26q20 42 49 65.5t59 23.5z" />
    <glyph glyph-name="uni1F6F" unicode="&#x1f6f;" horiz-adv-x="580" 
d="M346 95q49 17 75.5 64t26.5 111v173q0 77 -41.5 127.5t-117.5 50.5q-80 0 -120.5 -52t-40.5 -126v-173q0 -59 27 -107t78 -68l-1 -95h-205v81h88q-74 45 -74 194v170q0 109 64 183t183 74q113 0 180.5 -72t67.5 -185v-170q0 -139 -74 -194h89v-81h-205v95zM-91 437
l-41 -15q-64 53 -64 105q0 62 105 77l28 -65q-59 -9 -59 -40q0 -29 31 -62zM-186 739q26 0 72 -23.5t62 -23.5q31 0 61 45l52 -29q-42 -89 -107 -89q-25 0 -72 22.5t-65 22.5q-30 0 -63 -40l-48 26q20 42 49 65.5t59 23.5z" />
    <glyph glyph-name="uni1F70" unicode="&#x1f70;" horiz-adv-x="505" 
d="M48 244q0 256 188 256q83 0 124 -60l2 1v54h82v-495h-82v55l-2 1q-57 -62 -135 -62q-177 0 -177 250zM133 247q0 -35 4 -61.5t15 -53.5t35.5 -41.5t60.5 -14.5q114 0 114 171q0 173 -114 173q-37 0 -61.5 -15.5t-35.5 -43.5t-14.5 -53.5t-3.5 -60.5zM245 554l-139 209
l99 17l86 -210z" />
    <glyph glyph-name="uni1F71" unicode="&#x1f71;" horiz-adv-x="505" 
d="M48 244q0 256 188 256q83 0 124 -60l2 1v54h82v-495h-82v55l-2 1q-57 -62 -135 -62q-177 0 -177 250zM133 247q0 -35 4 -61.5t15 -53.5t35.5 -41.5t60.5 -14.5q114 0 114 171q0 173 -114 173q-37 0 -61.5 -15.5t-35.5 -43.5t-14.5 -53.5t-3.5 -60.5zM397 763l-139 -209
l-46 16l90 210z" />
    <glyph glyph-name="uni1F72" unicode="&#x1f72;" horiz-adv-x="440" 
d="M127 259v2q-70 27 -70 98q0 59 47 100.5t133 41.5q109 0 174 -63l-51 -62q-18 19 -52.5 31.5t-66.5 12.5q-48 0 -75 -19.5t-27 -47.5q0 -25 19.5 -41t59.5 -16h84v-73h-81q-41 0 -66 -21t-25 -54t31 -54t84 -21q32 0 69 14.5t57 35.5l52 -59q-34 -31 -84 -49.5
t-101 -18.5q-86 0 -137.5 39t-51.5 107q0 31 18.5 66.5t59.5 50.5zM235 554l-139 209l99 17l86 -210z" />
    <glyph glyph-name="uni1F73" unicode="&#x1f73;" horiz-adv-x="440" 
d="M127 259v2q-70 27 -70 98q0 59 47 100.5t133 41.5q109 0 174 -63l-51 -62q-18 19 -52.5 31.5t-66.5 12.5q-48 0 -75 -19.5t-27 -47.5q0 -25 19.5 -41t59.5 -16h84v-73h-81q-41 0 -66 -21t-25 -54t31 -54t84 -21q32 0 69 14.5t57 35.5l52 -59q-34 -31 -84 -49.5
t-101 -18.5q-86 0 -137.5 39t-51.5 107q0 31 18.5 66.5t59.5 50.5zM377 763l-139 -209l-46 16l90 210z" />
    <glyph glyph-name="uni1F74" unicode="&#x1f74;" horiz-adv-x="524" 
d="M458 0h-82v297q0 61 -25.5 92t-87.5 31q-51 0 -83.5 -33.5t-32.5 -89.5v-297h-82v497h82v-63h3q53 67 138 67q75 0 122.5 -44.5t47.5 -127.5v-329zM255 554l-139 209l99 17l86 -210z" />
    <glyph glyph-name="uni1F75" unicode="&#x1f75;" horiz-adv-x="524" 
d="M458 0h-82v297q0 61 -25.5 92t-87.5 31q-51 0 -83.5 -33.5t-32.5 -89.5v-297h-82v497h82v-63h3q53 67 138 67q75 0 122.5 -44.5t47.5 -127.5v-329zM387 763l-139 -209l-46 16l90 210z" />
    <glyph glyph-name="uni1F76" unicode="&#x1f76;" horiz-adv-x="225" 
d="M195 70l-2 -70q-10 -1 -21 -1q-59 0 -81.5 25t-22.5 87v383h82v-379q0 -30 8 -37.5t37 -7.5zM108 554l-139 209l99 17l86 -210z" />
    <glyph glyph-name="uni1F77" unicode="&#x1f77;" horiz-adv-x="225" 
d="M195 70l-2 -70q-10 -1 -21 -1q-59 0 -81.5 25t-22.5 87v383h82v-379q0 -30 8 -37.5t37 -7.5zM271 763l-139 -209l-46 16l90 210z" />
    <glyph glyph-name="uni1F78" unicode="&#x1f78;" horiz-adv-x="514" 
d="M263 500q111 0 164 -83q34 -53 34 -152q0 -127 -31 -180q-25 -43 -72 -67t-106 -24q-113 0 -164 75q-37 56 -37 177q0 91 25 142q25 53 74 82.5t113 29.5zM260 426q-77 0 -109 -70q-16 -35 -18 -111q0 -75 15 -108q30 -68 105 -68q90 0 117 88q8 27 8 105q0 61 -13 92
q-28 72 -105 72zM245 554l-139 209l99 17l86 -210z" />
    <glyph glyph-name="uni1F79" unicode="&#x1f79;" horiz-adv-x="514" 
d="M263 500q111 0 164 -83q34 -53 34 -152q0 -127 -31 -180q-25 -43 -72 -67t-106 -24q-113 0 -164 75q-37 56 -37 177q0 91 25 142q25 53 74 82.5t113 29.5zM260 426q-77 0 -109 -70q-16 -35 -18 -111q0 -75 15 -108q30 -68 105 -68q90 0 117 88q8 27 8 105q0 61 -13 92
q-28 72 -105 72zM411 763l-139 -209l-46 16l90 210z" />
    <glyph glyph-name="uni1F7A" unicode="&#x1f7a;" horiz-adv-x="529" 
d="M462 496v-323q0 -79 -55.5 -129t-142.5 -50t-141.5 50t-54.5 129v323h82v-298q0 -56 32.5 -90.5t82.5 -34.5t82.5 34.5t32.5 90.5v298h82zM265 554l-139 209l99 17l86 -210z" />
    <glyph glyph-name="uni1F7B" unicode="&#x1f7b;" horiz-adv-x="529" 
d="M462 496v-323q0 -79 -55.5 -129t-142.5 -50t-141.5 50t-54.5 129v323h82v-298q0 -56 32.5 -90.5t82.5 -34.5t82.5 34.5t32.5 90.5v298h82zM407 763l-139 -209l-46 16l90 210z" />
    <glyph glyph-name="uni1F7C" unicode="&#x1f7c;" horiz-adv-x="752" 
d="M528 423l12 77q173 -11 173 -253q0 -252 -189 -252q-92 0 -146 74q-62 -75 -145 -75q-189 0 -189 252q0 243 178 254l9 -77q-103 -11 -103 -178q0 -80 25.5 -126.5t77.5 -46.5q49 0 76 33t27 90v185h82v-185q0 -56 29 -89t81 -33t77.5 46.5t25.5 126.5q0 164 -101 177z
M375 554l-139 209l99 17l86 -210z" />
    <glyph glyph-name="uni1F7D" unicode="&#x1f7d;" horiz-adv-x="752" 
d="M528 423l12 77q173 -11 173 -253q0 -252 -189 -252q-92 0 -146 74q-62 -75 -145 -75q-189 0 -189 252q0 243 178 254l9 -77q-103 -11 -103 -178q0 -80 25.5 -126.5t77.5 -46.5q49 0 76 33t27 90v185h82v-185q0 -56 29 -89t81 -33t77.5 46.5t25.5 126.5q0 164 -101 177z
M523 763l-139 -209l-46 16l90 210z" />
    <glyph glyph-name="uni1F80" unicode="&#x1f80;" horiz-adv-x="505" 
d="M48 244q0 256 188 256q83 0 124 -60l2 1v54h82v-495h-82v55l-2 1q-57 -62 -135 -62q-177 0 -177 250zM133 247q0 -35 4 -61.5t15 -53.5t35.5 -41.5t60.5 -14.5q114 0 114 171q0 173 -114 173q-37 0 -61.5 -15.5t-35.5 -43.5t-14.5 -53.5t-3.5 -60.5zM274 551l-43 19
q26 36 26 70q0 47 -64 58l29 81q116 -22 116 -106q0 -25 -16 -59t-48 -63zM226 -57h77v-94q0 -44 48 -44h17v-70h-28q-114 0 -114 108v100z" />
    <glyph glyph-name="uni1F81" unicode="&#x1f81;" horiz-adv-x="505" 
d="M48 244q0 256 188 256q83 0 124 -60l2 1v54h82v-495h-82v55l-2 1q-57 -62 -135 -62q-177 0 -177 250zM133 247q0 -35 4 -61.5t15 -53.5t35.5 -41.5t60.5 -14.5q114 0 114 171q0 173 -114 173q-37 0 -61.5 -15.5t-35.5 -43.5t-14.5 -53.5t-3.5 -60.5zM308 570l-43 -19
q-32 29 -48 63t-16 59q0 84 116 106l29 -81q-64 -11 -64 -58q0 -34 26 -70zM226 -57h77v-94q0 -44 48 -44h17v-70h-28q-114 0 -114 108v100z" />
    <glyph glyph-name="uni1F82" unicode="&#x1f82;" horiz-adv-x="505" 
d="M48 244q0 256 188 256q83 0 124 -60l2 1v54h82v-495h-82v55l-2 1q-57 -62 -135 -62q-177 0 -177 250zM133 247q0 -35 4 -61.5t15 -53.5t35.5 -41.5t60.5 -14.5q114 0 114 171q0 173 -114 173q-37 0 -61.5 -15.5t-35.5 -43.5t-14.5 -53.5t-3.5 -60.5zM164 552l-43 19
q26 36 26 70q0 47 -64 58l29 81q116 -22 116 -106q0 -25 -16 -59t-48 -63zM375 554l-139 209l99 17l86 -210zM226 -57h77v-94q0 -44 48 -44h17v-70h-28q-114 0 -114 108v100z" />
    <glyph glyph-name="uni1F83" unicode="&#x1f83;" horiz-adv-x="505" 
d="M48 244q0 256 188 256q83 0 124 -60l2 1v54h82v-495h-82v55l-2 1q-57 -62 -135 -62q-177 0 -177 250zM133 247q0 -35 4 -61.5t15 -53.5t35.5 -41.5t60.5 -14.5q114 0 114 171q0 173 -114 173q-37 0 -61.5 -15.5t-35.5 -43.5t-14.5 -53.5t-3.5 -60.5zM199 570l-43 -19
q-32 29 -48 63t-16 59q0 84 116 106l29 -81q-64 -11 -64 -58q0 -34 26 -70zM382 554l-139 209l99 17l86 -210zM226 -57h77v-94q0 -44 48 -44h17v-70h-28q-114 0 -114 108v100z" />
    <glyph glyph-name="uni1F84" unicode="&#x1f84;" horiz-adv-x="505" 
d="M48 244q0 256 188 256q83 0 124 -60l2 1v54h82v-495h-82v55l-2 1q-57 -62 -135 -62q-177 0 -177 250zM133 247q0 -35 4 -61.5t15 -53.5t35.5 -41.5t60.5 -14.5q114 0 114 171q0 173 -114 173q-37 0 -61.5 -15.5t-35.5 -43.5t-14.5 -53.5t-3.5 -60.5zM158 550l-43 19
q26 36 26 70q0 47 -64 58l29 81q116 -22 116 -106q0 -25 -16 -59t-48 -63zM427 763l-139 -209l-46 16l90 210zM226 -57h77v-94q0 -44 48 -44h17v-70h-28q-114 0 -114 108v100z" />
    <glyph glyph-name="uni1F85" unicode="&#x1f85;" horiz-adv-x="505" 
d="M48 244q0 256 188 256q83 0 124 -60l2 1v54h82v-495h-82v55l-2 1q-57 -62 -135 -62q-177 0 -177 250zM133 247q0 -35 4 -61.5t15 -53.5t35.5 -41.5t60.5 -14.5q114 0 114 171q0 173 -114 173q-37 0 -61.5 -15.5t-35.5 -43.5t-14.5 -53.5t-3.5 -60.5zM204 569l-43 -19
q-32 29 -48 63t-16 59q0 84 116 106l29 -81q-64 -11 -64 -58q0 -34 26 -70zM427 763l-139 -209l-46 16l90 210zM226 -57h77v-94q0 -44 48 -44h17v-70h-28q-114 0 -114 108v100z" />
    <glyph glyph-name="uni1F86" unicode="&#x1f86;" horiz-adv-x="505" 
d="M48 244q0 256 188 256q83 0 124 -60l2 1v54h82v-495h-82v55l-2 1q-57 -62 -135 -62q-177 0 -177 250zM133 247q0 -35 4 -61.5t15 -53.5t35.5 -41.5t60.5 -14.5q114 0 114 171q0 173 -114 173q-37 0 -61.5 -15.5t-35.5 -43.5t-14.5 -53.5t-3.5 -60.5zM275 530l-41 15
q32 34 32 62q0 31 -60 40l28 65q106 -15 106 -77q0 -51 -65 -105zM209 845q26 0 72 -23.5t62 -23.5q31 0 61 45l52 -29q-42 -89 -107 -89q-25 0 -72 22.5t-65 22.5q-30 0 -63 -40l-48 26q20 42 49 65.5t59 23.5zM226 -57h77v-94q0 -44 48 -44h17v-70h-28q-114 0 -114 108
v100z" />
    <glyph glyph-name="uni1F87" unicode="&#x1f87;" horiz-adv-x="505" 
d="M48 244q0 256 188 256q83 0 124 -60l2 1v54h82v-495h-82v55l-2 1q-57 -62 -135 -62q-177 0 -177 250zM133 247q0 -35 4 -61.5t15 -53.5t35.5 -41.5t60.5 -14.5q114 0 114 171q0 173 -114 173q-37 0 -61.5 -15.5t-35.5 -43.5t-14.5 -53.5t-3.5 -60.5zM300 547l-41 -15
q-64 53 -64 105q0 62 105 77l28 -65q-59 -9 -59 -40q0 -29 31 -62zM205 849q26 0 72 -23.5t62 -23.5q31 0 61 45l52 -29q-42 -89 -107 -89q-25 0 -72 22.5t-65 22.5q-30 0 -63 -40l-48 26q20 42 49 65.5t59 23.5zM226 -57h77v-94q0 -44 48 -44h17v-70h-28q-114 0 -114 108
v100z" />
    <glyph glyph-name="uni1F88" unicode="&#x1f88;" horiz-adv-x="837" 
d="M807 0h-35q-122 0 -122 115v381h82v-374q0 -47 51 -47h24v-75zM592 0h-93l-56 160h-289l-56 -160h-92l255 696h76zM418 236l-67 195l-51 148h-3l-49 -144l-69 -199h239zM60 495l-43 19q26 36 26 70q0 47 -64 58l29 81q116 -22 116 -106q0 -25 -16 -59t-48 -63z" />
    <glyph glyph-name="uni1F89" unicode="&#x1f89;" horiz-adv-x="837" 
d="M807 0h-35q-122 0 -122 115v381h82v-374q0 -47 51 -47h24v-75zM592 0h-93l-56 160h-289l-56 -160h-92l255 696h76zM418 236l-67 195l-51 148h-3l-49 -144l-69 -199h239zM83 515l-43 -19q-32 29 -48 63t-16 59q0 84 116 106l29 -81q-64 -11 -64 -58q0 -34 26 -70z" />
    <glyph glyph-name="uni1F8A" unicode="&#x1f8a;" horiz-adv-x="837" 
d="M807 0h-35q-122 0 -122 115v381h82v-374q0 -47 51 -47h24v-75zM592 0h-93l-56 160h-289l-56 -160h-92l255 696h76zM418 236l-67 195l-51 148h-3l-49 -144l-69 -199h239zM-121 496l-43 19q26 36 26 70q0 47 -64 58l29 81q116 -22 116 -106q0 -25 -16 -59t-48 -63zM90 498
l-139 209l99 17l86 -210z" />
    <glyph glyph-name="uni1F8B" unicode="&#x1f8b;" horiz-adv-x="837" 
d="M807 0h-35q-122 0 -122 115v381h82v-374q0 -47 51 -47h24v-75zM592 0h-93l-56 160h-289l-56 -160h-92l255 696h76zM418 236l-67 195l-51 148h-3l-49 -144l-69 -199h239zM-85 515l-43 -19q-32 29 -48 63t-16 59q0 84 116 106l29 -81q-64 -11 -64 -58q0 -34 26 -70zM98 499
l-139 209l99 17l86 -210z" />
    <glyph glyph-name="uni1F8C" unicode="&#x1f8c;" horiz-adv-x="837" 
d="M807 0h-35q-122 0 -122 115v381h82v-374q0 -47 51 -47h24v-75zM592 0h-93l-56 160h-289l-56 -160h-92l255 696h76zM418 236l-67 195l-51 148h-3l-49 -144l-69 -199h239zM-127 493l-43 19q26 36 26 70q0 47 -64 58l29 81q116 -22 116 -106q0 -25 -16 -59t-48 -63zM142 706
l-139 -209l-46 16l90 210z" />
    <glyph glyph-name="uni1F8D" unicode="&#x1f8d;" horiz-adv-x="837" 
d="M807 0h-35q-122 0 -122 115v381h82v-374q0 -47 51 -47h24v-75zM592 0h-93l-56 160h-289l-56 -160h-92l255 696h76zM418 236l-67 195l-51 148h-3l-49 -144l-69 -199h239zM-80 514l-43 -19q-32 29 -48 63t-16 59q0 84 116 106l29 -81q-64 -11 -64 -58q0 -34 26 -70z
M143 708l-139 -209l-46 16l90 210z" />
    <glyph glyph-name="uni1F8E" unicode="&#x1f8e;" horiz-adv-x="837" 
d="M807 0h-35q-122 0 -122 115v381h82v-374q0 -47 51 -47h24v-75zM592 0h-93l-56 160h-289l-56 -160h-92l255 696h76zM418 236l-67 195l-51 148h-3l-49 -144l-69 -199h239zM-7 420l-41 15q32 34 32 62q0 31 -60 40l28 65q106 -15 106 -77q0 -51 -65 -105zM-73 735
q26 0 72 -23.5t62 -23.5q31 0 61 45l52 -29q-42 -89 -107 -89q-25 0 -72 22.5t-65 22.5q-30 0 -63 -40l-48 26q20 42 49 65.5t59 23.5z" />
    <glyph glyph-name="uni1F8F" unicode="&#x1f8f;" horiz-adv-x="837" 
d="M807 0h-35q-122 0 -122 115v381h82v-374q0 -47 51 -47h24v-75zM592 0h-93l-56 160h-289l-56 -160h-92l255 696h76zM418 236l-67 195l-51 148h-3l-49 -144l-69 -199h239zM0 438l-41 -15q-64 53 -64 105q0 62 105 77l28 -65q-59 -9 -59 -40q0 -29 31 -62zM-95 740
q26 0 72 -23.5t62 -23.5q31 0 61 45l52 -29q-42 -89 -107 -89q-25 0 -72 22.5t-65 22.5q-30 0 -63 -40l-48 26q20 42 49 65.5t59 23.5z" />
    <glyph glyph-name="uni1F90" unicode="&#x1f90;" horiz-adv-x="524" 
d="M458 0h-82v297q0 61 -25.5 92t-87.5 31q-51 0 -83.5 -33.5t-32.5 -89.5v-297h-82v497h82v-63h3q53 67 138 67q75 0 122.5 -44.5t47.5 -127.5v-329zM262 551l-43 19q26 36 26 70q0 47 -64 58l29 81q116 -22 116 -106q0 -25 -16 -59t-48 -63zM226 -57h77v-94q0 -44 48 -44
h17v-70h-28q-114 0 -114 108v100z" />
    <glyph glyph-name="uni1F91" unicode="&#x1f91;" horiz-adv-x="524" 
d="M458 0h-82v297q0 61 -25.5 92t-87.5 31q-51 0 -83.5 -33.5t-32.5 -89.5v-297h-82v497h82v-63h3q53 67 138 67q75 0 122.5 -44.5t47.5 -127.5v-329zM289 570l-43 -19q-32 29 -48 63t-16 59q0 84 116 106l29 -81q-64 -11 -64 -58q0 -34 26 -70zM226 -57h77v-94
q0 -44 48 -44h17v-70h-28q-114 0 -114 108v100z" />
    <glyph glyph-name="uni1F92" unicode="&#x1f92;" horiz-adv-x="524" 
d="M458 0h-82v297q0 61 -25.5 92t-87.5 31q-51 0 -83.5 -33.5t-32.5 -89.5v-297h-82v497h82v-63h3q53 67 138 67q75 0 122.5 -44.5t47.5 -127.5v-329zM153 552l-43 19q26 36 26 70q0 47 -64 58l29 81q116 -22 116 -106q0 -25 -16 -59t-48 -63zM364 554l-139 209l99 17
l86 -210zM226 -57h77v-94q0 -44 48 -44h17v-70h-28q-114 0 -114 108v100z" />
    <glyph glyph-name="uni1F93" unicode="&#x1f93;" horiz-adv-x="524" 
d="M458 0h-82v297q0 61 -25.5 92t-87.5 31q-51 0 -83.5 -33.5t-32.5 -89.5v-297h-82v497h82v-63h3q53 67 138 67q75 0 122.5 -44.5t47.5 -127.5v-329zM192 570l-43 -19q-32 29 -48 63t-16 59q0 84 116 106l29 -81q-64 -11 -64 -58q0 -34 26 -70zM375 554l-139 209l99 17
l86 -210zM226 -57h77v-94q0 -44 48 -44h17v-70h-28q-114 0 -114 108v100z" />
    <glyph glyph-name="uni1F94" unicode="&#x1f94;" horiz-adv-x="524" 
d="M458 0h-82v297q0 61 -25.5 92t-87.5 31q-51 0 -83.5 -33.5t-32.5 -89.5v-297h-82v497h82v-63h3q53 67 138 67q75 0 122.5 -44.5t47.5 -127.5v-329zM199 550l-43 19q26 36 26 70q0 47 -64 58l29 81q116 -22 116 -106q0 -25 -16 -59t-48 -63zM468 763l-139 -209l-46 16
l90 210zM226 -57h77v-94q0 -44 48 -44h17v-70h-28q-114 0 -114 108v100z" />
    <glyph glyph-name="uni1F95" unicode="&#x1f95;" horiz-adv-x="524" 
d="M458 0h-82v297q0 61 -25.5 92t-87.5 31q-51 0 -83.5 -33.5t-32.5 -89.5v-297h-82v497h82v-63h3q53 67 138 67q75 0 122.5 -44.5t47.5 -127.5v-329zM245 569l-43 -19q-32 29 -48 63t-16 59q0 84 116 106l29 -81q-64 -11 -64 -58q0 -34 26 -70zM468 763l-139 -209l-46 16
l90 210zM226 -57h77v-94q0 -44 48 -44h17v-70h-28q-114 0 -114 108v100z" />
    <glyph glyph-name="uni1F96" unicode="&#x1f96;" horiz-adv-x="524" 
d="M458 0h-82v297q0 61 -25.5 92t-87.5 31q-51 0 -83.5 -33.5t-32.5 -89.5v-297h-82v497h82v-63h3q53 67 138 67q75 0 122.5 -44.5t47.5 -127.5v-329zM253 530l-41 15q32 34 32 62q0 31 -60 40l28 65q106 -15 106 -77q0 -51 -65 -105zM187 845q26 0 72 -23.5t62 -23.5
q31 0 61 45l52 -29q-42 -89 -107 -89q-25 0 -72 22.5t-65 22.5q-30 0 -63 -40l-48 26q20 42 49 65.5t59 23.5zM226 -57h77v-94q0 -44 48 -44h17v-70h-28q-114 0 -114 108v100z" />
    <glyph glyph-name="uni1F97" unicode="&#x1f97;" horiz-adv-x="524" 
d="M458 0h-82v297q0 61 -25.5 92t-87.5 31q-51 0 -83.5 -33.5t-32.5 -89.5v-297h-82v497h82v-63h3q53 67 138 67q75 0 122.5 -44.5t47.5 -127.5v-329zM276 546l-41 -15q-64 53 -64 105q0 62 105 77l28 -65q-59 -9 -59 -40q0 -29 31 -62zM181 848q26 0 72 -23.5t62 -23.5
q31 0 61 45l52 -29q-42 -89 -107 -89q-25 0 -72 22.5t-65 22.5q-30 0 -63 -40l-48 26q20 42 49 65.5t59 23.5zM226 -57h77v-94q0 -44 48 -44h17v-70h-28q-114 0 -114 108v100z" />
    <glyph glyph-name="uni1F98" unicode="&#x1f98;" horiz-adv-x="877" 
d="M847 0h-35q-122 0 -122 115v381h82v-374q0 -47 51 -47h24v-75zM560 0h-88v313h-308v-313h-88v696h88v-306h308v306h88v-696zM-56 501l-43 19q26 36 26 70q0 47 -64 58l29 81q116 -22 116 -106q0 -25 -16 -59t-48 -63z" />
    <glyph glyph-name="uni1F99" unicode="&#x1f99;" horiz-adv-x="877" 
d="M847 0h-35q-122 0 -122 115v381h82v-374q0 -47 51 -47h24v-75zM560 0h-88v313h-308v-313h-88v696h88v-306h308v306h88v-696zM-33 520l-43 -19q-32 29 -48 63t-16 59q0 84 116 106l29 -81q-64 -11 -64 -58q0 -34 26 -70z" />
    <glyph glyph-name="uni1F9A" unicode="&#x1f9a;" horiz-adv-x="877" 
d="M847 0h-35q-122 0 -122 115v381h82v-374q0 -47 51 -47h24v-75zM560 0h-88v313h-308v-313h-88v696h88v-306h308v306h88v-696zM-253 502l-43 19q26 36 26 70q0 47 -64 58l29 81q116 -22 116 -106q0 -25 -16 -59t-48 -63zM-42 504l-139 209l99 17l86 -210z" />
    <glyph glyph-name="uni1F9B" unicode="&#x1f9b;" horiz-adv-x="877" 
d="M847 0h-35q-122 0 -122 115v381h82v-374q0 -47 51 -47h24v-75zM560 0h-88v313h-308v-313h-88v696h88v-306h308v306h88v-696zM-225 520l-43 -19q-32 29 -48 63t-16 59q0 84 116 106l29 -81q-64 -11 -64 -58q0 -34 26 -70zM-42 504l-139 209l99 17l86 -210z" />
    <glyph glyph-name="uni1F9C" unicode="&#x1f9c;" horiz-adv-x="877" 
d="M847 0h-35q-122 0 -122 115v381h82v-374q0 -47 51 -47h24v-75zM560 0h-88v313h-308v-313h-88v696h88v-306h308v306h88v-696zM-263 500l-43 19q26 36 26 70q0 47 -64 58l29 81q116 -22 116 -106q0 -25 -16 -59t-48 -63zM6 713l-139 -209l-46 16l90 210z" />
    <glyph glyph-name="uni1F9D" unicode="&#x1f9d;" horiz-adv-x="877" 
d="M847 0h-35q-122 0 -122 115v381h82v-374q0 -47 51 -47h24v-75zM560 0h-88v313h-308v-313h-88v696h88v-306h308v306h88v-696zM-220 519l-43 -19q-32 29 -48 63t-16 59q0 84 116 106l29 -81q-64 -11 -64 -58q0 -34 26 -70zM3 713l-139 -209l-46 16l90 210z" />
    <glyph glyph-name="uni1F9E" unicode="&#x1f9e;" horiz-adv-x="877" 
d="M847 0h-35q-122 0 -122 115v381h82v-374q0 -47 51 -47h24v-75zM560 0h-88v313h-308v-313h-88v696h88v-306h308v306h88v-696zM-189 421l-41 15q32 34 32 62q0 31 -60 40l28 65q106 -15 106 -77q0 -51 -65 -105zM-255 736q26 0 72 -23.5t62 -23.5q31 0 61 45l52 -29
q-42 -89 -107 -89q-25 0 -72 22.5t-65 22.5q-30 0 -63 -40l-48 26q20 42 49 65.5t59 23.5z" />
    <glyph glyph-name="uni1F9F" unicode="&#x1f9f;" horiz-adv-x="877" 
d="M847 0h-35q-122 0 -122 115v381h82v-374q0 -47 51 -47h24v-75zM560 0h-88v313h-308v-313h-88v696h88v-306h308v306h88v-696zM-162 438l-41 -15q-64 53 -64 105q0 62 105 77l28 -65q-59 -9 -59 -40q0 -29 31 -62zM-257 740q26 0 72 -23.5t62 -23.5q31 0 61 45l52 -29
q-42 -89 -107 -89q-25 0 -72 22.5t-65 22.5q-30 0 -63 -40l-48 26q20 42 49 65.5t59 23.5z" />
    <glyph glyph-name="uni1FA0" unicode="&#x1fa0;" horiz-adv-x="752" 
d="M528 423l12 77q173 -11 173 -253q0 -252 -189 -252q-92 0 -146 74q-62 -75 -145 -75q-189 0 -189 252q0 243 178 254l9 -77q-103 -11 -103 -178q0 -80 25.5 -126.5t77.5 -46.5q49 0 76 33t27 90v185h82v-185q0 -56 29 -89t81 -33t77.5 46.5t25.5 126.5q0 164 -101 177z
M387 551l-43 19q26 36 26 70q0 47 -64 58l29 81q116 -22 116 -106q0 -25 -16 -59t-48 -63zM336 -57h77v-94q0 -44 48 -44h17v-70h-28q-114 0 -114 108v100z" />
    <glyph glyph-name="uni1FA1" unicode="&#x1fa1;" horiz-adv-x="752" 
d="M528 423l12 77q173 -11 173 -253q0 -252 -189 -252q-92 0 -146 74q-62 -75 -145 -75q-189 0 -189 252q0 243 178 254l9 -77q-103 -11 -103 -178q0 -80 25.5 -126.5t77.5 -46.5q49 0 76 33t27 90v185h82v-185q0 -56 29 -89t81 -33t77.5 46.5t25.5 126.5q0 164 -101 177z
M413 570l-43 -19q-32 29 -48 63t-16 59q0 84 116 106l29 -81q-64 -11 -64 -58q0 -34 26 -70zM333 -57h77v-94q0 -44 48 -44h17v-70h-28q-114 0 -114 108v100z" />
    <glyph glyph-name="uni1FA2" unicode="&#x1fa2;" horiz-adv-x="752" 
d="M528 423l12 77q173 -11 173 -253q0 -252 -189 -252q-92 0 -146 74q-62 -75 -145 -75q-189 0 -189 252q0 243 178 254l9 -77q-103 -11 -103 -178q0 -80 25.5 -126.5t77.5 -46.5q49 0 76 33t27 90v185h82v-185q0 -56 29 -89t81 -33t77.5 46.5t25.5 126.5q0 164 -101 177z
M274 552l-43 19q26 36 26 70q0 47 -64 58l29 81q116 -22 116 -106q0 -25 -16 -59t-48 -63zM485 554l-139 209l99 17l86 -210zM336 -57h77v-94q0 -44 48 -44h17v-70h-28q-114 0 -114 108v100z" />
    <glyph glyph-name="uni1FA3" unicode="&#x1fa3;" horiz-adv-x="752" 
d="M528 423l12 77q173 -11 173 -253q0 -252 -189 -252q-92 0 -146 74q-62 -75 -145 -75q-189 0 -189 252q0 243 178 254l9 -77q-103 -11 -103 -178q0 -80 25.5 -126.5t77.5 -46.5q49 0 76 33t27 90v185h82v-185q0 -56 29 -89t81 -33t77.5 46.5t25.5 126.5q0 164 -101 177z
M326 570l-43 -19q-32 29 -48 63t-16 59q0 84 116 106l29 -81q-64 -11 -64 -58q0 -34 26 -70zM509 554l-139 209l99 17l86 -210zM336 -57h77v-94q0 -44 48 -44h17v-70h-28q-114 0 -114 108v100z" />
    <glyph glyph-name="uni1FA4" unicode="&#x1fa4;" horiz-adv-x="752" 
d="M528 423l12 77q173 -11 173 -253q0 -252 -189 -252q-92 0 -146 74q-62 -75 -145 -75q-189 0 -189 252q0 243 178 254l9 -77q-103 -11 -103 -178q0 -80 25.5 -126.5t77.5 -46.5q49 0 76 33t27 90v185h82v-185q0 -56 29 -89t81 -33t77.5 46.5t25.5 126.5q0 164 -101 177z
M325 550l-43 19q26 36 26 70q0 47 -64 58l29 81q116 -22 116 -106q0 -25 -16 -59t-48 -63zM594 763l-139 -209l-46 16l90 210zM336 -57h77v-94q0 -44 48 -44h17v-70h-28q-114 0 -114 108v100z" />
    <glyph glyph-name="uni1FA5" unicode="&#x1fa5;" horiz-adv-x="752" 
d="M528 423l12 77q173 -11 173 -253q0 -252 -189 -252q-92 0 -146 74q-62 -75 -145 -75q-189 0 -189 252q0 243 178 254l9 -77q-103 -11 -103 -178q0 -80 25.5 -126.5t77.5 -46.5q49 0 76 33t27 90v185h82v-185q0 -56 29 -89t81 -33t77.5 46.5t25.5 126.5q0 164 -101 177z
M369 569l-43 -19q-32 29 -48 63t-16 59q0 84 116 106l29 -81q-64 -11 -64 -58q0 -34 26 -70zM592 763l-139 -209l-46 16l90 210zM336 -57h77v-94q0 -44 48 -44h17v-70h-28q-114 0 -114 108v100z" />
    <glyph glyph-name="uni1FA6" unicode="&#x1fa6;" horiz-adv-x="752" 
d="M528 423l12 77q173 -11 173 -253q0 -252 -189 -252q-92 0 -146 74q-62 -75 -145 -75q-189 0 -189 252q0 243 178 254l9 -77q-103 -11 -103 -178q0 -80 25.5 -126.5t77.5 -46.5q49 0 76 33t27 90v185h82v-185q0 -56 29 -89t81 -33t77.5 46.5t25.5 126.5q0 164 -101 177z
M387 530l-41 15q32 34 32 62q0 31 -60 40l28 65q106 -15 106 -77q0 -51 -65 -105zM321 845q26 0 72 -23.5t62 -23.5q31 0 61 45l52 -29q-42 -89 -107 -89q-25 0 -72 22.5t-65 22.5q-30 0 -63 -40l-48 26q20 42 49 65.5t59 23.5zM336 -57h77v-94q0 -44 48 -44h17v-70h-28
q-114 0 -114 108v100z" />
    <glyph glyph-name="uni1FA7" unicode="&#x1fa7;" horiz-adv-x="752" 
d="M528 423l12 77q173 -11 173 -253q0 -252 -189 -252q-92 0 -146 74q-62 -75 -145 -75q-189 0 -189 252q0 243 178 254l9 -77q-103 -11 -103 -178q0 -80 25.5 -126.5t77.5 -46.5q49 0 76 33t27 90v185h82v-185q0 -56 29 -89t81 -33t77.5 46.5t25.5 126.5q0 164 -101 177z
M405 547l-41 -15q-64 53 -64 105q0 62 105 77l28 -65q-59 -9 -59 -40q0 -29 31 -62zM310 849q26 0 72 -23.5t62 -23.5q31 0 61 45l52 -29q-42 -89 -107 -89q-25 0 -72 22.5t-65 22.5q-30 0 -63 -40l-48 26q20 42 49 65.5t59 23.5zM336 -57h77v-94q0 -44 48 -44h17v-70h-28
q-114 0 -114 108v100z" />
    <glyph glyph-name="uni1FA8" unicode="&#x1fa8;" horiz-adv-x="836" 
d="M806 0h-35q-122 0 -122 115v381h82v-374q0 -47 51 -47h24v-75zM346 95q49 17 75.5 64t26.5 111v173q0 77 -41.5 127.5t-117.5 50.5q-80 0 -120.5 -52t-40.5 -126v-173q0 -59 27 -107t78 -68l-1 -95h-205v81h88q-74 45 -74 194v170q0 109 64 183t183 74q113 0 180.5 -72
t67.5 -185v-170q0 -139 -74 -194h89v-81h-205v95zM-60 501l-43 19q26 36 26 70q0 47 -64 58l29 81q116 -22 116 -106q0 -25 -16 -59t-48 -63z" />
    <glyph glyph-name="uni1FA9" unicode="&#x1fa9;" horiz-adv-x="836" 
d="M806 0h-35q-122 0 -122 115v381h82v-374q0 -47 51 -47h24v-75zM346 95q49 17 75.5 64t26.5 111v173q0 77 -41.5 127.5t-117.5 50.5q-80 0 -120.5 -52t-40.5 -126v-173q0 -59 27 -107t78 -68l-1 -95h-205v81h88q-74 45 -74 194v170q0 109 64 183t183 74q113 0 180.5 -72
t67.5 -185v-170q0 -139 -74 -194h89v-81h-205v95zM-33 520l-43 -19q-32 29 -48 63t-16 59q0 84 116 106l29 -81q-64 -11 -64 -58q0 -34 26 -70z" />
    <glyph glyph-name="uni1FAA" unicode="&#x1faa;" horiz-adv-x="836" 
d="M806 0h-35q-122 0 -122 115v381h82v-374q0 -47 51 -47h24v-75zM346 95q49 17 75.5 64t26.5 111v173q0 77 -41.5 127.5t-117.5 50.5q-80 0 -120.5 -52t-40.5 -126v-173q0 -59 27 -107t78 -68l-1 -95h-205v81h88q-74 45 -74 194v170q0 109 64 183t183 74q113 0 180.5 -72
t67.5 -185v-170q0 -139 -74 -194h89v-81h-205v95zM-251 502l-43 19q26 36 26 70q0 47 -64 58l29 81q116 -22 116 -106q0 -25 -16 -59t-48 -63zM-40 504l-139 209l99 17l86 -210z" />
    <glyph glyph-name="uni1FAB" unicode="&#x1fab;" horiz-adv-x="836" 
d="M806 0h-35q-122 0 -122 115v381h82v-374q0 -47 51 -47h24v-75zM346 95q49 17 75.5 64t26.5 111v173q0 77 -41.5 127.5t-117.5 50.5q-80 0 -120.5 -52t-40.5 -126v-173q0 -59 27 -107t78 -68l-1 -95h-205v81h88q-74 45 -74 194v170q0 109 64 183t183 74q113 0 180.5 -72
t67.5 -185v-170q0 -139 -74 -194h89v-81h-205v95zM-227 520l-43 -19q-32 29 -48 63t-16 59q0 84 116 106l29 -81q-64 -11 -64 -58q0 -34 26 -70zM-44 504l-139 209l99 17l86 -210z" />
    <glyph glyph-name="uni1FAC" unicode="&#x1fac;" horiz-adv-x="836" 
d="M806 0h-35q-122 0 -122 115v381h82v-374q0 -47 51 -47h24v-75zM346 95q49 17 75.5 64t26.5 111v173q0 77 -41.5 127.5t-117.5 50.5q-80 0 -120.5 -52t-40.5 -126v-173q0 -59 27 -107t78 -68l-1 -95h-205v81h88q-74 45 -74 194v170q0 109 64 183t183 74q113 0 180.5 -72
t67.5 -185v-170q0 -139 -74 -194h89v-81h-205v95zM-224 500l-43 19q26 36 26 70q0 47 -64 58l29 81q116 -22 116 -106q0 -25 -16 -59t-48 -63zM45 713l-139 -209l-46 16l90 210z" />
    <glyph glyph-name="uni1FAD" unicode="&#x1fad;" horiz-adv-x="836" 
d="M806 0h-35q-122 0 -122 115v381h82v-374q0 -47 51 -47h24v-75zM346 95q49 17 75.5 64t26.5 111v173q0 77 -41.5 127.5t-117.5 50.5q-80 0 -120.5 -52t-40.5 -126v-173q0 -59 27 -107t78 -68l-1 -95h-205v81h88q-74 45 -74 194v170q0 109 64 183t183 74q113 0 180.5 -72
t67.5 -185v-170q0 -139 -74 -194h89v-81h-205v95zM-172 519l-43 -19q-32 29 -48 63t-16 59q0 84 116 106l29 -81q-64 -11 -64 -58q0 -34 26 -70zM51 713l-139 -209l-46 16l90 210z" />
    <glyph glyph-name="uni1FAE" unicode="&#x1fae;" horiz-adv-x="836" 
d="M806 0h-35q-122 0 -122 115v381h82v-374q0 -47 51 -47h24v-75zM346 95q49 17 75.5 64t26.5 111v173q0 77 -41.5 127.5t-117.5 50.5q-80 0 -120.5 -52t-40.5 -126v-173q0 -59 27 -107t78 -68l-1 -95h-205v81h88q-74 45 -74 194v170q0 109 64 183t183 74q113 0 180.5 -72
t67.5 -185v-170q0 -139 -74 -194h89v-81h-205v95zM-123 419l-41 15q32 34 32 62q0 31 -60 40l28 65q106 -15 106 -77q0 -51 -65 -105zM-189 734q26 0 72 -23.5t62 -23.5q31 0 61 45l52 -29q-42 -89 -107 -89q-25 0 -72 22.5t-65 22.5q-30 0 -63 -40l-48 26q20 42 49 65.5
t59 23.5z" />
    <glyph glyph-name="uni1FAF" unicode="&#x1faf;" horiz-adv-x="836" 
d="M806 0h-35q-122 0 -122 115v381h82v-374q0 -47 51 -47h24v-75zM346 95q49 17 75.5 64t26.5 111v173q0 77 -41.5 127.5t-117.5 50.5q-80 0 -120.5 -52t-40.5 -126v-173q0 -59 27 -107t78 -68l-1 -95h-205v81h88q-74 45 -74 194v170q0 109 64 183t183 74q113 0 180.5 -72
t67.5 -185v-170q0 -139 -74 -194h89v-81h-205v95zM-91 437l-41 -15q-64 53 -64 105q0 62 105 77l28 -65q-59 -9 -59 -40q0 -29 31 -62zM-186 739q26 0 72 -23.5t62 -23.5q31 0 61 45l52 -29q-42 -89 -107 -89q-25 0 -72 22.5t-65 22.5q-30 0 -63 -40l-48 26q20 42 49 65.5
t59 23.5z" />
    <glyph glyph-name="uni1FB0" unicode="&#x1fb0;" horiz-adv-x="505" 
d="M48 244q0 256 188 256q83 0 124 -60l2 1v54h82v-495h-82v55l-2 1q-57 -62 -135 -62q-177 0 -177 250zM133 247q0 -35 4 -61.5t15 -53.5t35.5 -41.5t60.5 -14.5q114 0 114 171q0 173 -114 173q-37 0 -61.5 -15.5t-35.5 -43.5t-14.5 -53.5t-3.5 -60.5zM125 697h73
q2 -23 21.5 -43t49.5 -20q33 0 52.5 20t19.5 43h71q-5 -51 -37.5 -90t-105.5 -39q-74 0 -108.5 40t-35.5 89z" />
    <glyph glyph-name="uni1FB1" unicode="&#x1fb1;" horiz-adv-x="505" 
d="M48 244q0 256 188 256q83 0 124 -60l2 1v54h82v-495h-82v55l-2 1q-57 -62 -135 -62q-177 0 -177 250zM133 247q0 -35 4 -61.5t15 -53.5t35.5 -41.5t60.5 -14.5q114 0 114 171q0 173 -114 173q-37 0 -61.5 -15.5t-35.5 -43.5t-14.5 -53.5t-3.5 -60.5zM403 600h-268v75h268
v-75z" />
    <glyph glyph-name="uni1FB2" unicode="&#x1fb2;" horiz-adv-x="505" 
d="M48 244q0 256 188 256q83 0 124 -60l2 1v54h82v-495h-82v55l-2 1q-57 -62 -135 -62q-177 0 -177 250zM133 247q0 -35 4 -61.5t15 -53.5t35.5 -41.5t60.5 -14.5q114 0 114 171q0 173 -114 173q-37 0 -61.5 -15.5t-35.5 -43.5t-14.5 -53.5t-3.5 -60.5zM245 554l-139 209
l99 17l86 -210zM226 -57h77v-94q0 -44 48 -44h17v-70h-28q-114 0 -114 108v100z" />
    <glyph glyph-name="uni1FB3" unicode="&#x1fb3;" horiz-adv-x="505" 
d="M48 244q0 256 188 256q83 0 124 -60l2 1v54h82v-495h-82v55l-2 1q-57 -62 -135 -62q-177 0 -177 250zM133 247q0 -35 4 -61.5t15 -53.5t35.5 -41.5t60.5 -14.5q114 0 114 171q0 173 -114 173q-37 0 -61.5 -15.5t-35.5 -43.5t-14.5 -53.5t-3.5 -60.5zM226 -57h77v-94
q0 -44 48 -44h17v-70h-28q-114 0 -114 108v100z" />
    <glyph glyph-name="uni1FB4" unicode="&#x1fb4;" horiz-adv-x="505" 
d="M48 244q0 256 188 256q83 0 124 -60l2 1v54h82v-495h-82v55l-2 1q-57 -62 -135 -62q-177 0 -177 250zM133 247q0 -35 4 -61.5t15 -53.5t35.5 -41.5t60.5 -14.5q114 0 114 171q0 173 -114 173q-37 0 -61.5 -15.5t-35.5 -43.5t-14.5 -53.5t-3.5 -60.5zM417 763l-139 -209
l-46 16l90 210zM226 -57h77v-94q0 -44 48 -44h17v-70h-28q-114 0 -114 108v100z" />
    <glyph glyph-name="uni1FB6" unicode="&#x1fb6;" horiz-adv-x="505" 
d="M48 244q0 256 188 256q83 0 124 -60l2 1v54h82v-495h-82v55l-2 1q-57 -62 -135 -62q-177 0 -177 250zM133 247q0 -35 4 -61.5t15 -53.5t35.5 -41.5t60.5 -14.5q114 0 114 171q0 173 -114 173q-37 0 -61.5 -15.5t-35.5 -43.5t-14.5 -53.5t-3.5 -60.5zM189 716
q26 0 72 -23.5t62 -23.5q31 0 61 45l52 -29q-42 -89 -107 -89q-25 0 -72 22.5t-65 22.5q-30 0 -63 -40l-48 26q20 42 49 65.5t59 23.5z" />
    <glyph glyph-name="uni1FB7" unicode="&#x1fb7;" horiz-adv-x="505" 
d="M48 244q0 256 188 256q83 0 124 -60l2 1v54h82v-495h-82v55l-2 1q-57 -62 -135 -62q-177 0 -177 250zM133 247q0 -35 4 -61.5t15 -53.5t35.5 -41.5t60.5 -14.5q114 0 114 171q0 173 -114 173q-37 0 -61.5 -15.5t-35.5 -43.5t-14.5 -53.5t-3.5 -60.5zM226 -57h77v-94
q0 -44 48 -44h17v-70h-28q-114 0 -114 108v100zM188 716q26 0 72 -23.5t62 -23.5q31 0 61 45l52 -29q-42 -89 -107 -89q-25 0 -72 22.5t-65 22.5q-30 0 -63 -40l-48 26q20 42 49 65.5t59 23.5z" />
    <glyph glyph-name="uni1FB8" unicode="&#x1fb8;" horiz-adv-x="598" 
d="M592 0h-93l-56 160h-289l-56 -160h-92l255 696h76zM418 236l-67 195l-51 148h-3l-49 -144l-69 -199h239zM156 860h73q2 -23 21.5 -43t49.5 -20q33 0 52.5 20t19.5 43h71q-5 -51 -37.5 -90t-105.5 -39q-74 0 -108.5 40t-35.5 89z" />
    <glyph glyph-name="uni1FB9" unicode="&#x1fb9;" horiz-adv-x="598" 
d="M433 780h-268v75h268v-75zM592 0h-93l-56 160h-289l-56 -160h-92l255 696h76zM418 236l-67 195l-51 148h-3l-49 -144l-69 -199h239z" />
    <glyph glyph-name="uni1FBA" unicode="&#x1fba;" horiz-adv-x="598" 
d="M592 0h-93l-56 160h-289l-56 -160h-92l255 696h76zM418 236l-67 195l-51 148h-3l-49 -144l-69 -199h239zM52 504l-139 209l99 17l86 -210z" />
    <glyph glyph-name="uni1FBB" unicode="&#x1fbb;" horiz-adv-x="598" 
d="M592 0h-93l-56 160h-289l-56 -160h-92l255 696h76zM418 236l-67 195l-51 148h-3l-49 -144l-69 -199h239zM160 713l-139 -209l-46 16l90 210z" />
    <glyph glyph-name="uni1FBC" unicode="&#x1fbc;" horiz-adv-x="837" 
d="M807 0h-35q-122 0 -122 115v381h82v-374q0 -47 51 -47h24v-75zM592 0h-93l-56 160h-289l-56 -160h-92l255 696h76zM418 236l-67 195l-51 148h-3l-49 -144l-69 -199h239z" />
    <glyph glyph-name="uni1FBD" unicode="&#x1fbd;" horiz-adv-x="505" 
d="M274 551l-43 19q26 36 26 70q0 47 -64 58l29 81q116 -22 116 -106q0 -25 -16 -59t-48 -63z" />
    <glyph glyph-name="uni1FBE" unicode="&#x1fbe;" horiz-adv-x="505" 
d="M226 -57h77v-94q0 -44 48 -44h17v-70h-28q-114 0 -114 108v100z" />
    <glyph glyph-name="uni1FC1" unicode="&#x1fc1;" horiz-adv-x="529" 
d="M382 589h-87v89h87v-89zM217 589h-87v89h87v-89zM189 838q26 0 72 -23.5t62 -23.5q31 0 61 45l52 -29q-42 -89 -107 -89q-25 0 -72 22.5t-65 22.5q-30 0 -63 -40l-48 26q20 42 49 65.5t59 23.5z" />
    </font>
</defs>
</svg>
